<?xml version="1.0" encoding="UTF-8" standalone="no"?>
<svg
   id="Layer_1"
   data-name="Layer 1"
   viewBox="0 0 122.88 114.3"
   version="1.1"
   sodipodi:docname="encrypted-icon-green.svg"
   inkscape:version="1.2.1 (9c6d41e410, 2022-07-14)"
   xmlns:inkscape="http://www.inkscape.org/namespaces/inkscape"
   xmlns:sodipodi="http://sodipodi.sourceforge.net/DTD/sodipodi-0.dtd"
   xmlns="http://www.w3.org/2000/svg"
   xmlns:svg="http://www.w3.org/2000/svg"
   xmlns:rdf="http://www.w3.org/1999/02/22-rdf-syntax-ns#"
   xmlns:cc="http://creativecommons.org/ns#"
   xmlns:dc="http://purl.org/dc/elements/1.1/">
  <sodipodi:namedview
     id="namedview11"
     pagecolor="#ffffff"
     bordercolor="#000000"
     borderopacity="0.25"
     inkscape:showpageshadow="2"
     inkscape:pageopacity="0.0"
     inkscape:pagecheckerboard="0"
     inkscape:deskcolor="#d1d1d1"
     showgrid="false"
     inkscape:zoom="6.8111408"
     inkscape:cx="62.030724"
     inkscape:cy="57.112312"
     inkscape:window-width="2560"
     inkscape:window-height="1403"
     inkscape:window-x="0"
     inkscape:window-y="0"
     inkscape:window-maximized="1"
     inkscape:current-layer="Layer_1" />
  <defs
     id="defs4">
    <style
       id="style2">.cls-1{fill-rule:evenodd;}</style>
  </defs>
  <title
     id="title6">encrypted</title>
  <path
     class="cls-1"
     d="M61.46,24.21c11.15,7.07,21.23,10.42,29.87,9.62C92.84,64.38,81.56,82.42,61.57,90c-19.3-7-30.72-24.31-29.87-56.58,10.15.53,20.11-1.66,29.76-9.16Zm14.14-5.3v4.38c1.16.5,2.31.95,3.45,1.37v-4h4a5.06,5.06,0,1,0,0-3.45H77.32a1.71,1.71,0,0,0-1.72,1.72ZM0,36.48a5.06,5.06,0,1,1,7.09,4.63V51.22H25.43c.2,1.17.41,2.32.64,3.45H5.37A1.71,1.71,0,0,1,3.65,53V41.34A5.05,5.05,0,0,1,0,36.48Zm13.91-3.36a5.05,5.05,0,0,1,10-.94c0,.59,0,1.18,0,1.77a5.1,5.1,0,0,1-3.31,3.94v4h3.67c.09,1.17.2,2.32.32,3.45H18.91a1.72,1.72,0,0,1-1.72-1.72V37.85a5,5,0,0,1-3.28-4.73ZM.08,64.49a5.06,5.06,0,0,1,9.81-1.73H28.16c.37,1.18.77,2.33,1.18,3.45H9.89A5.06,5.06,0,0,1,.08,64.49ZM11,85.54a5.06,5.06,0,0,1,3.26-4.73V74.16A1.72,1.72,0,0,1,16,72.44H32.05c.59,1.19,1.22,2.34,1.88,3.46H17.71v4.86A5.06,5.06,0,1,1,11,85.54ZM84.4,114.3a5.06,5.06,0,1,0-4.62-7.1H69.67V94.72q-1.68.93-3.45,1.77v12.44a1.72,1.72,0,0,0,1.72,1.72H79.55a5.05,5.05,0,0,0,4.85,3.65Zm3.37-13.91A5.06,5.06,0,1,0,83,93.66h-4V88.18q-1.67,1.45-3.45,2.76v4.45a1.71,1.71,0,0,0,1.72,1.72H83a5,5,0,0,0,4.73,3.28ZM56.4,114.21a5.05,5.05,0,0,0,1.73-9.8V97.07C57,96.56,55.8,96,54.68,95.43v9a5.05,5.05,0,0,0,1.72,9.8Zm-21-10.91A5.06,5.06,0,0,0,40.08,100h6.65a1.74,1.74,0,0,0,1.72-1.73V91.68C47.26,90.85,46.11,90,45,89v7.56H40.13a5.06,5.06,0,1,0-4.78,6.71Zm87.53-66.82a5.06,5.06,0,1,0-7.09,4.63V51.22H98c-.18,1.17-.39,2.32-.62,3.45h20.18A1.71,1.71,0,0,0,119.23,53V41.34a5.05,5.05,0,0,0,3.65-4.86ZM109,33.12a5.05,5.05,0,0,0-9.81-1.71,5.69,5.69,0,0,0,0,3.51,5.1,5.1,0,0,0,3,3v4H99c-.08,1.17-.17,2.32-.28,3.45H104a1.72,1.72,0,0,0,1.72-1.72V37.85A5,5,0,0,0,109,33.12ZM122.8,64.49A5.06,5.06,0,0,0,113,62.76H95.25c-.38,1.18-.78,2.33-1.21,3.45H113a5.06,5.06,0,0,0,9.81-1.72ZM111.88,85.54a5.06,5.06,0,0,0-3.26-4.73V74.16a1.72,1.72,0,0,0-1.73-1.72H91.28c-.61,1.19-1.26,2.34-1.93,3.46h15.82v4.86a5.06,5.06,0,1,0,6.71,4.78ZM84.4,0a5.06,5.06,0,1,1-4.62,7.09H69.67V20.48c-1.14-.6-2.29-1.22-3.45-1.88V5.37a1.71,1.71,0,0,1,1.72-1.72H79.55A5.05,5.05,0,0,1,84.4,0ZM56.4.08a5.06,5.06,0,0,1,1.73,9.81v8.22q-1.73,1.17-3.45,2.16V9.89A5.06,5.06,0,0,1,56.4.08ZM35.35,11a5.06,5.06,0,0,1,4.73,3.26h6.65A1.74,1.74,0,0,1,48.45,16v7.35c-1.15.48-2.3.91-3.46,1.29V17.71H40.13A5.06,5.06,0,1,1,35.35,11Zm15,39.13h1.11V48.08a10.61,10.61,0,0,1,2.94-7.35,9.77,9.77,0,0,1,14.28,0,10.61,10.61,0,0,1,2.94,7.35v2.05h1.11a1.66,1.66,0,0,1,1.65,1.65V69.16a1.65,1.65,0,0,1-1.65,1.64H50.37a1.65,1.65,0,0,1-1.65-1.64V51.78a1.66,1.66,0,0,1,1.65-1.65Zm9.84,11.1-1.77,4.65h6.24L63,61.17a3.24,3.24,0,1,0-2.83.06ZM54.6,50.13H68.52V48.08a7.51,7.51,0,0,0-2.06-5.2,6.7,6.7,0,0,0-9.8,0,7.51,7.51,0,0,0-2.06,5.2v2.05Z"
     id="path8" />
  <path
     style="fill:#808080;stroke-width:0.146818"
     d="M 59.461404,89.068048 C 49.883734,85.021145 42.960383,78.620854 38.349358,69.55102 34.807274,62.58378 32.848508,54.866546 32.006044,44.559349 c -0.0825,-1.009376 -0.192562,-3.890573 -0.244578,-6.40266 l -0.09457,-4.567431 3.656681,-0.08507 c 4.851117,-0.112852 7.748853,-0.524435 11.731687,-1.66632 4.357449,-1.249288 9.615615,-3.86775 13.245709,-6.596097 0.582884,-0.438092 1.121593,-0.796531 1.197129,-0.796531 0.07554,0 0.976736,0.499866 2.002665,1.110812 6.214775,3.700933 11.731364,6.087179 17.107469,7.399975 3.070036,0.749676 4.65658,0.942855 7.812562,0.951266 l 2.899144,0.0077 -8.1e-5,4.771594 c -4.4e-5,2.624377 -0.0673,5.69655 -0.149447,6.827051 -1.106718,15.229592 -5.952799,26.918564 -14.541779,35.075439 -3.592762,3.412015 -8.182573,6.408993 -12.909496,8.429428 -0.928626,0.396923 -1.820547,0.758876 -1.982047,0.804338 -0.178948,0.05038 -1.067782,-0.244445 -2.275684,-0.754825 z M 73.883984,70.411466 74.36346,69.98311 74.40332,60.589649 74.44317,51.196188 74.063538,50.74502 C 73.668644,50.275717 72.94239,49.993848 72.124481,49.992444 l -0.477159,-8.19e-4 v -1.622722 c 0,-2.072694 -0.289153,-3.380688 -1.126148,-5.094166 -1.148599,-2.351387 -3.295352,-4.310733 -5.601916,-5.112876 -2.71346,-0.943649 -5.129881,-0.794735 -7.793944,0.480309 -1.125717,0.538779 -1.589797,0.869436 -2.504366,1.784366 -2.222675,2.223548 -3.234549,4.748169 -3.234549,8.070177 v 1.453831 l -0.818873,0.08452 c -0.45038,0.04648 -0.984443,0.193001 -1.186809,0.325596 -0.798442,0.523159 -0.795916,0.488495 -0.751448,10.317545 0.03771,8.336165 0.06143,9.089358 0.296658,9.421687 0.533094,0.753148 0.118754,0.729174 12.69873,0.73473 l 11.779852,0.0052 z"
     id="path186" />
  <path
     style="fill:#808080;stroke-width:0.146818"
     d="m 54.660064,48.413329 c 0.143224,-2.578921 0.742274,-4.080587 2.214296,-5.550673 0.578142,-0.577382 1.265167,-1.076292 1.926362,-1.398904 0.988016,-0.482075 1.09297,-0.501451 2.716138,-0.501451 1.646964,0 1.716601,0.01346 2.836791,0.548336 1.36003,0.649397 2.442068,1.680331 3.141475,2.993106 0.665706,1.24952 0.922194,2.376088 0.922194,4.050546 v 1.437336 h -6.922455 -6.922454 z"
     id="path188" />
  <path
     style="fill:#808080;stroke-width:0.146818"
     d="m 86.458324,100.15679 c -1.37006,-0.387548 -2.554172,-1.381157 -3.160015,-2.651623 l -0.253546,-0.531691 h -3.170142 c -4.336389,0 -4.263205,0.06267 -4.263205,-3.650662 v -2.343879 l 0.770795,-0.562684 c 0.423938,-0.309476 1.183723,-0.911404 1.688411,-1.337619 l 0.917614,-0.774936 v 2.719889 2.719888 h 2.033158 2.033158 l 0.272789,-0.604937 c 0.389483,-0.863721 1.406148,-1.847375 2.382186,-2.30484 0.704557,-0.330223 1.040886,-0.393634 2.087806,-0.393634 1.588133,0 2.568352,0.437074 3.660714,1.632292 2.21099,2.419175 1.462876,6.227326 -1.510972,7.691346 -1.075429,0.52943 -2.456607,0.68506 -3.488751,0.39309 z"
     id="path190" />
  <path
     style="fill:#808080;stroke-width:0.146818"
     d="m 83.635107,114.13623 c -1.605928,-0.25188 -3.128104,-1.42085 -3.71795,-2.85525 l -0.268239,-0.6523 -5.914151,-5.5e-4 c -6.345658,-5.9e-4 -6.628175,-0.0304 -7.133488,-0.7518 -0.212576,-0.3035 -0.239415,-1.06938 -0.239415,-6.83192 v -6.490111 l 1.566608,-0.81814 c 0.861635,-0.449976 1.588385,-0.818139 1.615001,-0.818139 0.02662,0 0.04839,2.774865 0.04839,6.16637 v 6.16637 h 5.116694 5.116694 l 0.449737,-0.72348 c 0.928319,-1.49335 2.552662,-2.29436 4.420566,-2.17991 1.936153,0.11863 3.441577,1.13751 4.247201,2.87454 0.518662,1.11829 0.546179,2.82678 0.06273,3.8945 -0.987974,2.18196 -3.108799,3.37453 -5.370376,3.01982 z"
     id="path192" />
  <path
     style="fill:#808080;stroke-width:0.146818"
     d="m 105.08228,90.167137 c -2.19779,-0.927102 -3.2959,-2.635589 -3.15915,-4.91512 0.1097,-1.828514 1.11643,-3.375635 2.69329,-4.13898 l 0.65229,-0.315767 v -2.482813 -2.482814 h -7.867014 c -4.326858,0 -7.844991,-0.04955 -7.818074,-0.110114 0.02692,-0.06056 0.441247,-0.822477 0.920734,-1.693144 l 0.871794,-1.58303 8.010712,0.04144 c 7.370738,0.03813 8.041158,0.06213 8.391828,0.300429 0.67014,0.455392 0.72002,0.76821 0.72002,4.515742 v 3.51296 l 0.47716,0.245758 c 3.06016,1.576117 3.7489,5.54702 1.37219,7.911315 -1.01555,1.010249 -1.93466,1.424483 -3.31753,1.495184 -0.91868,0.04697 -1.2415,-0.0029 -1.94825,-0.301044 z"
     id="path194" />
  <path
     style="fill:#808080;stroke-width:0.146818"
     d="m 117.01417,69.369456 c -1.52082,-0.252978 -2.81529,-1.142581 -3.54564,-2.436691 l -0.44648,-0.791129 h -9.43472 -9.434721 l 0.602933,-1.687083 0.602933,-1.687084 8.831855,-0.0013 8.83185,-0.0013 0.37062,-0.632423 c 1.16587,-1.98941 3.51407,-2.991059 5.59431,-2.386317 1.82626,0.530907 3.01042,1.714136 3.54056,3.537764 0.95079,3.270597 -2.11218,6.6514 -5.5135,6.085616 z"
     id="path196" />
  <path
     style="fill:#808080;stroke-width:0.146818"
     d="m 97.48734,54.479182 c 0,-0.0351 0.09167,-0.514092 0.203715,-1.064433 0.112043,-0.550342 0.247174,-1.248378 0.300289,-1.551191 l 0.09657,-0.550568 h 8.875856 8.87585 v -5.126666 -5.126665 l -0.49606,-0.306582 c -0.72086,-0.445521 -1.68449,-1.543754 -2.0482,-2.334305 -0.48332,-1.050547 -0.45078,-2.900634 0.0706,-4.012698 0.48379,-1.031931 1.41759,-1.960127 2.47368,-2.45883 0.67806,-0.320185 1.00756,-0.38015 2.05546,-0.374058 1.48488,0.0086 2.27841,0.311558 3.3121,1.264386 1.6157,1.489294 2.04321,3.807244 1.07305,5.818018 -0.43019,0.891613 -1.54332,1.975047 -2.38821,2.324497 l -0.66367,0.274497 -0.0427,6.093635 c -0.0388,5.537224 -0.0663,6.128436 -0.30165,6.474757 -0.14245,0.209618 -0.42635,0.457374 -0.63089,0.550569 -0.26964,0.122854 -3.17576,0.169447 -10.56886,0.169447 -5.60833,0 -10.196964,-0.02871 -10.196964,-0.06381 z"
     id="path198" />
  <path
     style="fill:#808080;stroke-width:0.146818"
     d="m 98.878188,44.237655 c 0.04893,-0.590195 0.123433,-1.35387 0.165556,-1.697058 l 0.07659,-0.623977 h 1.606006 1.606 V 39.889419 37.862218 L 101.774,37.615877 c -0.92163,-0.406622 -1.74514,-1.222441 -2.222894,-2.202129 -1.036661,-2.125798 -0.591197,-4.444891 1.157214,-6.024477 0.97805,-0.883611 1.78165,-1.17719 3.23902,-1.183315 1.06832,-0.0045 1.36821,0.05297 2.08338,0.399211 2.48508,1.203111 3.57164,4.234505 2.38689,6.659129 -0.40531,0.82947 -1.77822,2.192953 -2.35349,2.337338 l -0.35496,0.08909 -8.2e-4,2.883745 c -8.9e-4,3.137055 -0.0967,3.749253 -0.67111,4.289421 -0.37102,0.348886 -0.43854,0.357067 -3.31337,0.401495 l -2.934644,0.04535 0.08897,-1.073079 z"
     id="path200" />
  <path
     style="fill:#808080;stroke-width:0.146818"
     d="m 77.116303,23.825514 -1.504887,-0.603215 0.0083,-2.14137 c 0.0095,-2.461459 0.145519,-3.015555 0.857631,-3.494356 0.479878,-0.322655 0.61531,-0.335425 3.557359,-0.335425 h 3.058488 l 0.306736,-0.601252 c 0.419738,-0.822754 1.394903,-1.764494 2.272381,-2.194491 1.045868,-0.512515 2.767202,-0.576778 3.914495,-0.146141 1.104554,0.414594 2.185338,1.438956 2.716663,2.574838 0.344013,0.735442 0.412076,1.075377 0.412173,2.058544 1.03e-4,1.035126 -0.05837,1.296439 -0.483208,2.159407 -0.525654,1.067753 -1.276782,1.81347 -2.368536,2.351468 -0.554271,0.273136 -0.915749,0.331041 -2.066551,0.331041 -1.310511,0 -1.450954,-0.03046 -2.324696,-0.504175 -0.925628,-0.501847 -1.677186,-1.266235 -2.138749,-2.175259 L 83.091621,20.627969 H 81.039936 78.98825 v 1.908637 c 0,1.433436 -0.04569,1.906582 -0.183523,1.900381 -0.100937,-0.0045 -0.860722,-0.279705 -1.68841,-0.611473 z"
     id="path202" />
  <path
     style="fill:#808080;stroke-width:0.146818"
     d="M 67.976865,19.467285 66.435273,18.617138 66.397122,11.68113 66.358972,4.7451224 66.8596,4.2444944 67.360228,3.7438662 h 6.090411 6.090412 l 0.386061,-0.7890804 c 0.460442,-0.9411107 1.59468,-2.04589454 2.552869,-2.48657625 0.972773,-0.44738882 2.892702,-0.44168368 3.887188,0.0115509 2.23252,1.01746645 3.48373,3.58898905 2.833902,5.82431665 C 88.333857,9.2871888 85.233851,10.81484 82.460193,9.6259112 81.653734,9.2802221 80.474651,8.2222164 80.080771,7.490825 L 79.802372,6.9738684 H 74.6986 69.594828 l -0.03819,6.6717816 -0.03818,6.671782 z"
     id="path204" />
  <path
     style="fill:#808080;stroke-width:0.146818"
     d="M 54.763219,14.924353 V 9.8080117 L 54.193617,9.5511568 C 52.997727,9.0118856 51.969255,7.7069647 51.599562,6.2598315 51.049753,4.1076473 52.152294,1.787733 54.249355,0.68426187 54.89143,0.34640322 55.158279,0.29771149 56.37822,0.29581027 c 1.153678,-0.001798 1.510895,0.0550489 2.066551,0.32886714 1.091754,0.53799829 1.842883,1.28371489 2.368536,2.35146819 0.425103,0.863505 0.483326,1.1240082 0.483326,2.1624943 0,1.0384861 -0.05822,1.2989893 -0.483326,2.1624943 -0.512966,1.0419834 -1.302278,1.8400286 -2.255016,2.2799672 l -0.553798,0.2557235 -0.04234,4.1609781 -0.04234,4.160979 -1.468182,0.933898 c -0.807501,0.513645 -1.517734,0.937075 -1.578297,0.940958 -0.06056,0.0039 -0.110114,-2.295297 -0.110115,-5.109285 z"
     id="path206" />
  <path
     style="fill:#808080;stroke-width:0.146818"
     d="m 45.073213,21.068424 v -3.376821 h -2.481896 -2.481896 l -0.439943,0.779537 c -0.792021,1.403385 -2.226583,2.343869 -3.86979,2.536996 -0.643014,0.07557 -1.068183,0.02472 -1.896221,-0.226785 -0.926274,-0.281347 -1.186968,-0.443907 -1.972228,-1.229815 -1.199926,-1.200915 -1.596055,-2.192935 -1.50485,-3.768571 0.108658,-1.877148 1.166073,-3.432627 2.879638,-4.236006 1.110935,-0.520845 2.961553,-0.553173 4.011608,-0.07008 0.893322,0.410988 1.898762,1.346698 2.33924,2.177008 l 0.350603,0.660893 3.523891,5.43e-4 c 3.23031,4.99e-4 3.562863,0.02431 3.99168,0.28578 0.836782,0.510223 0.853575,0.605243 0.853575,4.829882 v 3.868256 l -1.468183,0.566189 c -0.8075,0.31141 -1.550768,0.569259 -1.651705,0.573003 -0.141696,0.0053 -0.183523,-0.762804 -0.183523,-3.370012 z"
     id="path208" />
  <path
     style="fill:#808080;stroke-width:0.146818"
     d="m 18.104724,45.007111 c -0.257285,-0.156877 -0.538074,-0.416559 -0.623978,-0.577072 -0.09651,-0.180337 -0.156189,-1.500811 -0.156189,-3.456116 v -3.164275 l -0.510756,-0.213407 c -0.716719,-0.299465 -1.864598,-1.415179 -2.250079,-2.18703 -0.565657,-1.132617 -0.694194,-2.155135 -0.41415,-3.294562 0.261126,-1.062453 0.988903,-2.270421 1.672286,-2.775668 1.113341,-0.823128 1.661694,-0.999219 3.1177,-1.001177 1.153285,-0.0016 1.511085,0.05544 2.066551,0.329165 1.052035,0.518426 1.836945,1.281966 2.327964,2.264581 0.39842,0.797309 0.450323,1.047283 0.449055,2.162718 -0.0012,1.023858 -0.06826,1.404738 -0.356522,2.023869 -0.458138,0.983993 -1.354479,1.95026 -2.201562,2.373314 l -0.670484,0.334856 v 2.045157 2.045156 h 1.817979 1.817979 l 0.0954,1.137841 c 0.05247,0.625813 0.132108,1.385598 0.176973,1.688411 l 0.08157,0.550568 -2.985975,-5.87e-4 c -2.697666,-4.41e-4 -3.031142,-0.02809 -3.453764,-0.28578 z"
     id="path210" />
  <path
     style="fill:#808080;stroke-width:0.146818"
     d="M 4.3656334,54.211921 C 4.142355,54.030634 3.8945991,53.651507 3.8150648,53.369415 3.7312745,53.072228 3.6702257,50.4171 3.6699068,47.056229 L 3.6693564,41.255937 2.9725199,40.969285 C 2.1037758,40.611917 1.0543952,39.577443 0.58249116,38.613208 0.06980985,37.565654 0.00385602,35.84335 0.43267446,34.700928 0.86566259,33.547397 1.7183541,32.632326 2.9043024,32.048485 c 0.8618104,-0.424268 1.1228243,-0.482554 2.1609283,-0.482554 1.0384861,0 1.2989893,0.05822 2.1624943,0.483325 1.7058137,0.83977 2.6241573,2.246366 2.7265584,4.176178 0.098605,1.858268 -0.6667394,3.408086 -2.1612321,4.376484 l -0.7457737,0.483245 v 5.113913 5.113914 h 9.1588064 9.158805 l 0.257039,1.431478 c 0.141373,0.787313 0.288379,1.514064 0.326682,1.615001 0.05532,0.145773 -2.11552,0.183373 -10.553687,0.182793 L 4.7715942,54.541534 Z"
     id="path212" />
  <path
     style="fill:#808080;stroke-width:0.146818"
     d="M 4.2973271,69.361425 C 2.6843675,69.048991 1.4291455,68.089828 0.70355299,66.615283 0.27556212,65.745522 0.22105172,65.498297 0.2274273,64.455876 c 0.005351,-0.8749 0.0875139,-1.355045 0.31995712,-1.869772 0.43563313,-0.964673 1.53849628,-2.091556 2.51751508,-2.572345 1.097495,-0.538971 2.9387162,-0.578864 4.0081696,-0.08684 0.8571253,0.394335 1.9348583,1.375883 2.4203849,2.204372 l 0.3699759,0.631316 9.1084521,0.03781 9.108451,0.03781 0.562386,1.615001 c 0.309312,0.888251 0.565027,1.631518 0.568252,1.651706 0.0032,0.02019 -4.348328,0.0367 -9.670124,0.0367 H 9.864855 l -0.4532574,0.803128 c -0.9804325,1.737231 -3.2021157,2.78705 -5.1142705,2.416661 z"
     id="path214" />
  <path
     style="fill:#808080;stroke-width:0.146818"
     d="m 14.546623,90.281139 c -1.844895,-0.671135 -3.022984,-2.042307 -3.370668,-3.923104 -0.368359,-1.992637 0.631923,-4.106362 2.421108,-5.116115 l 0.791129,-0.446486 v -3.502715 c 0,-3.736698 0.05011,-4.050264 0.720015,-4.505497 0.351029,-0.238541 1.03038,-0.262252 8.604052,-0.300303 l 8.22293,-0.04131 0.898365,1.656315 0.898366,1.656314 -8.056863,0.03795 -8.056863,0.03795 v 2.481571 2.48157 l 0.652286,0.315767 c 0.87316,0.422689 1.744267,1.292381 2.24164,2.237999 0.362915,0.689981 0.408152,0.930193 0.40878,2.170614 7.93e-4,1.570174 -0.236202,2.241608 -1.180703,3.345044 -1.133084,1.323753 -3.597718,1.994985 -5.193574,1.414445 z"
     id="path216" />
  <path
     style="fill:#808080;stroke-width:0.146818"
     d="m 34.682574,103.13137 c -1.639077,-0.22671 -3.090158,-1.31244 -3.870676,-2.89613 -0.279576,-0.567264 -0.341799,-0.931321 -0.344188,-2.013809 -0.0025,-1.150116 0.0498,-1.428709 0.403839,-2.149641 1.218044,-2.480304 4.201877,-3.508844 6.687939,-2.305362 0.84543,0.409265 1.805941,1.38032 2.228265,2.252726 l 0.319832,0.660685 h 2.482814 2.482814 v -3.73891 -3.73891 l 1.28466,1.033707 c 0.706563,0.568539 1.470458,1.144406 1.697546,1.279704 l 0.412886,0.245997 -0.04584,3.476553 c -0.06479,4.9136 0.195872,4.666582 -4.927549,4.669697 -2.735987,0.0017 -3.560343,0.04436 -3.560343,0.184413 0,0.39718 -1.091021,1.73351 -1.809111,2.21588 -1.136138,0.76319 -2.140884,1.00348 -3.442888,0.8234 z"
     id="path218" />
  <path
     style="fill:#808080;stroke-width:0.146818"
     d="m 54.802546,113.87385 c -1.377051,-0.51301 -2.298992,-1.374 -2.925846,-2.73241 -1.047133,-2.26917 -0.126605,-5.00776 2.106983,-6.26832 l 0.779536,-0.43994 v -4.39054 c 0,-2.414789 0.02383,-4.390529 0.05295,-4.390529 0.02913,0 0.755876,0.329063 1.615001,0.731252 l 1.562047,0.731252 v 3.660195 3.6602 l 0.646354,0.3129 c 0.811318,0.39275 1.918652,1.56422 2.335666,2.47095 0.450555,0.97966 0.450555,2.90141 0,3.88106 -0.448799,0.97584 -1.550555,2.09697 -2.50397,2.54801 -1.11133,0.52574 -2.615319,0.61836 -3.668726,0.22592 z"
     id="path220" />
  <path
     style="fill:#338000;stroke-width:0.146818"
     d="m 58.613868,65.664477 c 0.03564,-0.100938 0.417977,-1.12499 0.84965,-2.275671 L 60.248379,61.296657 59.6296,60.767006 c -1.555893,-1.331786 -1.651398,-3.424635 -0.218346,-4.784747 2.202435,-2.090337 5.805269,0.01571 5.163692,3.018452 -0.116229,0.543983 -0.323545,0.891285 -0.871213,1.459481 -0.39528,0.410095 -0.71869,0.785445 -0.71869,0.834111 0,0.04866 0.354306,1.093156 0.787347,2.32109 L 64.559736,65.848 h -3.005328 c -2.340939,0 -2.991006,-0.04057 -2.94054,-0.183523 z"
     id="path222" />
  <path
     style="fill:#338000;stroke-width:0.146818"
     d="m 104.71238,89.848246 c -1.09642,-0.548517 -1.72641,-1.149659 -2.26902,-2.165108 -0.2804,-0.524748 -0.33123,-0.845251 -0.33113,-2.088079 1e-4,-1.322117 0.0408,-1.545369 0.40878,-2.244023 0.49554,-0.94077 1.34575,-1.793159 2.15058,-2.156084 l 0.59712,-0.269265 v -2.547022 -2.547022 l -3.85398,-0.01937 c -2.11969,-0.01066 -5.615376,-0.06021 -7.768191,-0.110114 l -3.91421,-0.09074 0.854296,-1.541592 0.854295,-1.541592 7.611281,0.04927 c 4.186209,0.0271 7.776449,0.08279 7.978329,0.12376 1.26322,0.256344 1.26754,0.270524 1.40126,4.598559 l 0.11113,3.597048 0.87686,0.573543 c 1.53872,1.006464 2.47998,2.948442 2.23894,4.619312 -0.24676,1.710533 -1.56117,3.39994 -3.09041,3.972104 -0.53252,0.199243 -1.16193,0.30482 -1.8172,0.30482 -0.85385,0 -1.15614,-0.07686 -2.03873,-0.518407 z"
     id="path500" />
  <path
     style="fill:#338000;stroke-width:0.146818"
     d="m 116.40681,69.150452 c -1.08154,-0.347072 -2.04779,-1.096135 -2.69605,-2.090051 l -0.58727,-0.900404 -9.44879,-0.0092 c -7.494603,-0.0073 -9.434622,-0.04714 -9.380329,-0.192703 0.03765,-0.100937 0.316328,-0.860722 0.619289,-1.68841 l 0.550838,-1.504887 h 8.839162 8.83917 l 0.3242,-0.576844 c 0.47536,-0.845795 1.67657,-1.856866 2.63663,-2.219291 1.7382,-0.656173 3.87501,-0.131437 5.1654,1.268461 0.95355,1.034489 1.24804,1.811139 1.2473,3.289493 -5.8e-4,1.078305 -0.0559,1.353421 -0.40733,2.023766 -1.12464,2.145317 -3.60085,3.274397 -5.70222,2.600051 z"
     id="path502" />
  <path
     style="fill:#338000;stroke-width:0.146818"
     d="m 101.77312,54.433037 -4.156264,-0.04147 0.09417,-0.621676 c 0.05179,-0.341922 0.174005,-1.018086 0.271581,-1.502586 l 0.17741,-0.88091 8.839803,-0.03785 8.8398,-0.03785 v -5.210903 c 0,-3.071563 -0.0554,-5.210903 -0.13498,-5.210903 -0.30096,0 -1.74095,-1.492934 -2.14693,-2.225859 -0.39582,-0.714584 -0.43416,-0.907274 -0.43352,-2.17869 5.9e-4,-1.227694 0.0475,-1.48271 0.39139,-2.128865 0.87425,-1.642708 2.5432,-2.712795 4.23268,-2.713885 1.21413,-7.83e-4 1.85786,0.180827 2.73816,0.772497 2.01822,1.356488 2.75523,3.89975 1.75353,6.050993 -0.41246,0.885793 -1.51443,2.009602 -2.36055,2.407323 l -0.61736,0.290194 -0.0954,1.441442 c -0.0525,0.792794 -0.0961,3.42349 -0.097,5.845991 -8.8e-4,2.596413 -0.0643,4.63047 -0.15442,4.954882 -0.26257,0.945476 -0.24969,0.943609 -6.96621,1.010046 -3.31075,0.03275 -7.88987,0.04088 -10.17582,0.01808 z"
     id="path504" />
  <path
     style="fill:#338000;stroke-width:0.146818"
     d="m 98.994931,43.771513 c 0.06568,-0.818317 0.147672,-1.570433 0.182212,-1.67137 0.0449,-0.131226 0.503412,-0.183523 1.608997,-0.183523 h 1.5462 v -2.034861 -2.034861 l -0.83933,-0.497754 c -1.999646,-1.185865 -2.902565,-3.743352 -2.089141,-5.917423 0.37823,-1.010911 1.342631,-2.095938 2.363471,-2.659084 0.71356,-0.393643 0.91253,-0.433339 2.18,-0.434943 1.17991,-0.0015 1.49315,0.05073 2.03335,0.339006 0.97239,0.518912 1.88029,1.435799 2.33149,2.354591 0.35337,0.719552 0.40662,1.001726 0.40571,2.149641 -8.9e-4,1.104046 -0.0579,1.428204 -0.34641,1.970981 -0.40327,0.758567 -1.74915,2.152525 -2.26918,2.350239 l -0.36013,0.136919 -0.10644,3.056389 c -0.0676,1.941215 -0.1763,3.226322 -0.29788,3.522128 -0.33705,0.820008 -0.59913,0.889223 -3.66949,0.969108 l -2.792842,0.07267 z"
     id="path506" />
  <path
     style="fill:#338000;stroke-width:0.146818"
     d="m 77.094397,23.725666 -1.379975,-0.557873 0.03196,-2.179611 c 0.05271,-3.593939 0.03407,-3.578314 4.411153,-3.69776 l 3.045256,-0.0831 0.278387,-0.516932 c 0.419223,-0.77845 1.504133,-1.791215 2.331582,-2.176535 0.590124,-0.274804 0.984793,-0.34302 1.984569,-0.34302 1.514459,0 2.454809,0.375084 3.411547,1.360789 0.955567,0.9845 1.343166,1.874575 1.409595,3.236981 0.05278,1.0824 0.02445,1.214436 -0.4792,2.233503 -0.580681,1.174926 -1.309086,1.892882 -2.44174,2.406708 -0.816166,0.370252 -2.811827,0.416135 -3.609179,0.08298 -0.910698,-0.380514 -1.869933,-1.193621 -2.401935,-2.036028 l -0.513864,-0.813687 -2.09216,-0.0071 -2.092161,-0.0071 -8.81e-4,0.623977 c -0.0019,1.380083 -0.194505,3.046248 -0.351222,3.039036 -0.08897,-0.0041 -0.78275,-0.258486 -1.541737,-0.565316 z"
     id="path508" />
  <path
     style="fill:#338000;stroke-width:0.146818"
     d="m 67.976865,19.365028 -1.394774,-0.781657 -0.07341,-6.869184 -0.07341,-6.8691837 0.506956,-0.5505685 0.506956,-0.5505686 6.099866,-3.488e-4 6.099867,-3.489e-4 0.419616,-0.8030775 c 0.473989,-0.9071369 1.373599,-1.8015668 2.318632,-2.30527752 0.539075,-0.28733251 0.855895,-0.34031878 2.033346,-0.34006569 1.225593,2.628e-4 1.484533,0.0475942 2.13476,0.39020507 0.90091,0.47469774 1.892716,1.52114144 2.318142,2.44584864 0.467571,1.0163105 0.445209,2.9079518 -0.0463,3.9164761 -0.53242,1.0924701 -1.672611,2.1649744 -2.72274,2.5611079 C 84.995713,10.026598 83.351019,9.9810754 82.438466,9.5069198 81.629909,9.0868007 80.650238,8.2170333 80.222644,7.5396819 L 79.865462,6.9738684 h -5.136798 c -2.825239,0 -5.149624,0.016517 -5.1653,0.036705 -0.01568,0.020188 -0.06523,2.9840707 -0.110114,6.5864066 l -0.08161,6.549702 z"
     id="path510" />
  <path
     style="fill:#338000;stroke-width:0.146818"
     d="m 54.859955,16.340713 c -0.0532,-1.947914 -0.09674,-4.250552 -0.09674,-5.116972 0,-1.5435763 -0.0072,-1.5771056 -0.354954,-1.6643987 C 53.804448,9.4077939 52.459549,8.0504638 52.019605,7.1486048 51.677916,6.4481616 51.611987,6.123419 51.611545,5.1386399 51.610904,3.7107446 51.928468,2.9189885 52.93223,1.8458856 c 1.038517,-1.11025875 1.898988,-1.47956726 3.438113,-1.47561547 2.069313,0.005313 3.414994,0.83251807 4.330139,2.66178547 0.452303,0.9040994 0.522726,1.1856731 0.522626,2.0896058 -1.91e-4,1.7431362 -0.940191,3.3775604 -2.424198,4.2150823 l -0.763628,0.4309648 -0.0934,0.9888775 c -0.05137,0.543882 -0.09386,2.419954 -0.09444,4.169049 l -10e-4,3.18017 -1.28466,0.799874 c -0.706563,0.43993 -1.356748,0.839658 -1.444856,0.888284 -0.112583,0.06213 -0.188949,-0.964261 -0.256932,-3.45325 z"
     id="path512" />
  <path
     style="fill:#338000;stroke-width:0.146818"
     d="m 45.170455,22.216335 c -0.05289,-1.156227 -0.09641,-2.647293 -0.09671,-3.313481 l -5.37e-4,-1.211251 -2.532616,0.0029 -2.532615,0.0029 -0.440455,0.746123 c -0.527761,0.89402 -1.141507,1.459174 -2.170989,1.999107 -0.657942,0.345071 -0.94055,0.401707 -2.013332,0.403477 -1.072737,0.0018 -1.365752,-0.05579 -2.086939,-0.409934 -0.988159,-0.485248 -1.916531,-1.469753 -2.429187,-2.576064 -0.318109,-0.686478 -0.356151,-0.937732 -0.30102,-1.988116 0.07559,-1.440114 0.43886,-2.294411 1.372789,-3.22834 0.846771,-0.846772 1.817272,-1.288833 3.024284,-1.377556 1.897147,-0.139453 3.310198,0.557663 4.432174,2.186571 l 0.561871,0.815737 3.535446,0.09657 c 3.971353,0.108472 4.29207,0.187046 4.618782,1.13158 0.116337,0.336336 0.178021,1.723633 0.183523,4.127514 l 0.0083,3.620901 -1.189773,0.454331 c -2.047679,0.781935 -1.83184,0.946675 -1.942987,-1.48299 z"
     id="path514" />
  <path
     style="fill:#338000;stroke-width:0.146818"
     d="m 19.646791,45.158006 c -0.974924,-0.06485 -1.372109,-0.157398 -1.68841,-0.39343 l -0.413596,-0.308636 -0.130082,-3.372666 -0.130081,-3.372665 -0.640924,-0.34001 c -0.812675,-0.431123 -1.749955,-1.443327 -2.15628,-2.328647 -0.491955,-1.071896 -0.445365,-2.766018 0.107254,-3.900006 0.491335,-1.008231 1.28508,-1.852794 2.173225,-2.31236 0.876201,-0.453385 2.932543,-0.562051 3.868912,-0.204448 1.03938,0.396943 1.99797,1.24696 2.528276,2.241916 0.43321,0.812784 0.472658,0.998836 0.472658,2.229196 0,1.145807 -0.05451,1.449963 -0.37219,2.076881 -0.495071,0.976977 -1.237311,1.776876 -2.047723,2.206799 l -0.66327,0.351864 v 2.092413 2.092413 h 1.744695 c 1.96944,0 1.919522,-0.03334 1.923757,1.28466 0.0011,0.343187 0.05156,0.623977 0.112118,0.623977 0.06056,0 0.110114,0.330341 0.110114,0.734092 V 45.29344 L 22.683425,45.26812 C 21.714424,45.2542 20.347939,45.20464 19.646791,45.158006 Z"
     id="path516" />
  <path
     style="fill:#338000;stroke-width:0.146818"
     d="M 4.606426,54.297214 C 3.8399442,53.638587 3.8484839,53.707894 3.7356406,47.230023 L 3.6299892,41.16501 2.9809027,40.859904 C 2.1872672,40.486851 1.1248502,39.448854 0.70093402,38.632342 0.46755568,38.182828 0.36976051,37.678051 0.32294471,36.681323 0.26676951,35.485331 0.2998127,35.249288 0.62189914,34.545759 1.1447078,33.403794 1.7900969,32.746683 2.9673129,32.157746 3.866818,31.707742 4.1436317,31.63934 5.0652307,31.63934 c 0.9215991,0 1.1984128,0.0684 2.0979179,0.518406 1.7425621,0.871768 2.5257482,2.072351 2.6429824,4.051552 0.1105675,1.866655 -0.6010493,3.341221 -2.0812093,4.312548 l -0.6711887,0.440455 -0.00323,5.174233 -0.00323,5.174233 9.132204,0.03782 9.132203,0.03782 0.2618,1.458314 c 0.143991,0.802072 0.242484,1.477632 0.218874,1.501241 -0.02361,0.02361 -4.729907,0.08262 -10.458437,0.131136 -9.9438909,0.08422 -10.429636,0.07607 -10.7274956,-0.179876 z"
     id="path518" />
  <path
     style="fill:#338000;stroke-width:0.146818"
     d="M 3.8592711,69.158641 C 2.3279103,68.680055 1.4196824,67.864714 0.69234155,66.315602 0.29869901,65.477211 0.26330037,65.279855 0.32265604,64.254521 c 0.0779098,-1.345846 0.5477182,-2.346478 1.52437906,-3.246732 1.1126554,-1.02561 1.7077146,-1.251937 3.2916048,-1.251937 1.1723341,0 1.4953413,0.05363 2.025367,0.336295 0.8358537,0.445759 1.688021,1.229713 2.1771736,2.002897 l 0.3977442,0.628698 1.4070193,0.09319 c 0.77386,0.05125 4.882845,0.09353 9.131078,0.09395 l 7.724058,7.6e-4 0.535122,1.492001 c 0.294316,0.8206 0.512974,1.514148 0.485904,1.541218 -0.02707,0.02707 -4.371347,0.09367 -9.653953,0.14801 l -9.6047372,0.09879 -0.5407682,0.847893 C 8.0716177,68.8443 5.7670122,69.754859 3.8592711,69.158645 Z"
     id="path520" />
  <path
     style="fill:#338000;stroke-width:0.146818"
     d="m 13.996713,89.932966 c -2.938425,-1.486106 -3.696838,-5.218726 -1.553964,-7.648018 0.246053,-0.278941 0.77569,-0.703854 1.176972,-0.944253 l 0.729603,-0.437088 0.106879,-3.598144 c 0.128665,-4.331579 0.133271,-4.346723 1.400172,-4.604352 0.201875,-0.04105 3.88803,-0.09674 8.191457,-0.12376 l 7.824412,-0.04912 0.861491,1.578296 0.861493,1.578297 h -6.865229 c -3.775875,0 -7.370708,0.04273 -7.988516,0.09495 l -1.123289,0.09495 v 2.525479 2.525478 l 0.586909,0.264659 c 0.758807,0.342174 1.988821,1.646604 2.374218,2.517857 0.25214,0.570006 0.292167,0.903232 0.242506,2.018863 -0.05035,1.130984 -0.124955,1.456095 -0.485845,2.11708 -0.84034,1.539111 -2.301831,2.393189 -4.25938,2.489131 -1.082717,0.05306 -1.245329,0.02177 -2.079889,-0.400311 z"
     id="path522" />
  <path
     style="fill:#338000;stroke-width:0.146818"
     d="m 34.316493,102.98871 c -1.422527,-0.35731 -2.79902,-1.49557 -3.41906,-2.82732 -0.284219,-0.610461 -0.356652,-1.005874 -0.357796,-1.953213 -0.0012,-1.030832 0.05748,-1.305691 0.444348,-2.079889 0.530002,-1.06063 1.344309,-1.837666 2.472964,-2.359777 1.108142,-0.512622 2.682291,-0.532629 3.761486,-0.04781 0.884474,0.397345 2.150189,1.605188 2.503771,2.389292 l 0.256963,0.569842 2.510317,1.03e-4 2.510318,1.03e-4 -0.04146,-3.817378 c -0.02917,-2.685514 0.0061,-3.817379 0.118777,-3.817379 0.08813,0 0.12248,0.0611 0.07633,0.135769 -0.06999,0.113242 1.833583,1.723829 2.963003,2.50696 0.31542,0.21871 0.316886,0.243571 0.212532,3.608006 -0.11474,3.69932 -0.189776,4.017148 -1.024472,4.339366 -0.217839,0.08409 -1.970685,0.19039 -3.89521,0.236216 -3.414477,0.0813 -3.502059,0.091 -3.619828,0.400759 -0.232893,0.61256 -1.627798,1.9704 -2.424722,2.3603 -0.879312,0.4302 -2.158291,0.5796 -3.04826,0.35605 z"
     id="path524" />
  <path
     style="fill:#338000;stroke-width:0.146818"
     d="m 55.055905,113.87584 c -2.536142,-0.83088 -4.073219,-3.6421 -3.31243,-6.05821 0.350954,-1.11457 1.12868,-2.11083 2.141198,-2.74288 l 0.865271,-0.54013 0.02559,-2.20228 c 0.01407,-1.21125 0.06661,-3.173361 0.116751,-4.360248 l 0.09116,-2.157976 1.504887,0.685247 1.504888,0.685248 v 3.675259 3.67525 l 0.660892,0.3506 c 0.780413,0.41401 1.679246,1.34864 2.154524,2.24033 0.287125,0.53868 0.340429,0.85674 0.340771,2.03334 3.67e-4,1.27204 -0.03792,1.46397 -0.435101,2.18105 -0.512987,0.92615 -1.503009,1.85144 -2.42745,2.26872 -0.716134,0.32325 -2.586954,0.47767 -3.230953,0.26668 z"
     id="path526" />
  <path
     style="fill:#338000;stroke-width:0.146818"
     d="m 83.351308,113.99954 c -1.345163,-0.33756 -2.512955,-1.24578 -3.158043,-2.45609 l -0.464002,-0.87056 -5.935193,-0.10491 c -3.264356,-0.0577 -6.118893,-0.15403 -6.343415,-0.21408 -0.224522,-0.06 -0.525895,-0.27079 -0.669718,-0.46832 -0.239762,-0.32929 -0.264995,-0.89577 -0.303581,-6.81521 l -0.04208,-6.456065 1.481309,-0.772272 1.48131,-0.772273 0.09699,4.205746 c 0.05334,2.313164 0.09699,5.053884 0.09699,6.090494 v 1.88476 l 5.175344,-2.7e-4 5.175345,-2.6e-4 0.414922,-0.65677 c 0.84228,-1.33322 2.001302,-2.003 3.635057,-2.10063 2.152248,-0.12862 3.728252,0.70436 4.69021,2.47895 0.474423,0.8752 0.50927,1.03029 0.50801,2.26102 -0.0012,1.1586 -0.05153,1.41692 -0.408764,2.09717 -1.066701,2.03126 -3.401236,3.17885 -5.430682,2.66957 z"
     id="path528" />
  <path
     style="fill:#338000;stroke-width:0.146818"
     d="m 86.475968,100.07491 c -1.246465,-0.410161 -2.515816,-1.46125 -3.022381,-2.50269 l -0.270288,-0.555682 -3.088555,-0.08278 C 78.396039,96.888229 76.827957,96.782386 76.610117,96.698553 75.894182,96.42303 75.787721,96.060533 75.6765,93.51959 l -0.102983,-2.352749 1.707359,-1.353636 1.70736,-1.353637 v 2.641953 2.641952 h 2.112949 2.112949 l 0.09028,-0.359709 c 0.137626,-0.548344 1.58406,-2.023564 2.385357,-2.432827 0.610791,-0.311962 0.912372,-0.364057 2.107561,-0.364057 1.271636,0 1.46419,0.03845 2.181045,0.435507 0.918464,0.508726 1.842667,1.493094 2.279089,2.42745 0.449343,0.962024 0.439448,2.89687 -0.01958,3.82837 -0.858622,1.74239 -2.43429,2.785703 -4.334866,2.870303 -0.583003,0.0259 -1.225176,-0.007 -1.427052,-0.0736 z"
     id="path530" />
  <path
     style="fill:#338000;stroke-width:0.146818"
     d="M 60.70936,89.471318 C 60.224859,89.307294 58.573154,88.558091 57.038903,87.806422 48.472101,83.60933 42.495126,77.635681 38.176585,68.954603 34.985104,62.539128 33.152277,55.512962 32.234189,46.17435 32.028658,44.083731 31.642764,33.86266 31.764758,33.740666 c 0.02911,-0.02911 1.697534,-0.115947 3.707617,-0.192981 3.892588,-0.149177 5.636002,-0.280503 5.637936,-0.424688 6.61e-4,-0.04889 0.347514,-0.0991 0.770796,-0.111594 1.560479,-0.04605 7.890291,-1.746963 7.890291,-2.120237 0,-0.08254 0.06581,-0.109393 0.146241,-0.05968 0.165466,0.102263 2.347147,-0.801621 4.289914,-1.777337 1.8328,-0.920488 4.216285,-2.35606 5.79728,-3.491701 0.743011,-0.53371 1.420928,-0.970383 1.506482,-0.970383 0.08555,0 1.247364,0.628462 2.581798,1.396583 2.77916,1.599724 6.348972,3.413921 8.672486,4.407401 2.057897,0.879909 5.788473,2.153205 6.033312,2.059252 0.104129,-0.03996 0.189325,-0.01412 0.189325,0.05741 0,0.241355 5.021068,1.310564 6.313186,1.344359 0.201875,0.0053 1.638859,0.041 3.193298,0.07938 l 2.826252,0.06978 -0.0079,1.569398 c -0.02161,4.274548 -0.292179,11.331238 -0.502088,13.094633 -0.597142,5.016444 -1.678716,9.977686 -3.029314,13.895654 -4.007563,11.625584 -11.202634,19.963446 -21.818719,25.284177 -1.511029,0.757321 -4.173442,1.941215 -4.327638,1.924371 -0.02476,-0.0027 -0.441425,-0.139121 -0.925925,-0.303145 z m 13.275531,-19.011376 0.443479,-0.373163 0.0062,-8.719854 c 0.0034,-4.795919 0.04661,-9.014744 0.09601,-9.375166 0.07213,-0.526235 0.02894,-0.740815 -0.219273,-1.089395 -0.402699,-0.565547 -1.150427,-0.910739 -1.972763,-0.910739 h -0.659195 l -0.06442,-2.165569 c -0.05885,-1.978192 -0.103854,-2.270508 -0.520173,-3.378364 -0.619967,-1.649778 -1.38516,-2.862421 -2.526295,-4.003555 -1.888548,-1.888549 -3.964551,-2.784207 -6.721236,-2.899773 -1.082346,-0.04537 -1.651706,-0.017 -1.651706,0.0823 0,0.08335 -0.121969,0.119653 -0.271044,0.08067 -0.374738,-0.098 -2.408449,0.602735 -3.472822,1.196589 -1.06183,0.592434 -2.893312,2.445318 -3.63234,3.674784 -0.291699,0.485276 -0.714934,1.410231 -0.940524,2.055456 -0.380418,1.08806 -0.408396,1.322202 -0.385787,3.228593 l 0.02438,2.055456 -0.745072,0.04264 c -0.942438,0.05393 -1.656,0.34926 -1.906682,0.78914 -0.156984,0.275466 -0.19534,2.192673 -0.19534,9.764036 v 9.421266 l 0.348464,0.370905 c 0.191655,0.203996 0.55503,0.3973 0.807501,0.429565 0.25247,0.03226 5.691669,0.06736 12.08711,0.078 l 11.628075,0.01934 z"
     id="path532" />
  <path
     style="fill:#338000;stroke-width:0.146818"
     d="m 54.701472,48.780374 c 0.132485,-1.74539 0.422073,-3.046781 0.895552,-4.024565 0.586862,-1.21193 1.946838,-2.526807 3.3106,-3.200815 l 1.103687,-0.545471 1.670389,0.05038 c 1.568637,0.04731 1.73214,0.08164 2.684111,0.563662 1.313154,0.664897 2.521907,1.870377 3.133782,3.125296 0.575563,1.180448 0.71479,1.794864 0.847002,3.737879 l 0.102399,1.504887 H 61.529262 54.60953 Z"
     id="path534" />
  <metadata
     id="metadata552">
    <rdf:RDF>
      <cc:Work
         rdf:about="">
        <dc:title>encrypted</dc:title>
      </cc:Work>
    </rdf:RDF>
  </metadata>
</svg>
