<?xml version="1.0" encoding="UTF-8" standalone="no"?>
<!-- Created with Inkscape (http://www.inkscape.org/) -->

<svg
   width="103.22192mm"
   height="100.87945mm"
   viewBox="0 0 103.22192 100.87945"
   version="1.1"
   id="svg287"
   xmlns:inkscape="http://www.inkscape.org/namespaces/inkscape"
   xmlns:sodipodi="http://sodipodi.sourceforge.net/DTD/sodipodi-0.dtd"
   xmlns="http://www.w3.org/2000/svg"
   xmlns:svg="http://www.w3.org/2000/svg">
  <sodipodi:namedview
     id="namedview289"
     pagecolor="#ffffff"
     bordercolor="#000000"
     borderopacity="0.25"
     inkscape:showpageshadow="2"
     inkscape:pageopacity="0.0"
     inkscape:pagecheckerboard="0"
     inkscape:deskcolor="#d1d1d1"
     inkscape:document-units="mm"
     showgrid="false" />
  <defs
     id="defs284" />
  <g
     inkscape:label="Layer 1"
     inkscape:groupmode="layer"
     id="layer1"
     transform="translate(-32.543855,-87.215581)">
    <path
       class="st0"
       d="m 79.290394,188.0108 c -22.373821,-1.20288 -41.379511,-17.50206 -45.770101,-39.21429 -2.34552,-11.72827 -0.36087,-24.05788 5.59347,-33.86149 0.48129,-0.78183 0.90201,-1.56366 0.90201,-1.74405 0,-0.1797 -0.36087,-0.78186 -0.78186,-1.44351 -2.466,-3.66885 -5.59344,-11.48766 -6.43545,-15.998486 -0.72192,-3.84927 0.1197,-6.91665 2.1651,-7.99923 1.44354,-0.72192 4.27029,-0.72192 6.79635,0.06 4.02972,1.26312 9.68328,4.08984 14.13399,7.15722 l 2.34552,1.6239 2.16513,-0.96225 c 10.64559,-4.93185 22.915111,-5.89419 34.402741,-2.70663 3.729,1.02249 8.540546,3.0072 11.307206,4.69128 l 1.26309,0.78183 2.34555,-1.56366 c 4.57101,-3.0072 10.1043,-5.41302 15.0963,-6.55578 5.59347,-1.26312 8.90142,-0.48129 10.34493,2.40579 0.54114,1.0827 0.60141,1.56366 0.60141,4.21011 0,1.74408 -0.1797,3.728966 -0.48129,4.871696 -1.14264,5.05218 -3.72894,10.94637 -6.85647,15.63759 l -1.74411,2.58618 0.48129,0.90204 c 0.90201,1.74405 2.34552,6.31518 2.94699,9.44274 3.30792,16.23904 -1.74408,32.41795 -13.5927,43.78531 -8.66085,8.29995 -19.246286,12.93105 -31.455686,13.77312 -2.04495,0.1188 -3.78912,0.2403 -3.96954,0.1797 -0.1197,0.0606 -0.96225,0 -1.80432,-0.0606 z m 8.90145,-2.10522 c 2.88705,-0.36087 7.99923,-1.62387 10.82604,-2.7066 11.487596,-4.39056 20.689736,-12.75066 25.802066,-23.45643 2.52624,-5.29275 3.78909,-9.80358 4.39053,-15.87819 0.60147,-5.95432 -0.48129,-14.01373 -2.58618,-19.72747 l -0.60141,-1.50378 -0.66171,0.78186 c -1.02246,1.20288 -2.22537,1.68417 -4.57098,1.80435 -1.56372,0.06 -2.64642,0 -4.27026,-0.42093 -7.09713,-1.80432 -12.93114,-6.91665 -15.09633,-13.29195 -0.90204,-2.64642 -1.02249,-6.25506 -0.2994,-8.17968 0.54123,-1.32336 1.86462,-2.70663 2.94702,-2.94696 1.20288,-0.2397 1.9245,-0.601436 1.74405,-0.902006 -0.2397,-0.42102 -4.69128,-2.58618 -7.578206,-3.66882 -17.74266,-6.61593 -38.252011,-2.10522 -51.062851,11.307176 -5.89413,6.19491 -9.86367,13.59267 -11.66805,21.77235 -1.86456,8.48043 -1.50378,16.1188 1.14264,24.53902 4.87167,15.27678 17.44194,27.18543 33.13968,31.2753 1.44354,0.3609 3.66882,0.84198 4.87173,1.02252 2.76657,0.42093 10.525351,0.54108 13.532551,0.1797 z m -9.68331,-5.17239 c -16.840501,-1.38327 -29.891911,-11.30721 -36.327391,-27.60645 -1.26312,-3.24777 -2.52624,-7.93911 -3.00723,-11.30718 -0.90198,-6.37534 1.44354,-16.05865 5.77392,-23.57677 2.70636,-4.7514 7.33767,-9.98397 11.54781,-13.17165 4.7514,-3.54855 10.82601,-6.375326 17.38179,-8.059376 4.270231,-1.08273 5.292691,-1.14264 2.76654,-0.1197 -7.63836,3.127376 -13.35213,6.916616 -18.28401,11.968766 -6.67602,6.9768 -9.92382,15.27678 -9.26223,23.697 0.2397,2.82681 0.2994,2.88708 1.74408,2.28564 2.58615,-1.08276 6.79638,-1.50378 9.56301,-0.8421 5.83404,1.38333 11.7282,6.25507 17.02092,14.19415 3.668821,5.41302 7.518121,7.81881 12.690541,7.81881 11.186936,0 23.817296,-12.69054 26.944826,-27.12529 0.1197,-0.66165 0.2994,-1.32303 0.42093,-1.98471 0.1197,-0.5412 0.2397,-0.5412 1.74408,-0.42093 0.90204,0.06 1.80435,0.2397 2.04495,0.36087 0.42093,0.2397 1.20288,2.58618 1.9248,5.89419 0.2994,1.44354 0.42096,3.2478 0.42096,7.33768 0,4.69128 -0.06,5.77389 -0.54117,7.99923 -0.84207,3.84924 -1.68417,6.31518 -3.54855,10.04415 -3.96957,8.11953 -10.64559,14.61519 -19.06587,18.58473 -4.871666,2.28558 -9.322436,3.48834 -14.855726,3.96954 -3.24783,0.36087 -3.66882,0.36087 -7.09707,0.06 z M 122.8953,121.79137 c 1.56372,-0.78186 2.58618,-1.86456 4.81158,-5.1123 6.07461,-9.08184 8.60067,-21.471626 4.93188,-24.659306 -2.70666,-2.34552 -9.02169,-1.50375 -16.72023,2.28561 -4.992,2.466 -9.86373,6.014486 -11.42748,8.360096 -3.54858,5.3529 0.78183,14.55501 8.72097,18.46443 3.36807,1.74408 7.09707,1.98477 9.68328,0.66168 z m -5.89416,-1.02252 c -3.18768,-0.7818 -6.91668,-3.12732 -8.05941,-5.17242 -1.86456,-3.2478 0,-5.41302 8.66082,-10.16445 11.60793,-6.375326 12.99129,-7.337666 13.713,-9.442706 0.2397,-0.72159 0.60147,-1.26312 0.78186,-1.26312 0.48129,0 1.02249,2.34552 0.84207,3.72897 -0.42096,3.368096 -2.70633,10.344896 -4.69125,14.314436 -1.38333,2.76657 -3.00726,5.11227 -4.57101,6.55578 -2.04495,1.86459 -3.60867,2.16513 -6.67608,1.44351 z m -75.240987,-9.8637 c 0.2994,-0.42102 0.54117,-0.84207 0.54117,-0.90231 0,-0.1197 -0.36087,-0.72159 -0.78186,-1.32303 -1.20291,-1.74408 -3.18765,-6.07464 -4.21011,-9.141986 -1.56372,-4.69131 -1.80435,-7.75866 -0.66171,-8.11953 0.96225,-0.2997 6.37533,2.94696 12.38982,7.33761 l 2.76657,2.044976 1.98474,-1.323056 c 1.0827,-0.72159 1.98471,-1.3833 1.92444,-1.50375 -0.06,-0.2997 -2.82675,-2.466 -5.77383,-4.45071 -5.29272,-3.54852 -8.36013,-4.75143 -11.54778,-4.51083 -4.33041,0.2997 -5.05215,4.51083 -2.2254,12.931076 0.72195,2.16513 3.30798,7.63836 4.27032,9.14202 0.48129,0.72159 0.66171,0.72159 1.32309,-0.1797 z"
       id="path1768"
       sodipodi:nodetypes="cccsccccccccccccsscccccccccccccccccccccccccccccccccccccccccscccccsccccccccccccccccscscccscscccscccccc"
       style="display:inline;fill:#d40000;stroke-width:0.601449" />
  </g>
</svg>
