<?xml version="1.0" encoding="UTF-8" standalone="no"?>
<!DOCTYPE svg PUBLIC "-//W3C//DTD SVG 20010904//EN"
              "http://www.w3.org/TR/2001/REC-SVG-20010904/DTD/svg10.dtd">

<svg xmlns="http://www.w3.org/2000/svg"
     width="1.57778in" height="1.57778in"
     viewBox="0 0 142 142">
  <path id="Selection #2"
        fill="none" stroke="black" stroke-width="1"
        d="M 12.23,15.02
           C 19.34,12.43 25.79,15.92 32.00,19.31
             34.72,20.80 37.84,23.27 41.00,23.20
             41.00,23.20 50.00,20.64 50.00,20.64
             56.19,18.97 63.59,17.65 70.00,18.09
             74.26,18.38 83.00,20.01 87.00,21.44
             89.77,22.43 95.39,25.27 98.00,25.12
             102.25,24.87 110.80,17.48 121.00,17.04
             123.70,16.92 127.41,16.90 129.57,18.74
             135.46,23.74 129.10,39.48 126.22,45.00
             124.72,47.85 122.02,50.88 122.48,54.17
             122.48,54.17 124.10,60.00 124.10,60.00
             126.07,67.77 126.01,70.19 126.00,78.00
             125.95,108.05 102.34,130.75 73.00,133.08
             69.97,133.33 68.11,133.91 65.00,133.68
             32.98,131.23 8.27,106.68 9.01,74.00
             9.14,68.27 10.77,60.41 12.70,55.00
             12.70,55.00 16.68,45.42 16.68,45.42
             16.95,43.18 14.96,40.10 14.04,38.00
             11.13,31.36 5.83,20.91 12.23,15.02 Z
           M 36.00,26.00
           C 30.12,21.46 20.36,13.58 13.00,19.00
             25.47,21.37 29.11,32.49 36.00,26.00 Z
           M 129.00,25.00
           C 127.72,17.35 121.08,18.26 115.00,20.04
             102.69,23.66 86.09,33.64 97.56,47.94
             99.43,50.28 100.42,50.75 103.00,52.00
             101.79,50.09 99.65,47.34 99.74,45.01
             99.88,41.47 104.32,38.74 107.00,37.06
             113.56,32.96 122.38,30.28 126.00,23.00
             126.00,23.00 129.00,25.00 129.00,25.00 Z
           M 13.00,20.00
           C 10.86,25.84 15.81,37.76 20.00,42.00
             20.00,42.00 13.00,20.00 13.00,20.00 Z
           M 95.00,28.00
           C 75.72,18.92 55.67,17.91 37.00,29.47
             5.30,49.08 4.51,92.51 31.00,116.91
             49.49,133.94 82.21,134.79 102.00,119.47
             120.91,104.85 128.27,79.46 120.00,57.00
             103.07,64.15 86.56,45.18 90.59,34.01
             91.45,31.64 93.34,29.84 95.00,28.00 Z
           M 29.00,70.00
           C 40.07,68.54 46.07,68.03 54.96,76.18
             62.54,83.13 66.63,95.98 79.00,94.80
             89.86,93.77 100.17,83.10 105.10,74.00
             106.62,71.19 109.14,61.42 111.38,60.72
             116.97,58.98 117.00,72.07 117.00,75.00
             117.00,75.00 117.00,79.00 117.00,79.00
             116.88,105.29 94.28,123.98 69.00,124.96
             34.99,126.28 7.54,90.00 20.45,58.00
             25.67,45.07 35.11,34.51 48.00,28.87
             52.07,27.10 57.65,24.57 62.00,26.00
             41.93,33.02 29.02,48.50 29.00,70.00 Z
           M 129.00,28.00
           C 127.45,31.05 126.90,32.68 128.00,36.00
             128.00,36.00 129.00,28.00 129.00,28.00 Z
           M 127.00,36.00
           C 127.00,36.00 126.00,41.00 126.00,41.00
             126.00,41.00 127.00,36.00 127.00,36.00 Z
           M 125.00,41.00
           C 125.00,41.00 124.00,45.00 124.00,45.00
             124.00,45.00 125.00,41.00 125.00,41.00 Z
           M 121.00,49.00
           C 121.00,49.00 120.00,49.00 120.00,49.00
             120.00,49.00 121.00,50.00 121.00,50.00
             121.00,50.00 121.00,49.00 121.00,49.00 Z
           M 120.00,50.00
           C 120.00,50.00 119.00,50.00 119.00,50.00
             119.00,50.00 120.00,51.00 120.00,51.00
             120.00,51.00 120.00,50.00 120.00,50.00 Z
           M 119.00,51.00
           C 119.00,51.00 116.00,54.00 116.00,54.00
             116.00,54.00 119.00,51.00 119.00,51.00 Z
           M 106.00,53.00
           C 106.00,53.00 105.00,54.00 105.00,54.00
             109.02,54.98 112.06,55.56 116.00,54.00
             116.00,54.00 106.00,53.00 106.00,53.00 Z" />
</svg>
