<?xml version="1.0" encoding="UTF-8" standalone="no"?>
<!-- Created with Inkscape (http://www.inkscape.org/) -->

<svg
   width="100mm"
   height="210mm"
   viewBox="0 0 100 210"
   version="1.1"
   id="svg2746"
   inkscape:version="1.1.1 (c3084ef, 2021-09-22)"
   sodipodi:docname="BSDLogo.svg"
   xmlns:inkscape="http://www.inkscape.org/namespaces/inkscape"
   xmlns:sodipodi="http://sodipodi.sourceforge.net/DTD/sodipodi-0.dtd"
   xmlns="http://www.w3.org/2000/svg"
   xmlns:svg="http://www.w3.org/2000/svg">
  <sodipodi:namedview
     id="namedview2748"
     pagecolor="#ffffff"
     bordercolor="#666666"
     borderopacity="1.0"
     inkscape:pageshadow="2"
     inkscape:pageopacity="0.0"
     inkscape:pagecheckerboard="0"
     inkscape:document-units="mm"
     showgrid="false"
     height="210mm"
     inkscape:zoom="0.55678311"
     inkscape:cx="193.07339"
     inkscape:cy="561.25984"
     inkscape:window-width="1312"
     inkscape:window-height="969"
     inkscape:window-x="0"
     inkscape:window-y="25"
     inkscape:window-maximized="0"
     inkscape:current-layer="layer1"
     width="100mm" />
  <defs
     id="defs2743" />
  <g
     inkscape:label="Layer 1"
     inkscape:groupmode="layer"
     id="layer1">
    <path
       class="st0"
       d="M 96.28526,199.9741 C 54.939725,197.75123 19.818304,167.63133 11.704777,127.50837 7.370368,105.83525 11.037899,83.050837 22.041184,64.934352 c 0.889378,-1.444762 1.666822,-2.889578 1.666822,-3.22293 0,-0.332157 -0.666859,-1.444817 -1.444814,-2.667525 C 17.706191,52.264101 11.926876,37.815402 10.370874,29.47962 9.03679,22.366412 10.592026,16.698059 14.371835,14.697492 c 2.667569,-1.334064 7.891265,-1.334064 12.559269,0.110756 7.446667,2.334205 17.89415,7.557781 26.118766,13.226135 l 4.334395,3.000916 4.001057,-1.778197 c 19.672408,-9.113776 42.345758,-10.892123 63.574238,-5.00172 6.89098,1.889487 15.78245,5.557147 20.89507,8.669208 l 2.33413,1.444813 4.33441,-2.889582 c 8.44696,-5.557146 18.6722,-10.002924 27.8971,-12.114697 10.33641,-2.334157 16.44932,-0.889388 19.11682,4.445734 1.00003,2.000814 1.11138,2.889573 1.11138,7.780062 0,3.222963 -0.33217,6.890928 -0.88938,9.002644 -2.11152,9.336115 -6.89087,20.228238 -12.67036,28.897362 l -3.223,4.779101 0.88937,1.666926 c 1.66684,3.222916 4.33441,11.670056 5.44589,17.449615 6.11282,30.008802 -3.223,59.906462 -25.11855,80.912692 -16.00473,15.33783 -35.56604,23.89581 -58.12829,25.45191 -3.77895,0.21946 -7.00205,0.44401 -7.33548,0.33216 -0.22115,0.11186 -1.77817,0 -3.33426,-0.11187 z m 16.44932,-3.8903 c 5.33512,-0.66689 14.78215,-3.00084 20.00593,-5.00168 21.22842,-8.11346 38.23343,-23.56247 47.68069,-43.34607 4.66835,-9.7807 7.00206,-18.11648 8.11346,-29.34201 1.11148,-11.0032 -0.8894,-25.896522 -4.7791,-36.455182 l -1.11139,-2.778905 -1.22281,1.44483 c -1.88944,2.222861 -4.11232,3.112244 -8.44689,3.33434 -2.88965,0.111034 -4.89043,0 -7.89118,-0.777863 -13.11507,-3.334256 -23.89598,-12.781548 -27.89713,-24.562749 -1.66691,-4.890396 -1.88952,-11.55898 -0.55332,-15.115551 1.00015,-2.44549 3.44569,-5.001729 5.44589,-5.445838 2.22286,-0.442999 3.55636,-1.111427 3.22291,-1.666853 -0.44316,-0.778043 -8.66922,-4.779093 -14.0041,-6.77978 C 98.51016,17.364641 60.610085,25.700178 36.936358,50.485546 26.04435,61.933351 18.708869,75.604004 15.374513,90.719586 c -3.445615,15.671294 -2.778919,29.786554 2.111529,45.346664 9.002578,28.23056 32.231684,50.23708 61.240195,57.79492 2.667563,0.66689 6.779783,1.55594 9.002673,1.88953 5.11244,0.77787 19.45022,0.99989 25.00737,0.33217 z M 94.84043,186.52553 C 63.720133,183.96929 39.601886,165.63046 27.709497,135.5104 25.375358,129.50873 23.041147,120.83941 22.152351,114.61541 20.485511,102.83417 24.81992,84.939943 32.822188,71.046916 37.823367,62.266605 46.381765,52.597113 54.161863,46.706465 62.942173,40.148974 74.167704,34.925202 86.28238,31.813189 94.17355,29.812377 96.063,29.701668 91.39482,31.591691 77.279544,37.370888 66.72087,44.373238 57.607041,53.709317 45.270107,66.602029 39.268364,81.939873 40.490935,97.49998 c 0.443177,5.22379 0.553324,5.33513 3.223007,4.22374 4.779007,-2.00087 12.559275,-2.77891 17.671894,-1.55617 10.780922,2.5563 21.673014,11.55896 31.453644,26.22993 6.77979,10.00297 13.89302,14.4487 23.45137,14.4487 20.6728,0 44.01299,-23.45137 49.79248,-50.1259 0.22117,-1.222735 0.55332,-2.444886 0.77788,-3.667621 0.22115,-1.000139 0.44316,-1.000139 3.22291,-0.777877 1.66693,0.111034 3.33436,0.443177 3.77898,0.666871 0.77786,0.443163 2.22286,4.7791 3.55693,10.892097 0.55334,2.66758 0.77788,6.00175 0.77788,13.55958 0,8.66922 -0.11103,10.66984 -1.00004,14.78214 -1.55609,7.11314 -3.11226,11.67006 -6.55752,18.56101 -7.33551,15.00443 -19.67242,27.008 -35.23261,34.34349 -9.00259,4.22364 -17.2273,6.44627 -27.45251,7.33548 -6.00183,0.66686 -6.77979,0.66686 -13.11498,0.1109 z M 176.8646,77.604463 c 2.88965,-1.444831 4.77909,-3.445609 8.89148,-9.447195 11.22554,-16.782744 15.89355,-39.67836 9.11385,-45.568992 -5.00178,-4.334394 -16.67159,-2.778874 -30.89804,4.223677 -9.22493,4.557037 -18.22759,11.11441 -21.11732,15.44899 -6.55753,9.891845 1.44481,26.896798 16.11588,34.121202 6.22401,3.222916 13.11497,3.667691 17.89415,1.222735 z m -10.89209,-1.889522 c -5.89067,-1.444748 -12.78162,-5.779157 -14.89332,-9.558354 -3.44561,-6.001753 0,-10.002963 16.0047,-18.783316 21.45077,-11.781215 24.00715,-13.559563 25.34082,-17.449569 0.44316,-1.333469 1.11148,-2.334196 1.44481,-2.334196 0.8894,0 1.88953,4.334392 1.55609,6.890928 -0.77786,6.224058 -5.0011,19.116768 -8.66914,26.452263 -2.55629,5.112439 -5.55722,9.447195 -8.44695,12.114678 -3.77897,3.445679 -6.66863,4.001057 -12.33701,2.667566 z M 26.931523,57.487393 c 0.553324,-0.778043 1.000053,-1.556087 1.000053,-1.66744 0,-0.221498 -0.66686,-1.333464 -1.444834,-2.444904 C 24.263882,50.152098 20.596186,42.149491 18.706738,36.481205 15.817088,27.811928 15.3724,22.143641 17.483929,21.476781 19.262102,20.923119 29.265152,26.92261 40.379604,35.036283 l 5.112437,3.778966 3.667696,-2.444905 c 2.000777,-1.333476 3.66762,-2.556247 3.556266,-2.778872 -0.111034,-0.553663 -5.22369,-4.557037 -10.669741,-8.224635 -9.780622,-6.557495 -15.449007,-8.780358 -21.339582,-8.335784 -8.002359,0.553664 -9.336098,8.335784 -4.112403,23.895913 1.334086,4.001016 6.112928,14.115277 7.891265,16.893918 0.889396,1.333478 1.222827,1.333478 2.444979,-0.332254 z"
       id="path1768"
       sodipodi:nodetypes="cccsccccccccccccsscccccccccccccccccccccccccccccccccccccccccscccccsccccccccccccccccscscccscscccscccccc"
       style="display:inline;fill:#d40000;stroke-width:1.11144" />
    <path
       d="m 190.24469,152.44775 q -1.20483,0 -2.22753,-0.42027 -1.02269,-0.42026 -1.79322,-1.1768 -0.75652,-0.77053 -1.1768,-1.79322 -0.42029,-1.0227 -0.42029,-2.22753 0,-1.20482 0.42029,-2.21351 0.42028,-1.0227 1.1768,-1.77922 0.77053,-0.77052 1.79322,-1.19081 1.0227,-0.42032 2.22753,-0.42032 1.20482,0 2.21351,0.42032 1.0227,0.42027 1.77921,1.19081 0.77053,0.75652 1.19082,1.77922 0.42028,1.00869 0.42028,2.21351 0,1.20483 -0.42028,2.22753 -0.42029,1.02269 -1.19082,1.79322 -0.75651,0.75652 -1.77921,1.1768 -1.00869,0.42027 -2.21351,0.42027 z m 0,-0.84057 q 1.00869,0 1.87728,-0.35026 0.86859,-0.36422 1.51303,-1.00869 0.65845,-0.65845 1.00869,-1.52704 0.36425,-0.8686 0.36425,-1.89129 0,-1.0087 -0.36425,-1.87729 -0.35024,-0.86858 -1.00869,-1.51302 -0.64444,-0.65845 -1.51303,-1.00869 -0.86859,-0.36422 -1.87728,-0.36422 -1.0227,0 -1.8913,0.36422 -0.86859,0.35026 -1.52704,1.00869 -0.64444,0.64444 -1.00869,1.51303 -0.35024,0.8686 -0.35024,1.87729 0,1.0227 0.35024,1.89129 0.36425,0.8686 1.00869,1.52704 0.65845,0.64444 1.52704,1.0087 0.8686,0.35025 1.8913,0.35025 z"
       style="font-weight:bold;font-size:2px;line-height:1.25;font-family:Spleen;-inkscape-font-specification:'Comfortaa Bold';display:inline;fill:#d40000;stroke-width:0.0186151"
       id="path57663"
       inkscape:export-filename="/Users/tenzin/Downloads/OhioBSDlogoText.png"
       inkscape:export-xdpi="205.97238"
       inkscape:export-ydpi="205.97238" />
    <path
       d="m 198.3825,148.94536 q -0.18213,0 -0.30821,-0.11208 -0.11208,-0.1261 -0.11208,-0.30819 v -6.7386 q 0,-0.19611 0.11208,-0.30819 0.12608,-0.11208 0.30821,-0.11208 0.19613,0 0.30821,0.11208 0.11208,0.11208 0.11208,0.30819 v 6.7386 q 0,0.18214 -0.11208,0.30819 -0.11208,0.11208 -0.30821,0.11208 z m 6.20624,3.36229 q -0.18213,0 -0.30821,-0.11208 -0.11208,-0.1261 -0.11208,-0.30818 v -3.76858 q 0,-0.92463 -0.36425,-1.52704 -0.35024,-0.60241 -0.96666,-0.89661 -0.60241,-0.30819 -1.37294,-0.30819 -0.75652,0 -1.35893,0.29422 -0.60241,0.28019 -0.95265,0.78453 -0.35024,0.50435 -0.35024,1.13478 h -0.70048 q 0.056,-0.86859 0.51836,-1.55506 0.46232,-0.70048 1.20482,-1.09275 0.74251,-0.4063 1.63912,-0.4063 1.00869,0 1.80724,0.42027 0.81255,0.40629 1.27487,1.20482 0.46232,0.78454 0.46232,1.94733 v 3.76858 q 0,0.18214 -0.12609,0.30818 -0.11208,0.11208 -0.2942,0.11208 z m -6.20624,0 q -0.18213,0 -0.30821,-0.11208 -0.11208,-0.1261 -0.11208,-0.30818 v -6.82267 q 0,-0.19611 0.11208,-0.30818 0.12608,-0.11208 0.30821,-0.11208 0.19613,0 0.30821,0.11208 0.11208,0.11207 0.11208,0.30818 v 6.82267 q 0,0.18214 -0.11208,0.30818 -0.11208,0.11208 -0.30821,0.11208 z"
       style="font-weight:bold;font-size:2px;line-height:1.25;font-family:Spleen;-inkscape-font-specification:'Comfortaa Bold';display:inline;fill:#d40000;stroke-width:0.0186151"
       id="path57665"
       inkscape:export-filename="/Users/tenzin/Downloads/OhioBSDlogoText.png"
       inkscape:export-xdpi="205.97238"
       inkscape:export-ydpi="205.97238" />
    <path
       d="m 208.10273,152.30765 q -0.18212,0 -0.30821,-0.11208 -0.11208,-0.1261 -0.11208,-0.30818 v -6.82267 q 0,-0.19611 0.11208,-0.30818 0.12608,-0.11208 0.30821,-0.11208 0.19613,0 0.30821,0.11208 0.11208,0.11207 0.11208,0.30818 v 6.82267 q 0,0.18214 -0.11208,0.30818 -0.11208,0.11208 -0.30821,0.11208 z m -0.014,-9.27433 q -0.26619,0 -0.46232,-0.18214 -0.18212,-0.19611 -0.18212,-0.47631 0,-0.32221 0.19613,-0.4763 0.21014,-0.16812 0.46232,-0.16812 0.23816,0 0.4343,0.16812 0.21014,0.15409 0.21014,0.4763 0,0.2802 -0.19614,0.47631 -0.18212,0.18214 -0.46231,0.18214 z"
       style="font-weight:bold;font-size:2px;line-height:1.25;font-family:Spleen;-inkscape-font-specification:'Comfortaa Bold';display:inline;fill:#d40000;stroke-width:0.0186151"
       id="path57667"
       inkscape:export-filename="/Users/tenzin/Downloads/OhioBSDlogoText.png"
       inkscape:export-xdpi="205.97238"
       inkscape:export-ydpi="205.97238" />
    <path
       d="m 214.81747,152.39171 q -1.12076,0 -2.01737,-0.50435 -0.88261,-0.51837 -1.40096,-1.40096 -0.50434,-0.89661 -0.50434,-2.00337 0,-1.12076 0.50434,-2.00336 0.51835,-0.89662 1.40096,-1.40096 0.89661,-0.51837 2.01737,-0.51837 1.12077,0 2.00337,0.51837 0.88261,0.50435 1.38695,1.40096 0.51837,0.8826 0.51837,2.00336 0,1.10676 -0.51837,2.00337 -0.50435,0.8826 -1.38695,1.40096 -0.8826,0.50435 -2.00337,0.50435 z m 0,-0.78453 q 0.88261,0 1.56908,-0.4063 0.70048,-0.42026 1.09275,-1.12077 0.40629,-0.71448 0.40629,-1.6111 0,-0.8826 -0.40629,-1.58308 -0.39227,-0.71449 -1.09275,-1.12076 -0.68647,-0.42027 -1.56908,-0.42027 -0.86859,0 -1.56907,0.42027 -0.70048,0.40629 -1.10675,1.12076 -0.40628,0.70048 -0.40628,1.59709 0,0.88261 0.40628,1.59709 0.40627,0.70048 1.10675,1.12077 0.70048,0.4063 1.56907,0.4063 z"
       style="font-weight:bold;font-size:2px;line-height:1.25;font-family:Spleen;-inkscape-font-specification:'Comfortaa Bold';display:inline;fill:#d40000;stroke-width:0.0186151"
       id="path57669"
       inkscape:export-filename="/Users/tenzin/Downloads/OhioBSDlogoText.png"
       inkscape:export-xdpi="205.97238"
       inkscape:export-ydpi="205.97238" />
    <path
       d="m 221.52368,152.30765 q -0.23818,0 -0.39227,-0.0981 -0.15409,-0.11208 -0.15409,-0.32221 v -10.10091 q 0,-0.19611 0.11207,-0.30818 0.1261,-0.11208 0.30819,-0.11208 h 3.43235 q 0.78453,0 1.42897,0.35025 0.64444,0.33624 1.03671,0.93865 0.39227,0.5884 0.39227,1.35892 0,0.81256 -0.43429,1.42898 -0.42026,0.60241 -1.10675,0.91062 0.95265,0.26617 1.52704,0.98067 0.5884,0.71449 0.5884,1.79323 0,0.92463 -0.42026,1.65313 -0.4063,0.71449 -1.13478,1.12077 -0.7285,0.40629 -1.66714,0.40629 z m 0.29422,-0.84057 h 3.2222 q 0.70048,0 1.23284,-0.29422 0.53237,-0.30824 0.84058,-0.82657 0.30824,-0.53236 0.30824,-1.21883 0,-0.67246 -0.30824,-1.19081 -0.30819,-0.51837 -0.84058,-0.81255 -0.53236,-0.29422 -1.23284,-0.29422 h -3.2222 z m 0,-5.47774 h 3.01206 q 0.8826,0 1.44298,-0.53237 0.5744,-0.54637 0.5744,-1.44299 0,-0.86859 -0.5744,-1.3309 -0.56038,-0.47631 -1.44298,-0.47631 h -3.01208 z"
       style="font-weight:bold;font-size:2px;line-height:1.25;font-family:Spleen;-inkscape-font-specification:'Comfortaa Bold';display:inline;fill:#d40000;stroke-width:0.0186151"
       id="path57671"
       inkscape:export-filename="/Users/tenzin/Downloads/OhioBSDlogoText.png"
       inkscape:export-xdpi="205.97238"
       inkscape:export-ydpi="205.97238" />
    <path
       d="m 233.72295,152.44775 q -0.8826,0 -1.62511,-0.23818 -0.72849,-0.25215 -1.26086,-0.70048 -0.53237,-0.46233 -0.84057,-1.07874 -0.084,-0.16811 -0.0138,-0.32221 0.084,-0.15409 0.26617,-0.21013 0.15409,-0.056 0.30819,0.0138 0.15409,0.0701 0.23817,0.22415 0.2522,0.44831 0.65846,0.78454 0.42026,0.33623 0.98066,0.51837 0.5744,0.16812 1.28888,0.16812 0.79855,0 1.37294,-0.26617 0.58841,-0.26617 0.89661,-0.78453 0.32221,-0.51838 0.32221,-1.26087 0,-0.92463 -0.67246,-1.55506 -0.65844,-0.64444 -2.01737,-0.82657 -1.56908,-0.22415 -2.45168,-1.00868 -0.8826,-0.79855 -0.8826,-1.93332 0,-0.82657 0.40629,-1.44299 0.42027,-0.61642 1.1628,-0.95265 0.75651,-0.35026 1.73719,-0.35026 0.72849,0 1.34492,0.23818 0.61642,0.23818 1.07873,0.63043 0.46233,0.37825 0.71449,0.79855 0.0981,0.15409 0.0418,0.33623 -0.0418,0.16812 -0.22415,0.23818 -0.15409,0.056 -0.30819,0.0138 -0.15409,-0.056 -0.25215,-0.19611 -0.19611,-0.29422 -0.50434,-0.5744 -0.30819,-0.28019 -0.77053,-0.46233 -0.46233,-0.18214 -1.12076,-0.18214 -1.14879,0 -1.80724,0.51837 -0.65845,0.51837 -0.65845,1.47101 0,0.50435 0.26617,0.92463 0.2802,0.40629 0.86859,0.70047 0.5884,0.29422 1.49903,0.44831 1.80723,0.30819 2.59177,1.12077 0.79854,0.79854 0.79854,2.0454 0,0.72849 -0.2522,1.3169 -0.23817,0.5884 -0.70047,0.99468 -0.44831,0.40629 -1.07874,0.63043 -0.63043,0.21013 -1.40096,0.21013 z"
       style="font-weight:bold;font-size:2px;line-height:1.25;font-family:Spleen;-inkscape-font-specification:'Comfortaa Bold';display:inline;fill:#d40000;stroke-width:0.0186151"
       id="path57673"
       inkscape:export-filename="/Users/tenzin/Downloads/OhioBSDlogoText.png"
       inkscape:export-xdpi="205.97238"
       inkscape:export-ydpi="205.97238" />
    <path
       d="m 239.89461,152.30765 q -0.18214,0 -0.30824,-0.11208 -0.11208,-0.1261 -0.11208,-0.30818 v -10.10091 q 0,-0.19611 0.11208,-0.30818 0.1261,-0.11208 0.30824,-0.11208 h 2.52172 q 1.20482,0 2.1995,0.40629 1.00869,0.39227 1.73719,1.13478 0.74251,0.7285 1.13477,1.72317 0.4063,0.99468 0.4063,2.19951 0,1.20482 -0.4063,2.21351 -0.39227,0.99468 -1.13477,1.73719 -0.7285,0.72849 -1.73719,1.13477 -0.99468,0.39227 -2.1995,0.39227 z m 0.42026,-0.75651 h 2.10146 q 1.35893,0 2.39564,-0.61642 1.05072,-0.61642 1.63912,-1.68116 0.60241,-1.06472 0.60241,-2.42365 0,-1.35893 -0.60241,-2.40965 -0.5884,-1.06472 -1.63912,-1.68114 -1.03671,-0.61643 -2.39564,-0.61643 h -2.10144 z"
       style="font-weight:bold;font-size:2px;line-height:1.25;font-family:Spleen;-inkscape-font-specification:'Comfortaa Bold';display:inline;fill:#d40000;stroke-width:0.0186151"
       id="path57675"
       inkscape:export-filename="/Users/tenzin/Downloads/OhioBSDlogoText.png"
       inkscape:export-xdpi="205.97238"
       inkscape:export-ydpi="205.97238" />
    <path
       d="m 251.25995,152.30765 h -0.1751 -0.1751 -0.17511 v -0.1751 -0.1751 -0.1751 -0.1751 -0.17511 -0.1751 h 0.17511 0.1751 0.1751 0.1751 v 0.1751 0.17511 0.1751 0.1751 0.1751 0.1751 z"
       style="font-size:1.6px;line-height:1.25;font-family:'Spleen 32x64';-inkscape-font-specification:'Spleen 32x64, Normal';display:inline;fill:#ffffff;stroke-width:0.0186151"
       id="path57677"
       inkscape:export-filename="/Users/tenzin/Downloads/OhioBSDlogoText.png"
       inkscape:export-xdpi="205.97238"
       inkscape:export-ydpi="205.97238" />
    <path
       d="m 257.20218,152.30765 h -0.1751 -0.1751 -0.1751 -0.1751 -0.1751 -0.1751 -0.17511 -0.1751 -0.1751 -0.1751 -0.1751 -0.1751 -0.1751 -0.1751 -0.17511 -0.1751 -0.1751 -0.1751 v -0.1751 h -0.1751 -0.1751 v -0.1751 h -0.1751 v -0.1751 h -0.1751 v -0.1751 -0.17511 h -0.17511 v -0.1751 -0.1751 -0.1751 -0.1751 -0.1751 -0.1751 -0.1751 -0.17511 -0.1751 -0.1751 -0.1751 -0.1751 -0.1751 -0.1751 -0.1751 -0.17511 -0.1751 -0.1751 h 0.17511 v -0.1751 -0.1751 h 0.1751 v -0.1751 h 0.1751 v -0.1751 h 0.1751 0.1751 v -0.1751 h 0.1751 0.1751 0.1751 0.17511 0.1751 0.1751 0.1751 0.1751 0.1751 0.1751 0.1751 0.17511 0.1751 0.1751 0.1751 0.1751 0.1751 0.1751 0.1751 v 0.1751 0.1751 0.1751 0.1751 h -0.1751 -0.1751 -0.1751 -0.1751 -0.1751 -0.1751 -0.1751 -0.17511 -0.1751 -0.1751 -0.1751 -0.1751 -0.1751 -0.1751 -0.1751 -0.17511 -0.1751 -0.1751 v 0.1751 h -0.1751 v 0.1751 h -0.1751 v 0.1751 0.17511 0.1751 0.1751 0.1751 0.1751 0.1751 0.1751 0.1751 0.17511 0.1751 0.1751 0.1751 0.1751 0.1751 0.1751 h 0.1751 v 0.1751 h 0.1751 v 0.17511 h 0.1751 0.1751 0.17511 0.1751 0.1751 0.1751 0.1751 0.1751 0.1751 0.1751 0.17511 0.1751 0.1751 0.1751 0.1751 0.1751 0.1751 0.1751 v 0.1751 0.1751 0.1751 0.1751 z"
       style="font-size:1.6px;line-height:1.25;font-family:'Spleen 32x64';-inkscape-font-specification:'Spleen 32x64, Normal';display:inline;fill:#ffffff;stroke-width:0.0186151"
       id="path57679"
       inkscape:export-filename="/Users/tenzin/Downloads/OhioBSDlogoText.png"
       inkscape:export-xdpi="205.97238"
       inkscape:export-ydpi="205.97238" />
    <path
       d="m 261.64847,152.30765 h -0.1751 -0.1751 -0.1751 -0.17511 -0.1751 -0.1751 -0.1751 -0.1751 -0.1751 -0.1751 v -0.1751 h -0.1751 -0.17511 v -0.1751 h -0.1751 v -0.1751 h -0.1751 v -0.1751 -0.17511 h -0.1751 v -0.1751 -0.1751 -0.1751 -0.1751 -0.1751 -0.1751 -0.1751 -0.17511 -0.1751 -0.1751 -0.1751 -0.1751 -0.1751 -0.1751 -0.1751 -0.17511 -0.1751 -0.1751 -0.1751 -0.1751 -0.1751 -0.1751 -0.1751 -0.17511 -0.1751 -0.1751 -0.1751 -0.1751 -0.1751 -0.1751 -0.1751 -0.17511 -0.1751 -0.1751 -0.1751 h 0.1751 0.1751 0.1751 0.17511 v 0.1751 0.1751 0.1751 0.17511 0.1751 0.1751 0.1751 0.1751 0.1751 0.1751 0.1751 0.17511 0.1751 0.1751 0.1751 0.1751 0.1751 0.1751 0.1751 0.17511 0.1751 0.1751 0.1751 0.1751 0.1751 0.1751 0.1751 0.17511 0.1751 0.1751 0.1751 0.1751 0.1751 0.1751 h 0.1751 v 0.1751 h 0.1751 v 0.17511 h 0.1751 0.1751 0.1751 0.1751 0.1751 0.17511 0.1751 0.1751 0.1751 0.1751 v 0.1751 0.1751 0.1751 0.1751 z"
       style="font-size:1.6px;line-height:1.25;font-family:'Spleen 32x64';-inkscape-font-specification:'Spleen 32x64, Normal';display:inline;fill:#ffffff;stroke-width:0.0186151"
       id="path57681"
       inkscape:export-filename="/Users/tenzin/Downloads/OhioBSDlogoText.png"
       inkscape:export-xdpi="205.97238"
       inkscape:export-ydpi="205.97238" />
    <path
       d="m 265.81651,152.30765 h -0.1751 -0.1751 -0.1751 -0.1751 -0.1751 -0.1751 -0.1751 -0.17511 -0.1751 -0.1751 -0.1751 -0.1751 -0.1751 v -0.1751 h -0.1751 -0.1751 v -0.1751 h -0.17511 v -0.1751 h -0.1751 v -0.1751 -0.17511 h -0.1751 v -0.1751 -0.1751 -0.1751 -0.1751 -0.1751 -0.1751 -0.1751 -0.17511 -0.1751 -0.1751 -0.1751 -0.1751 -0.1751 -0.1751 -0.1751 -0.17511 -0.1751 -0.1751 h 0.1751 v -0.1751 -0.1751 h 0.1751 v -0.1751 H 263.19 v -0.1751 h 0.1751 0.1751 v -0.1751 h 0.1751 0.1751 0.1751 0.1751 0.1751 0.17511 0.1751 0.1751 0.1751 0.1751 0.1751 0.1751 0.1751 0.17511 v 0.1751 h 0.1751 0.1751 v 0.1751 h 0.1751 v 0.1751 h 0.1751 v 0.1751 0.1751 h 0.1751 v 0.1751 0.1751 0.17511 0.1751 0.1751 0.1751 0.1751 0.1751 0.1751 0.1751 0.17511 0.1751 0.1751 0.1751 0.1751 0.1751 0.1751 0.1751 h -0.1751 v 0.17511 0.1751 h -0.1751 v 0.1751 h -0.1751 v 0.1751 h -0.1751 -0.1751 v 0.1751 z m -0.1751,-0.70047 h 0.1751 v -0.1751 h 0.17511 v -0.17511 h 0.1751 v -0.1751 -0.1751 -0.1751 -0.1751 -0.1751 -0.1751 -0.17511 -0.1751 -0.1751 -0.1751 -0.1751 -0.1751 -0.1751 -0.1751 -0.17511 -0.1751 h -0.1751 v -0.1751 h -0.17511 v -0.1751 h -0.1751 -0.1751 -0.1751 -0.1751 -0.1751 -0.1751 -0.1751 -0.17511 -0.1751 -0.1751 -0.1751 -0.1751 v 0.1751 h -0.1751 v 0.1751 h -0.1751 v 0.1751 0.17511 0.1751 0.1751 0.1751 0.1751 0.1751 0.1751 0.1751 0.17511 0.1751 0.1751 0.1751 0.1751 0.1751 0.1751 h 0.1751 v 0.17511 h 0.1751 v 0.1751 h 0.1751 0.1751 0.1751 0.1751 0.17511 0.1751 0.1751 0.1751 0.1751 0.1751 z"
       style="font-size:1.6px;line-height:1.25;font-family:'Spleen 32x64';-inkscape-font-specification:'Spleen 32x64, Normal';display:inline;fill:#ffffff;stroke-width:0.0186151"
       id="path57683"
       inkscape:export-filename="/Users/tenzin/Downloads/OhioBSDlogoText.png"
       inkscape:export-xdpi="205.97238"
       inkscape:export-ydpi="205.97238" />
    <path
       d="m 271.89228,152.30765 h -0.1751 -0.1751 -0.1751 -0.1751 -0.1751 -0.1751 -0.1751 -0.17511 -0.1751 -0.1751 -0.1751 -0.1751 -0.1751 -0.1751 -0.1751 -0.17511 -0.1751 -0.1751 -0.1751 v -0.1751 h -0.1751 v -0.1751 h -0.1751 v -0.1751 h -0.1751 v -0.1751 h -0.1751 v -0.17511 -0.1751 -0.1751 -0.1751 -0.1751 -0.1751 -0.1751 -0.1751 -0.17511 -0.1751 -0.1751 -0.1751 -0.1751 -0.1751 -0.1751 -0.1751 -0.17511 -0.1751 -0.1751 -0.1751 -0.1751 -0.1751 -0.1751 -0.1751 h 0.1751 0.1751 0.1751 0.1751 v 0.1751 0.1751 0.1751 0.1751 0.1751 0.1751 0.1751 0.17511 0.1751 0.1751 0.1751 0.1751 0.1751 0.1751 0.1751 0.17511 0.1751 0.1751 0.1751 0.1751 0.1751 0.1751 h 0.1751 v 0.1751 h 0.1751 v 0.17511 h 0.1751 0.17511 0.1751 0.1751 0.1751 0.1751 0.1751 0.1751 0.1751 0.17511 0.1751 0.1751 0.1751 0.1751 v -0.17511 -0.1751 -0.1751 -0.1751 -0.1751 -0.1751 -0.1751 -0.1751 -0.17511 -0.1751 -0.1751 -0.1751 -0.1751 -0.1751 -0.1751 -0.1751 -0.17511 -0.1751 -0.1751 -0.1751 -0.1751 -0.1751 -0.1751 -0.1751 h 0.1751 0.1751 0.1751 0.17511 v 0.1751 0.1751 0.1751 0.1751 0.1751 0.1751 0.1751 0.17511 0.1751 0.1751 0.1751 0.1751 0.1751 0.1751 0.1751 0.17511 0.1751 0.1751 0.1751 0.1751 0.1751 0.1751 0.1751 0.17511 0.1751 0.1751 0.1751 0.1751 z"
       style="font-size:1.6px;line-height:1.25;font-family:'Spleen 32x64';-inkscape-font-specification:'Spleen 32x64, Normal';display:inline;fill:#ffffff;stroke-width:0.0186151"
       id="path57685"
       inkscape:export-filename="/Users/tenzin/Downloads/OhioBSDlogoText.png"
       inkscape:export-xdpi="205.97238"
       inkscape:export-ydpi="205.97238" />
    <path
       d="m 277.09246,152.30765 h -0.1751 -0.1751 -0.17511 -0.1751 -0.1751 -0.1751 -0.1751 -0.1751 -0.1751 -0.1751 -0.17511 -0.1751 -0.1751 -0.1751 -0.1751 -0.1751 -0.1751 -0.1751 v -0.1751 h -0.17511 -0.1751 v -0.1751 h -0.1751 v -0.1751 h -0.1751 v -0.1751 -0.17511 h -0.1751 v -0.1751 -0.1751 -0.1751 -0.1751 -0.1751 -0.1751 -0.1751 -0.17511 -0.1751 -0.1751 -0.1751 -0.1751 -0.1751 -0.1751 -0.1751 -0.17511 -0.1751 -0.1751 h 0.1751 v -0.1751 -0.1751 h 0.1751 v -0.1751 h 0.1751 v -0.1751 h 0.1751 0.17511 v -0.1751 h 0.1751 0.1751 0.1751 0.1751 0.1751 0.1751 0.1751 0.17511 0.1751 0.1751 0.1751 0.1751 0.1751 0.1751 0.1751 v -0.17511 -0.1751 -0.1751 -0.1751 -0.1751 -0.1751 -0.1751 -0.1751 -0.17511 -0.1751 -0.1751 -0.1751 h 0.17511 0.1751 0.1751 0.1751 v 0.1751 0.1751 0.1751 0.17511 0.1751 0.1751 0.1751 0.1751 0.1751 0.1751 0.1751 0.17511 0.1751 0.1751 0.1751 0.1751 0.1751 0.1751 0.1751 0.17511 0.1751 0.1751 0.1751 0.1751 0.1751 0.1751 0.1751 0.17511 0.1751 0.1751 0.1751 0.1751 0.1751 0.1751 0.1751 0.17511 0.1751 0.1751 0.1751 0.1751 z m -0.70048,-0.70047 h 0.1751 v -0.1751 -0.17511 -0.1751 -0.1751 -0.1751 -0.1751 -0.1751 -0.1751 -0.17511 -0.1751 -0.1751 -0.1751 -0.1751 -0.1751 -0.1751 -0.1751 -0.17511 -0.1751 -0.1751 -0.1751 h -0.1751 -0.1751 -0.1751 -0.17511 -0.1751 -0.1751 -0.1751 -0.1751 -0.1751 -0.1751 -0.1751 -0.17511 -0.1751 -0.1751 v 0.1751 h -0.1751 v 0.1751 h -0.1751 v 0.1751 0.17511 0.1751 0.1751 0.1751 0.1751 0.1751 0.1751 0.1751 0.17511 0.1751 0.1751 0.1751 0.1751 0.1751 0.1751 h 0.1751 v 0.17511 h 0.1751 v 0.1751 h 0.1751 0.1751 0.17511 0.1751 0.1751 0.1751 0.1751 0.1751 0.1751 0.1751 0.17511 0.1751 z"
       style="font-size:1.6px;line-height:1.25;font-family:'Spleen 32x64';-inkscape-font-specification:'Spleen 32x64, Normal';display:inline;fill:#ffffff;stroke-width:0.0186151"
       id="path57687"
       inkscape:export-filename="/Users/tenzin/Downloads/OhioBSDlogoText.png"
       inkscape:export-xdpi="205.97238"
       inkscape:export-ydpi="205.97238" />
  </g>
</svg>
