<?xml version="1.0" encoding="UTF-8" standalone="no"?>
<svg
   width="520"
   height="320"
   viewBox="0 0 26 16"
   version="1.1"
   id="svg55"
   sodipodi:docname="OhioBSDforSite.svg"
   inkscape:version="1.1.1 (c3084ef, 2021-09-22)"
   inkscape:export-filename="/Users/tenzin/Downloads/OhioBSDforSite.png"
   inkscape:export-xdpi="184.61539"
   inkscape:export-ydpi="184.61539"
   xmlns:inkscape="http://www.inkscape.org/namespaces/inkscape"
   xmlns:sodipodi="http://sodipodi.sourceforge.net/DTD/sodipodi-0.dtd"
   xmlns:xlink="http://www.w3.org/1999/xlink"
   xmlns="http://www.w3.org/2000/svg"
   xmlns:svg="http://www.w3.org/2000/svg">
  <sodipodi:namedview
     id="namedview57"
     pagecolor="#ffffff"
     bordercolor="#666666"
     borderopacity="1.0"
     inkscape:pageshadow="2"
     inkscape:pageopacity="0.0"
     inkscape:pagecheckerboard="0"
     showgrid="false"
     inkscape:zoom="2.5273473"
     inkscape:cx="144.02453"
     inkscape:cy="210.69522"
     inkscape:window-width="2559"
     inkscape:window-height="1387"
     inkscape:window-x="0"
     inkscape:window-y="25"
     inkscape:window-maximized="0"
     inkscape:current-layer="layer2"
     showguides="false"
     inkscape:guide-bbox="true">
    <sodipodi:guide
       position="0.00722832,15.979412"
       orientation="1,0"
       id="guide12402" />
    <sodipodi:guide
       position="26.007229,-10.28646"
       orientation="1,0"
       id="guide12404" />
    <sodipodi:guide
       position="13.023372,18.305022"
       orientation="1,0"
       id="guide57708" />
  </sodipodi:namedview>
  <defs
     id="defs17">
    <rect
       x="0.1445664"
       y="-157.89397"
       width="520.00001"
       height="52.439239"
       id="rect4185" />
    <!--                 8*tan(arctan(16/8)/2)-1  v  -->
    <g
       id="s"
       fill="#fff"
       transform="translate(3.944272,0) scale(0.625)">
      <g
         id="f">
        <g
           id="t">
          <path
             id="o"
             d="M1,0H0V0.5z"
             transform="rotate(18,1,0)" />
          <use
             xlink:href="#o"
             transform="scale(1,-1)"
             id="use3" />
        </g>
        <use
           xlink:href="#t"
           transform="rotate(72)"
           id="use6" />
      </g>
      <use
         xlink:href="#t"
         transform="rotate(-72)"
         id="use9" />
      <use
         xlink:href="#f"
         transform="rotate(144)"
         id="use11" />
    </g>
    <clipPath
       id="c">
      <path
         d="M0,16V0L26,3 20,8 26,13z"
         id="path14" />
    </clipPath>
    <clipPath
       id="c-8">
      <path
         d="M 0,16 V 0 l 26,3 -6,5 6,5 z"
         id="path71" />
    </clipPath>
  </defs>
  <g
     inkscape:groupmode="layer"
     id="layer2"
     inkscape:label="epic 2">
    <path
       style="fill:#ffffff;stroke:#000008;stroke-width:0.05px;stroke-linecap:butt;stroke-linejoin:miter;stroke-opacity:1"
       d="M 0.00722832,-0.03670024 C 0.00481888,5.3088665 0.00240944,10.654433 0,16 8.666667,15 17.333334,14 26.000001,13 24.001514,11.320399 22.003026,9.640798 20.004539,7.961197 c 2.000897,-1.6659657 4.001793,-3.3319315 6.00269,-4.9978972 -8.666667,-1 -17.3333338,-2.00000003 -26.00000068,-3.00000004 z"
       id="path949" />
  </g>
  <!-- 8*tan(arctan(16/8)/2) v  -->
  <g
     inkscape:groupmode="layer"
     id="layer1"
     inkscape:label="epic"
     style="display:inline"
     sodipodi:insensitive="true">
    <path
       class="st0"
       d="M 4.8053874,10.214394 C 3.8833065,10.16482 3.1000324,9.4930903 2.9190865,8.5982737 2.8224215,8.1149243 2.9042165,7.606788 3.1496063,7.2027581 c 0.019835,-0.032222 0.037174,-0.064443 0.037174,-0.071878 0,-0.00741 -0.01487,-0.032222 -0.032222,-0.059491 C 3.052928,6.9201874 2.9240385,6.5979545 2.8893368,6.4120511 c -0.029752,-0.1586377 0.00494,-0.2850525 0.08923,-0.329669 0.059491,-0.029752 0.1759885,-0.029752 0.280095,0.00247 0.1660739,0.052057 0.3990725,0.1685526 0.5824972,0.2949673 l 0.096665,0.066926 0.08923,-0.039657 C 4.465786,6.2038342 4.9714436,6.1641738 5.4448782,6.2955407 5.5985585,6.3376797 5.7968567,6.4194754 5.9108767,6.4888802 l 0.052056,0.032222 0.096665,-0.064443 C 6.2479798,6.3327245 6.4760223,6.2335754 6.6817553,6.1864789 c 0.2305212,-0.052056 0.3668494,-0.019835 0.4263393,0.099148 0.022304,0.044622 0.024787,0.064443 0.024787,0.1735099 0,0.071878 -0.00741,0.1536804 -0.019835,0.2007756 -0.047091,0.208213 -0.1536803,0.4511263 -0.2825738,0.6444658 l -0.071878,0.1065826 0.019835,0.037174 c 0.037174,0.071878 0.096665,0.2602656 0.1214522,0.389159 C 7.0362106,8.5065465 6.828004,9.1733206 6.3396922,9.6417979 5.9827575,9.9838605 5.5465034,10.174719 5.0433244,10.209422 c -0.084278,0.0049 -0.1561591,0.0099 -0.1635951,0.0074 -0.00494,0.0025 -0.039657,0 -0.074361,-0.0025 z m 0.3668508,-0.08676 C 5.2912207,10.112764 5.5019071,10.060709 5.6184071,10.016087 6.0918404,9.8351411 6.4710846,9.4905999 6.6817749,9.0493883 6.7858879,8.8312618 6.837934,8.6453585 6.862721,8.3950077 6.8875079,8.1496156 6.8428862,7.8174666 6.7561384,7.5819893 l -0.024787,-0.061974 -0.02727,0.032222 c -0.042139,0.049574 -0.091713,0.069409 -0.1883821,0.074361 -0.064444,0.00247 -0.1090652,0 -0.1759886,-0.017352 C 6.0472221,7.5348853 5.8067874,7.3241938 5.7175531,7.0614508 5.6803791,6.9523857 5.6754141,6.803664 5.7052051,6.7243458 5.7275091,6.6698068 5.7820491,6.612798 5.8266573,6.6028936 5.8762313,6.5930136 5.9059703,6.5781066 5.8985353,6.5657196 5.8886553,6.5483676 5.7051958,6.459137 5.5862172,6.4145179 4.854997,6.1418589 4.0097556,6.3277569 3.4817884,6.8805164 3.238875,7.1358233 3.0752799,7.4407053 3.0009178,7.7778104 c -0.076843,0.3494986 -0.061974,0.6642954 0.047091,1.0113152 0.2007755,0.6295937 0.7188266,1.1203792 1.3657711,1.2889334 0.059491,0.01487 0.1512017,0.0347 0.2007756,0.04214 0.1140174,0.01735 0.4337755,0.0223 0.5577115,0.0074 z M 4.7731644,9.9144656 C 4.0791247,9.8574571 3.541244,9.4484673 3.2760211,8.7767345 3.2239646,8.642885 3.1719081,8.4495442 3.1520863,8.3107373 3.1149123,8.047993 3.2115773,7.6489193 3.3900436,7.3390798 3.5015784,7.1432617 3.692447,6.9276139 3.8659569,6.7962418 4.0617751,6.6499975 4.3121246,6.5334976 4.5823049,6.4640941 4.7582935,6.4194721 4.8004313,6.4170031 4.6963222,6.4591541 4.3815254,6.588041 4.1460468,6.7442066 3.9427925,6.9524183 3.6676548,7.2399495 3.5338053,7.5820119 3.561071,7.9290318 c 0.00988,0.1164999 0.012348,0.1189825 0.071878,0.094196 0.1065825,-0.044622 0.2800951,-0.061974 0.3941163,-0.034704 0.2404347,0.057009 0.4833494,0.2577855 0.7014758,0.5849758 0.1512017,0.2230851 0.3098395,0.3222329 0.5230086,0.3222329 0.4610411,0 0.9815709,-0.5230085 1.1104643,-1.1179004 0.00494,-0.02727 0.012348,-0.054526 0.017352,-0.081796 0.00494,-0.022304 0.00988,-0.022304 0.071878,-0.017352 0.037174,0.00247 0.074361,0.00988 0.084278,0.01487 0.017352,0.00988 0.049574,0.1065826 0.079326,0.2429134 0.012348,0.059491 0.017352,0.1338508 0.017352,0.3024033 0,0.1933395 -0.00247,0.2379573 -0.022304,0.329669 C 6.5751922,8.7271776 6.5404872,8.8288053 6.4636519,8.9824857 6.3000573,9.317112 6.0249196,9.5848137 5.6778997,9.7484088 5.4771241,9.8426048 5.2936994,9.8921731 5.0656569,9.912004 4.931806,9.926874 4.9144552,9.926874 4.7731683,9.914474 Z M 6.6024567,7.4853241 C 6.6669007,7.4531021 6.7090393,7.4084811 6.8007536,7.2746338 7.0511031,6.9003483 7.1552095,6.3897333 7.0040079,6.2583612 6.8924601,6.1616962 6.6322011,6.1963872 6.3149255,6.3525572 6.1091926,6.4541875 5.9084157,6.6004292 5.8439696,6.6970983 5.6977254,6.9177047 5.8761916,7.2969476 6.203383,7.4580641 c 0.1388082,0.071878 0.2924885,0.081796 0.3990737,0.02727 z M 6.359542,7.443185 C 6.2281699,7.410963 6.0744895,7.3142981 6.0273943,7.230016 c -0.076843,-0.1338508 0,-0.2230851 0.3569347,-0.4189033 0.478392,-0.262743 0.5354032,-0.3024034 0.5651476,-0.3891577 0.00988,-0.029739 0.024787,-0.052057 0.032222,-0.052057 0.019835,0 0.042139,0.096665 0.034704,0.1536804 C 6.9990506,6.6623866 6.9048679,6.9499178 6.8230631,7.1135129 6.7660541,7.2275303 6.6991284,7.3242033 6.634681,7.3836932 6.550403,7.4605372 6.4859581,7.4729242 6.3595433,7.4431842 Z M 3.2586702,7.0366765 c 0.012348,-0.017352 0.022304,-0.034704 0.022304,-0.037187 0,-0.00494 -0.01487,-0.029739 -0.032222,-0.054526 C 3.1991782,6.8730855 3.1173801,6.6946127 3.0752423,6.5681993 3.0107983,6.3748585 3.0008813,6.2484451 3.0479723,6.2335729 3.0876283,6.2212249 3.3107152,6.355025 3.5585873,6.535975 L 3.6726046,6.620253 3.7544006,6.565727 C 3.7990226,6.535988 3.8361966,6.508718 3.8337136,6.503753 3.8312436,6.491405 3.7172137,6.4021226 3.5957577,6.3203283 3.3776312,6.174084 3.2512165,6.1245101 3.1198444,6.1344249 2.9413772,6.1467729 2.9116328,6.3203283 3.0281314,6.6673482 c 0.029752,0.08923 0.1363295,0.3147968 0.1759899,0.3767655 0.019835,0.029739 0.02727,0.029739 0.054526,-0.00741 z"
       id="path1768"
       sodipodi:nodetypes="cccsccccccccccccsscccccccccccccccccccccccccccccccccccccccccscccccsccccccccccccccccscscccscscccscccccc"
       style="fill:#d40000;stroke-width:0.0247871" />
    <path
       style="fill:#d40000;stroke:none;stroke-width:0.05px;stroke-linecap:butt;stroke-linejoin:miter;stroke-opacity:1"
       d="M 13.933971,6.968239 16,8 l -1.913074,0.9591645 7.113673,0.00251 -1.19606,-1.0004775 1.198567,-0.9954625 z"
       id="path1248" />
    <text
       xml:space="preserve"
       style="font-size:2px;line-height:1.25;font-family:Spleen;-inkscape-font-specification:Spleen;stroke-width:0.00265748"
       x="-19.851999"
       y="6.9438772"
       id="text13487"><tspan
         sodipodi:role="line"
         id="tspan13485"
         style="font-style:normal;font-variant:normal;font-weight:normal;font-stretch:normal;font-size:2px;font-family:Comfortaa;-inkscape-font-specification:'Comfortaa, @wght=300';font-variant-ligatures:normal;font-variant-caps:normal;font-variant-numeric:normal;font-variant-east-asian:normal;font-variation-settings:'wght' 300;stroke-width:0.00265748"
         x="-19.851999"
         y="6.9438772"
         dx="8.9355723e-10"><tspan
           style="font-style:normal;font-variant:normal;font-weight:bold;font-stretch:normal;font-family:Comfortaa;-inkscape-font-specification:'Comfortaa Bold';fill:#ff0000"
           id="tspan33215">OhioBSD</tspan><tspan
           style="font-style:normal;font-variant:normal;font-weight:normal;font-stretch:normal;font-size:1.6px;font-family:'Spleen 32x64';-inkscape-font-specification:'Spleen 32x64, Normal';font-variant-ligatures:normal;font-variant-caps:normal;font-variant-numeric:normal;font-variant-east-asian:normal"
           id="tspan19783"
           dx="0.086438291 -0.20168938 -0.11525107 -0.086438306 -0.057625536 -0.057625536">.cloud</tspan></tspan></text>
    <text
       xml:space="preserve"
       style="font-size:2px;line-height:0;font-family:Spleen;-inkscape-font-specification:Spleen;stroke-width:0.00265748"
       x="-30.975725"
       y="10.346841"
       id="text13487-4"><tspan
         sodipodi:role="line"
         id="tspan13485-8"
         style="font-style:normal;font-variant:normal;font-weight:normal;font-stretch:normal;font-size:2px;line-height:1.25;font-family:Comfortaa;-inkscape-font-specification:'Comfortaa, @wght=300';font-variant-ligatures:normal;font-variant-caps:normal;font-variant-numeric:normal;font-variant-east-asian:normal;font-variation-settings:'wght' 300;stroke-width:0.00265748"
         x="-30.975725"
         y="10.346841" /><tspan
         sodipodi:role="line"
         style="font-style:normal;font-variant:normal;font-weight:normal;font-stretch:normal;font-size:1.2px;line-height:1.25;font-family:Comfortaa;-inkscape-font-specification:'Comfortaa, Normal';font-variant-ligatures:normal;font-variant-caps:normal;font-variant-numeric:normal;font-variant-east-asian:normal;stroke-width:0.00265748"
         x="-30.975725"
         y="12.114734"
         id="tspan70259">local</tspan><tspan
         sodipodi:role="line"
         style="font-style:normal;font-variant:normal;font-weight:normal;font-stretch:normal;font-size:0.6px;line-height:1.15;font-family:'Spleen 32x64';-inkscape-font-specification:'Spleen 32x64, @wght=300';font-variant-ligatures:normal;font-variant-caps:normal;font-variant-numeric:normal;font-variant-east-asian:normal;font-variation-settings:'wght' 300;stroke-width:0.00265748"
         x="-30.975725"
         y="13.091232"
         id="tspan76809"
         dy="0">o eiusmod tempor incididunt ut labore et dolore magna aliqua. </tspan><tspan
         sodipodi:role="line"
         style="font-style:normal;font-variant:normal;font-weight:normal;font-stretch:normal;font-size:0.6px;line-height:1.15;font-family:'Spleen 32x64';-inkscape-font-specification:'Spleen 32x64, @wght=300';font-variant-ligatures:normal;font-variant-caps:normal;font-variant-numeric:normal;font-variant-east-asian:normal;font-variation-settings:'wght' 300;stroke-width:0.00265748"
         x="-30.975725"
         y="13.823393"
         id="tspan77477">Ut enim ad minim veniam, quis nostrud exercitation ullamco laboris nisi </tspan><tspan
         sodipodi:role="line"
         style="font-style:normal;font-variant:normal;font-weight:normal;font-stretch:normal;font-size:0.6px;line-height:1.15;font-family:'Spleen 32x64';-inkscape-font-specification:'Spleen 32x64, @wght=300';font-variant-ligatures:normal;font-variant-caps:normal;font-variant-numeric:normal;font-variant-east-asian:normal;font-variation-settings:'wght' 300;stroke-width:0.00265748"
         x="-30.975725"
         y="14.555553"
         id="tspan78499">ut aliquip ex ea commodo consequat. Duis aute irure dolor in reprehenderit </tspan><tspan
         sodipodi:role="line"
         style="font-style:normal;font-variant:normal;font-weight:normal;font-stretch:normal;font-size:0.6px;line-height:1.15;font-family:'Spleen 32x64';-inkscape-font-specification:'Spleen 32x64, @wght=300';font-variant-ligatures:normal;font-variant-caps:normal;font-variant-numeric:normal;font-variant-east-asian:normal;font-variation-settings:'wght' 300;stroke-width:0.00265748"
         x="-30.975725"
         y="15.287714"
         id="tspan79275">in voluptate velit esse cillum dolore eu fugiat nulla pariatur. Excepteur sint </tspan><tspan
         sodipodi:role="line"
         style="font-style:normal;font-variant:normal;font-weight:normal;font-stretch:normal;font-size:0.6px;line-height:1.15;font-family:'Spleen 32x64';-inkscape-font-specification:'Spleen 32x64, @wght=300';font-variant-ligatures:normal;font-variant-caps:normal;font-variant-numeric:normal;font-variant-east-asian:normal;font-variation-settings:'wght' 300;stroke-width:0.00265748"
         x="-30.975725"
         y="16.019875"
         id="tspan80015">occaecat cupidatat non proident, sunt in culpa qui officia deserunt mollit </tspan><tspan
         sodipodi:role="line"
         style="font-style:normal;font-variant:normal;font-weight:300;font-stretch:normal;font-size:0.6px;line-height:1.15;font-family:Comfortaa;-inkscape-font-specification:'Comfortaa Light';font-variant-ligatures:normal;font-variant-caps:normal;font-variant-numeric:normal;font-variant-east-asian:normal;stroke-width:0.00265748"
         x="-30.975725"
         y="16.752035"
         rotate="0 0 0 0 0 0 0 0 0 0 0 0 0 0 0 0 0 0 0 0 0"
         id="tspan80593"><tspan
   style="font-style:normal;font-variant:normal;font-weight:normal;font-stretch:normal;font-size:0.6px;font-family:'Spleen 32x64';-inkscape-font-specification:'Spleen 32x64, @wght=300';font-variant-ligatures:normal;font-variant-caps:normal;font-variant-numeric:normal;font-variant-east-asian:normal;font-variation-settings:'wght' 300"
   id="tspan86597">anim id est laborum</tspan>.</tspan></text>
    <path
       d="m 5.2846179,19.181857 q -0.2276831,0 -0.420949,-0.07942 -0.1932659,-0.07942 -0.3388772,-0.222388 -0.1429638,-0.145612 -0.2223882,-0.338877 -0.079424,-0.193266 -0.079424,-0.420949 0,-0.227684 0.079424,-0.418302 0.079424,-0.193266 0.2223882,-0.33623 0.1456113,-0.145611 0.3388772,-0.225035 0.1932659,-0.07943 0.420949,-0.07943 0.2276831,0 0.4183015,0.07943 0.1932659,0.07942 0.3362297,0.225035 0.1456113,0.142964 0.2250356,0.33623 0.079424,0.190618 0.079424,0.418302 0,0.227683 -0.079424,0.420949 -0.079424,0.193265 -0.2250356,0.338877 -0.1429638,0.142964 -0.3362297,0.222388 -0.1906184,0.07942 -0.4183015,0.07942 z m 0,-0.158848 q 0.1906184,0 0.354762,-0.06619 Q 5.8035235,18.887989 5.9253075,18.7662 6.049739,18.641769 6.115926,18.477625 6.18476,18.313481 6.18476,18.120216 q 0,-0.190619 -0.068834,-0.354763 -0.066187,-0.16414 -0.1906185,-0.285924 -0.121784,-0.124432 -0.2859276,-0.190619 -0.1641436,-0.06883 -0.354762,-0.06883 -0.1932659,0 -0.3574096,0.06883 -0.1641436,0.06619 -0.2885751,0.190619 -0.121784,0.121784 -0.1906184,0.285927 -0.066187,0.164144 -0.066187,0.354763 0,0.193265 0.066187,0.357409 0.068834,0.164144 0.1906184,0.288575 0.1244315,0.121784 0.2885751,0.190619 0.1641437,0.06619 0.3574096,0.06619 z"
       style="font-weight:bold;font-size:2px;line-height:1.25;font-family:Spleen;-inkscape-font-specification:'Comfortaa Bold';fill:#d40000;stroke-width:0.00351781"
       id="path57663"
       inkscape:export-filename="/Users/tenzin/Downloads/OhioBSDlogoText.png"
       inkscape:export-xdpi="205.97238"
       inkscape:export-ydpi="205.97238" />
    <path
       d="m 6.8224716,18.519988 q -0.034417,0 -0.058244,-0.02118 -0.02118,-0.02383 -0.02118,-0.05824 v -1.273437 q 0,-0.03706 0.02118,-0.05824 0.023827,-0.02118 0.058244,-0.02118 0.037065,0 0.058245,0.02118 0.02118,0.02118 0.02118,0.05824 v 1.273437 q 0,0.03442 -0.02118,0.05824 -0.02118,0.02118 -0.058245,0.02118 z m 1.1728328,0.635394 q -0.034417,0 -0.058244,-0.02118 -0.02118,-0.02383 -0.02118,-0.05824 V 18.36379 q 0,-0.174733 -0.068835,-0.288575 -0.066187,-0.113841 -0.182676,-0.169438 -0.1138415,-0.05824 -0.2594528,-0.05824 -0.1429638,0 -0.2568054,0.0556 -0.1138415,0.05295 -0.1800285,0.148259 -0.066187,0.09531 -0.066187,0.214446 H 6.7695221 q 0.01059,-0.164144 0.097957,-0.29387 0.087367,-0.132374 0.2276831,-0.206504 0.1403163,-0.07678 0.3097549,-0.07678 0.1906184,0 0.3415247,0.07942 0.1535537,0.07678 0.2409205,0.227683 0.087367,0.148259 0.087367,0.367999 v 0.712172 q 0,0.03442 -0.023827,0.05824 -0.02118,0.02118 -0.055598,0.02118 z m -1.1728328,0 q -0.034417,0 -0.058244,-0.02118 -0.02118,-0.02383 -0.02118,-0.05824 V 17.78664 q 0,-0.03706 0.02118,-0.05824 0.023827,-0.02118 0.058244,-0.02118 0.037065,0 0.058245,0.02118 0.02118,0.02118 0.02118,0.05824 v 1.289322 q 0,0.03442 -0.02118,0.05824 -0.02118,0.02118 -0.058245,0.02118 z"
       style="font-weight:bold;font-size:2px;line-height:1.25;font-family:Spleen;-inkscape-font-specification:'Comfortaa Bold';fill:#d40000;stroke-width:0.00351781"
       id="path57665"
       inkscape:export-filename="/Users/tenzin/Downloads/OhioBSDlogoText.png"
       inkscape:export-xdpi="205.97238"
       inkscape:export-ydpi="205.97238" />
    <path
       d="m 8.659366,19.155382 q -0.034417,0 -0.058245,-0.02118 -0.02118,-0.02383 -0.02118,-0.05824 V 17.78664 q 0,-0.03706 0.02118,-0.05824 0.023827,-0.02118 0.058245,-0.02118 0.037065,0 0.058245,0.02118 0.02118,0.02118 0.02118,0.05824 v 1.289322 q 0,0.03442 -0.02118,0.05824 -0.02118,0.02118 -0.058245,0.02118 z m -0.00265,-1.75263 q -0.050302,0 -0.087367,-0.03442 -0.034417,-0.03706 -0.034417,-0.09001 0,-0.06089 0.037065,-0.09001 0.039712,-0.03177 0.087367,-0.03177 0.045007,0 0.082072,0.03177 0.039712,0.02912 0.039712,0.09001 0,0.05295 -0.037065,0.09001 -0.034417,0.03442 -0.087367,0.03442 z"
       style="font-weight:bold;font-size:2px;line-height:1.25;font-family:Spleen;-inkscape-font-specification:'Comfortaa Bold';fill:#d40000;stroke-width:0.00351781"
       id="path57667"
       inkscape:export-filename="/Users/tenzin/Downloads/OhioBSDlogoText.png"
       inkscape:export-xdpi="205.97238"
       inkscape:export-ydpi="205.97238" />
    <path
       d="m 9.9282943,19.171267 q -0.2117983,0 -0.3812369,-0.09531 -0.1667911,-0.09796 -0.2647478,-0.264748 -0.095309,-0.169438 -0.095309,-0.378589 0,-0.211798 0.095309,-0.378589 0.097957,-0.169439 0.2647478,-0.264748 0.1694386,-0.09796 0.3812369,-0.09796 0.2117987,0 0.3785897,0.09796 0.166791,0.09531 0.2621,0.264748 0.09796,0.166791 0.09796,0.378589 0,0.209151 -0.09796,0.378589 -0.09531,0.166791 -0.2621,0.264748 -0.166791,0.09531 -0.3785897,0.09531 z m 0,-0.148258 q 0.1667917,0 0.2965177,-0.07678 0.132374,-0.07942 0.206504,-0.211799 0.07678,-0.135021 0.07678,-0.30446 0,-0.166791 -0.07678,-0.299165 -0.07413,-0.135021 -0.206504,-0.211798 -0.129726,-0.07942 -0.2965177,-0.07942 -0.1641437,0 -0.2965176,0.07942 -0.1323739,0.07678 -0.2091507,0.211798 -0.076777,0.132374 -0.076777,0.301813 0,0.166791 0.076777,0.301812 0.076777,0.132374 0.2091507,0.211799 0.1323739,0.07678 0.2965176,0.07678 z"
       style="font-weight:bold;font-size:2px;line-height:1.25;font-family:Spleen;-inkscape-font-specification:'Comfortaa Bold';fill:#d40000;stroke-width:0.00351781"
       id="path57669"
       inkscape:export-filename="/Users/tenzin/Downloads/OhioBSDlogoText.png"
       inkscape:export-xdpi="205.97238"
       inkscape:export-ydpi="205.97238" />
    <path
       d="m 11.195609,19.155382 q -0.04501,0 -0.07413,-0.01853 -0.02912,-0.02118 -0.02912,-0.06089 V 17.16713 q 0,-0.03706 0.02118,-0.05824 0.02383,-0.02118 0.05824,-0.02118 h 0.648632 q 0.148259,0 0.270043,0.06619 0.121784,0.06354 0.195913,0.177381 0.07413,0.111194 0.07413,0.256805 0,0.153554 -0.08207,0.270043 -0.07942,0.113842 -0.209151,0.172086 0.180029,0.0503 0.288575,0.185324 0.111194,0.135021 0.111194,0.338877 0,0.174733 -0.07942,0.312402 -0.07678,0.135022 -0.214446,0.211799 -0.137669,0.07678 -0.31505,0.07678 z m 0.0556,-0.158848 h 0.60892 q 0.132374,0 0.232978,-0.0556 0.100605,-0.05825 0.158849,-0.156202 0.05825,-0.100604 0.05825,-0.23033 0,-0.127079 -0.05825,-0.225036 -0.05824,-0.09796 -0.158849,-0.153553 -0.100604,-0.0556 -0.232978,-0.0556 h -0.60892 z m 0,-1.035164 h 0.569208 q 0.166791,0 0.27269,-0.100604 0.108547,-0.103252 0.108547,-0.272691 0,-0.164143 -0.108547,-0.25151 -0.105899,-0.09001 -0.27269,-0.09001 h -0.569211 z"
       style="font-weight:bold;font-size:2px;line-height:1.25;font-family:Spleen;-inkscape-font-specification:'Comfortaa Bold';fill:#d40000;stroke-width:0.00351781"
       id="path57671"
       inkscape:export-filename="/Users/tenzin/Downloads/OhioBSDlogoText.png"
       inkscape:export-xdpi="205.97238"
       inkscape:export-ydpi="205.97238" />
    <path
       d="m 13.500983,19.181857 q -0.166791,0 -0.307108,-0.04501 -0.137668,-0.04765 -0.238273,-0.132374 -0.100604,-0.08737 -0.158848,-0.203856 -0.01588,-0.03177 -0.0026,-0.06089 0.01588,-0.02912 0.0503,-0.03971 0.02912,-0.01059 0.05824,0.0026 0.02912,0.01324 0.04501,0.04236 0.04766,0.08472 0.124432,0.148259 0.07942,0.06354 0.185323,0.09796 0.108547,0.03177 0.243568,0.03177 0.150906,0 0.259453,-0.0503 0.111194,-0.0503 0.169438,-0.148258 0.06089,-0.09796 0.06089,-0.238273 0,-0.174734 -0.127079,-0.29387 -0.124431,-0.121784 -0.381236,-0.156202 -0.296518,-0.04236 -0.463309,-0.190618 -0.166791,-0.150906 -0.166791,-0.365352 0,-0.156201 0.07678,-0.27269 0.07942,-0.116489 0.21974,-0.180029 0.142964,-0.06619 0.328288,-0.06619 0.137668,0 0.254158,0.04501 0.116489,0.04501 0.203855,0.119137 0.08737,0.07148 0.135022,0.150906 0.01853,0.02912 0.0079,0.06354 -0.0079,0.03177 -0.04236,0.04501 -0.02912,0.01059 -0.05824,0.0026 -0.02912,-0.01059 -0.04765,-0.03706 -0.03706,-0.0556 -0.09531,-0.108547 -0.05824,-0.05295 -0.145611,-0.08737 -0.08737,-0.03442 -0.211798,-0.03442 -0.217094,0 -0.341525,0.09796 -0.124431,0.09796 -0.124431,0.277985 0,0.09531 0.0503,0.174733 0.05295,0.07678 0.164143,0.132374 0.111194,0.0556 0.28328,0.08472 0.341525,0.05824 0.489784,0.211798 0.150906,0.150906 0.150906,0.386532 0,0.137668 -0.04766,0.248863 -0.04501,0.111194 -0.132373,0.187971 -0.08472,0.07678 -0.203856,0.119136 -0.119137,0.03971 -0.264748,0.03971 z"
       style="font-weight:bold;font-size:2px;line-height:1.25;font-family:Spleen;-inkscape-font-specification:'Comfortaa Bold';fill:#d40000;stroke-width:0.00351781"
       id="path57673"
       inkscape:export-filename="/Users/tenzin/Downloads/OhioBSDlogoText.png"
       inkscape:export-xdpi="205.97238"
       inkscape:export-ydpi="205.97238" />
    <path
       d="m 14.66728,19.155382 q -0.03442,0 -0.05825,-0.02118 -0.02118,-0.02383 -0.02118,-0.05824 V 17.16713 q 0,-0.03706 0.02118,-0.05824 0.02383,-0.02118 0.05825,-0.02118 h 0.476546 q 0.227683,0 0.415654,0.07678 0.190618,0.07413 0.328287,0.214446 0.140317,0.137669 0.214446,0.325639 0.07678,0.187971 0.07678,0.415655 0,0.227683 -0.07678,0.418301 -0.07413,0.187971 -0.214446,0.328287 -0.137669,0.137669 -0.328287,0.214446 -0.187971,0.07413 -0.415654,0.07413 z m 0.07942,-0.142963 h 0.397126 q 0.256805,0 0.452719,-0.116489 0.198561,-0.116489 0.309755,-0.317698 0.113841,-0.201208 0.113841,-0.458013 0,-0.256806 -0.113841,-0.455367 -0.111194,-0.201208 -0.309755,-0.317697 -0.195914,-0.116489 -0.452719,-0.116489 h -0.397122 z"
       style="font-weight:bold;font-size:2px;line-height:1.25;font-family:Spleen;-inkscape-font-specification:'Comfortaa Bold';fill:#d40000;stroke-width:0.00351781"
       id="path57675"
       inkscape:export-filename="/Users/tenzin/Downloads/OhioBSDlogoText.png"
       inkscape:export-xdpi="205.97238"
       inkscape:export-ydpi="205.97238" />
    <path
       d="m 16.815061,19.155382 h -0.03309 -0.03309 -0.03309 v -0.03309 -0.03309 -0.03309 -0.03309 -0.03309 -0.03309 h 0.03309 0.03309 0.03309 0.03309 v 0.03309 0.03309 0.03309 0.03309 0.03309 0.03309 z"
       style="font-size:1.6px;line-height:1.25;font-family:'Spleen 32x64';-inkscape-font-specification:'Spleen 32x64, Normal';fill:#ffffff;stroke-width:0.00351781"
       id="path57677"
       inkscape:export-filename="/Users/tenzin/Downloads/OhioBSDlogoText.png"
       inkscape:export-xdpi="205.97238"
       inkscape:export-ydpi="205.97238" />
    <path
       d="m 17.938003,19.155382 h -0.03309 -0.03309 -0.03309 -0.03309 -0.03309 -0.03309 -0.03309 -0.03309 -0.03309 -0.03309 -0.03309 -0.03309 -0.03309 -0.03309 -0.03309 -0.03309 -0.03309 -0.03309 v -0.03309 h -0.03309 -0.03309 v -0.03309 h -0.03309 v -0.03309 h -0.03309 v -0.03309 -0.03309 h -0.03309 v -0.03309 -0.03309 -0.03309 -0.03309 -0.03309 -0.03309 -0.03309 -0.03309 -0.03309 -0.03309 -0.03309 -0.03309 -0.03309 -0.03309 -0.03309 -0.03309 -0.03309 -0.03309 h 0.03309 v -0.03309 -0.03309 h 0.03309 v -0.03309 h 0.03309 v -0.03309 h 0.03309 0.03309 v -0.03309 h 0.03309 0.03309 0.03309 0.03309 0.03309 0.03309 0.03309 0.03309 0.03309 0.03309 0.03309 0.03309 0.03309 0.03309 0.03309 0.03309 0.03309 0.03309 0.03309 v 0.03309 0.03309 0.03309 0.03309 h -0.03309 -0.03309 -0.03309 -0.03309 -0.03309 -0.03309 -0.03309 -0.03309 -0.03309 -0.03309 -0.03309 -0.03309 -0.03309 -0.03309 -0.03309 -0.03309 -0.03309 -0.03309 v 0.03309 h -0.03309 v 0.03309 h -0.03309 v 0.03309 0.03309 0.03309 0.03309 0.03309 0.03309 0.03309 0.03309 0.03309 0.03309 0.03309 0.03309 0.03309 0.03309 0.03309 0.03309 h 0.03309 v 0.03309 h 0.03309 v 0.03309 h 0.03309 0.03309 0.03309 0.03309 0.03309 0.03309 0.03309 0.03309 0.03309 0.03309 0.03309 0.03309 0.03309 0.03309 0.03309 0.03309 0.03309 0.03309 v 0.03309 0.03309 0.03309 0.03309 z"
       style="font-size:1.6px;line-height:1.25;font-family:'Spleen 32x64';-inkscape-font-specification:'Spleen 32x64, Normal';fill:#ffffff;stroke-width:0.00351781"
       id="path57679"
       inkscape:export-filename="/Users/tenzin/Downloads/OhioBSDlogoText.png"
       inkscape:export-xdpi="205.97238"
       inkscape:export-ydpi="205.97238" />
    <path
       d="m 18.778246,19.155382 h -0.03309 -0.03309 -0.03309 -0.03309 -0.03309 -0.03309 -0.03309 -0.03309 -0.03309 -0.03309 v -0.03309 h -0.03309 -0.03309 v -0.03309 h -0.03309 v -0.03309 h -0.03309 v -0.03309 -0.03309 h -0.03309 v -0.03309 -0.03309 -0.03309 -0.03309 -0.03309 -0.03309 -0.03309 -0.03309 -0.03309 -0.03309 -0.03309 -0.03309 -0.03309 -0.03309 -0.03309 -0.03309 -0.03309 -0.03309 -0.03309 -0.03309 -0.03309 -0.03309 -0.03309 -0.03309 -0.03309 -0.03309 -0.03309 -0.03309 -0.03309 -0.03309 -0.03309 -0.03309 -0.03309 -0.03309 -0.03309 h 0.03309 0.03309 0.03309 0.03309 v 0.03309 0.03309 0.03309 0.03309 0.03309 0.03309 0.03309 0.03309 0.03309 0.03309 0.03309 0.03309 0.03309 0.03309 0.03309 0.03309 0.03309 0.03309 0.03309 0.03309 0.03309 0.03309 0.03309 0.03309 0.03309 0.03309 0.03309 0.03309 0.03309 0.03309 0.03309 0.03309 0.03309 0.03309 h 0.03309 v 0.03309 h 0.03309 v 0.03309 h 0.03309 0.03309 0.03309 0.03309 0.03309 0.03309 0.03309 0.03309 0.03309 0.03309 v 0.03309 0.03309 0.03309 0.03309 z"
       style="font-size:1.6px;line-height:1.25;font-family:'Spleen 32x64';-inkscape-font-specification:'Spleen 32x64, Normal';fill:#ffffff;stroke-width:0.00351781"
       id="path57681"
       inkscape:export-filename="/Users/tenzin/Downloads/OhioBSDlogoText.png"
       inkscape:export-xdpi="205.97238"
       inkscape:export-ydpi="205.97238" />
    <path
       d="m 19.565908,19.155382 h -0.03309 -0.03309 -0.03309 -0.03309 -0.03309 -0.03309 -0.03309 -0.03309 -0.03309 -0.03309 -0.03309 -0.03309 -0.03309 v -0.03309 h -0.03309 -0.03309 v -0.03309 h -0.03309 v -0.03309 h -0.03309 v -0.03309 -0.03309 h -0.03309 v -0.03309 -0.03309 -0.03309 -0.03309 -0.03309 -0.03309 -0.03309 -0.03309 -0.03309 -0.03309 -0.03309 -0.03309 -0.03309 -0.03309 -0.03309 -0.03309 -0.03309 -0.03309 h 0.03309 v -0.03309 -0.03309 h 0.03309 v -0.03309 h 0.03309 v -0.03309 h 0.03309 0.03309 v -0.03309 h 0.03309 0.03309 0.03309 0.03309 0.03309 0.03309 0.03309 0.03309 0.03309 0.03309 0.03309 0.03309 0.03309 0.03309 v 0.03309 h 0.03309 0.03309 v 0.03309 h 0.03309 v 0.03309 h 0.03309 v 0.03309 0.03309 h 0.03309 v 0.03309 0.03309 0.03309 0.03309 0.03309 0.03309 0.03309 0.03309 0.03309 0.03309 0.03309 0.03309 0.03309 0.03309 0.03309 0.03309 0.03309 0.03309 h -0.03309 v 0.03309 0.03309 h -0.03309 v 0.03309 h -0.03309 v 0.03309 h -0.03309 -0.03309 v 0.03309 z m -0.03309,-0.132373 h 0.03309 v -0.03309 h 0.03309 v -0.03309 h 0.03309 v -0.03309 -0.03309 -0.03309 -0.03309 -0.03309 -0.03309 -0.03309 -0.03309 -0.03309 -0.03309 -0.03309 -0.03309 -0.03309 -0.03309 -0.03309 -0.03309 h -0.03309 v -0.03309 h -0.03309 v -0.03309 h -0.03309 -0.03309 -0.03309 -0.03309 -0.03309 -0.03309 -0.03309 -0.03309 -0.03309 -0.03309 -0.03309 -0.03309 v 0.03309 h -0.03309 v 0.03309 h -0.03309 v 0.03309 0.03309 0.03309 0.03309 0.03309 0.03309 0.03309 0.03309 0.03309 0.03309 0.03309 0.03309 0.03309 0.03309 0.03309 0.03309 h 0.03309 v 0.03309 h 0.03309 v 0.03309 h 0.03309 0.03309 0.03309 0.03309 0.03309 0.03309 0.03309 0.03309 0.03309 0.03309 z"
       style="font-size:1.6px;line-height:1.25;font-family:'Spleen 32x64';-inkscape-font-specification:'Spleen 32x64, Normal';fill:#ffffff;stroke-width:0.00351781"
       id="path57683"
       inkscape:export-filename="/Users/tenzin/Downloads/OhioBSDlogoText.png"
       inkscape:export-xdpi="205.97238"
       inkscape:export-ydpi="205.97238" />
    <path
       d="m 20.714085,19.155382 h -0.03309 -0.03309 -0.03309 -0.03309 -0.03309 -0.03309 -0.03309 -0.03309 -0.03309 -0.03309 -0.03309 -0.03309 -0.03309 -0.03309 -0.03309 -0.03309 -0.03309 -0.03309 -0.03309 v -0.03309 h -0.03309 v -0.03309 h -0.03309 v -0.03309 h -0.03309 v -0.03309 h -0.03309 v -0.03309 -0.03309 -0.03309 -0.03309 -0.03309 -0.03309 -0.03309 -0.03309 -0.03309 -0.03309 -0.03309 -0.03309 -0.03309 -0.03309 -0.03309 -0.03309 -0.03309 -0.03309 -0.03309 -0.03309 -0.03309 -0.03309 -0.03309 -0.03309 h 0.03309 0.03309 0.03309 0.03309 v 0.03309 0.03309 0.03309 0.03309 0.03309 0.03309 0.03309 0.03309 0.03309 0.03309 0.03309 0.03309 0.03309 0.03309 0.03309 0.03309 0.03309 0.03309 0.03309 0.03309 0.03309 0.03309 h 0.03309 v 0.03309 h 0.03309 v 0.03309 h 0.03309 0.03309 0.03309 0.03309 0.03309 0.03309 0.03309 0.03309 0.03309 0.03309 0.03309 0.03309 0.03309 0.03309 v -0.03309 -0.03309 -0.03309 -0.03309 -0.03309 -0.03309 -0.03309 -0.03309 -0.03309 -0.03309 -0.03309 -0.03309 -0.03309 -0.03309 -0.03309 -0.03309 -0.03309 -0.03309 -0.03309 -0.03309 -0.03309 -0.03309 -0.03309 -0.03309 h 0.03309 0.03309 0.03309 0.03309 v 0.03309 0.03309 0.03309 0.03309 0.03309 0.03309 0.03309 0.03309 0.03309 0.03309 0.03309 0.03309 0.03309 0.03309 0.03309 0.03309 0.03309 0.03309 0.03309 0.03309 0.03309 0.03309 0.03309 0.03309 0.03309 0.03309 0.03309 0.03309 z"
       style="font-size:1.6px;line-height:1.25;font-family:'Spleen 32x64';-inkscape-font-specification:'Spleen 32x64, Normal';fill:#ffffff;stroke-width:0.00351781"
       id="path57685"
       inkscape:export-filename="/Users/tenzin/Downloads/OhioBSDlogoText.png"
       inkscape:export-xdpi="205.97238"
       inkscape:export-ydpi="205.97238" />
    <path
       d="m 21.696795,19.155382 h -0.03309 -0.03309 -0.03309 -0.03309 -0.03309 -0.03309 -0.03309 -0.03309 -0.03309 -0.03309 -0.03309 -0.03309 -0.03309 -0.03309 -0.03309 -0.03309 -0.03309 -0.03309 v -0.03309 h -0.03309 -0.03309 v -0.03309 h -0.03309 v -0.03309 h -0.03309 v -0.03309 -0.03309 h -0.03309 v -0.03309 -0.03309 -0.03309 -0.03309 -0.03309 -0.03309 -0.03309 -0.03309 -0.03309 -0.03309 -0.03309 -0.03309 -0.03309 -0.03309 -0.03309 -0.03309 -0.03309 -0.03309 h 0.03309 v -0.03309 -0.03309 h 0.03309 v -0.03309 h 0.03309 v -0.03309 h 0.03309 0.03309 v -0.03309 h 0.03309 0.03309 0.03309 0.03309 0.03309 0.03309 0.03309 0.03309 0.03309 0.03309 0.03309 0.03309 0.03309 0.03309 0.03309 v -0.03309 -0.03309 -0.03309 -0.03309 -0.03309 -0.03309 -0.03309 -0.03309 -0.03309 -0.03309 -0.03309 -0.03309 h 0.03309 0.03309 0.03309 0.03309 v 0.03309 0.03309 0.03309 0.03309 0.03309 0.03309 0.03309 0.03309 0.03309 0.03309 0.03309 0.03309 0.03309 0.03309 0.03309 0.03309 0.03309 0.03309 0.03309 0.03309 0.03309 0.03309 0.03309 0.03309 0.03309 0.03309 0.03309 0.03309 0.03309 0.03309 0.03309 0.03309 0.03309 0.03309 0.03309 0.03309 0.03309 0.03309 0.03309 0.03309 z m -0.132374,-0.132373 h 0.03309 v -0.03309 -0.03309 -0.03309 -0.03309 -0.03309 -0.03309 -0.03309 -0.03309 -0.03309 -0.03309 -0.03309 -0.03309 -0.03309 -0.03309 -0.03309 -0.03309 -0.03309 -0.03309 -0.03309 -0.03309 h -0.03309 -0.03309 -0.03309 -0.03309 -0.03309 -0.03309 -0.03309 -0.03309 -0.03309 -0.03309 -0.03309 -0.03309 -0.03309 -0.03309 v 0.03309 h -0.03309 v 0.03309 h -0.03309 v 0.03309 0.03309 0.03309 0.03309 0.03309 0.03309 0.03309 0.03309 0.03309 0.03309 0.03309 0.03309 0.03309 0.03309 0.03309 0.03309 h 0.03309 v 0.03309 h 0.03309 v 0.03309 h 0.03309 0.03309 0.03309 0.03309 0.03309 0.03309 0.03309 0.03309 0.03309 0.03309 0.03309 0.03309 z"
       style="font-size:1.6px;line-height:1.25;font-family:'Spleen 32x64';-inkscape-font-specification:'Spleen 32x64, Normal';fill:#ffffff;stroke-width:0.00351781"
       id="path57687"
       inkscape:export-filename="/Users/tenzin/Downloads/OhioBSDlogoText.png"
       inkscape:export-xdpi="205.97238"
       inkscape:export-ydpi="205.97238" />
    <g
       id="g37419"
       transform="translate(-20.828644,-25.631894)">
      <path
         d="m 1.3266921,19.668728 q -0.2959366,0 -0.5442513,-0.102047 -0.2483146,-0.102047 -0.4319993,-0.28233 -0.1802833,-0.183685 -0.2789288,-0.431999 -0.098646,-0.251717 -0.098646,-0.547653 0,-0.295937 0.098646,-0.544251 0.098645,-0.248315 0.2789288,-0.428598 0.1836847,-0.183685 0.4319994,-0.285732 0.2483146,-0.102047 0.5442512,-0.102047 0.2959366,0 0.5408496,0.102047 0.2483146,0.102047 0.4319994,0.285732 0.1836848,0.180283 0.2823303,0.428598 0.098646,0.248314 0.098646,0.544251 0,0.295936 -0.098646,0.547653 -0.098645,0.248314 -0.2823303,0.431999 -0.1836848,0.180283 -0.4319994,0.28233 -0.244913,0.102047 -0.5408496,0.102047 z m 0,-0.272125 q 0.2313067,0 0.4251962,-0.08164 0.1972911,-0.08504 0.340157,-0.231307 0.1462675,-0.149669 0.2245037,-0.34696 0.078236,-0.200692 0.078236,-0.431999 0,-0.231307 -0.078236,-0.428598 -0.078236,-0.200693 -0.2245037,-0.34696 -0.1428659,-0.149669 -0.340157,-0.231307 -0.1938895,-0.08164 -0.4251962,-0.08164 -0.2313068,0 -0.4285979,0.08164 -0.197291,0.08164 -0.340157,0.231307 -0.1428659,0.146267 -0.2245036,0.34696 -0.078236,0.197291 -0.078236,0.428598 0,0.231307 0.078236,0.431999 0.081638,0.197291 0.2245036,0.34696 0.142866,0.146268 0.340157,0.231307 0.1972911,0.08164 0.4285979,0.08164 z"
         style="font-weight:500;font-size:3.40157px;line-height:1.25;font-family:Comfortaa;-inkscape-font-specification:'Comfortaa Medium';stroke-width:0.0531496"
         id="path18462" />
      <path
         d="m 3.0467996,18.899974 q -0.068031,0 -0.1088502,-0.04082 -0.037417,-0.04082 -0.037417,-0.102047 v -1.632754 q 0,-0.06803 0.037417,-0.105449 0.040819,-0.04082 0.1088502,-0.04082 0.06463,0 0.1020471,0.04082 0.040819,0.03742 0.040819,0.105449 v 1.632754 q 0,0.06123 -0.040819,0.102047 -0.037417,0.04082 -0.1020471,0.04082 z m 1.4422657,0.734739 q -0.06463,0 -0.1054486,-0.04082 -0.040819,-0.04082 -0.040819,-0.102047 v -0.867401 q 0,-0.207495 -0.078236,-0.336755 -0.074835,-0.132661 -0.2074958,-0.197291 -0.1326612,-0.06803 -0.3027397,-0.06803 -0.1598738,0 -0.2891335,0.06463 -0.1258581,0.06123 -0.2006926,0.170079 -0.074835,0.105449 -0.074835,0.244913 H 2.9923745 q 0.0068,-0.214299 0.1122518,-0.380976 0.1088502,-0.170078 0.2891335,-0.268724 0.1802832,-0.09865 0.4013852,-0.09865 0.2381099,0 0.4251963,0.102047 0.1904879,0.09865 0.2993382,0.292535 0.1122518,0.193889 0.1122518,0.476219 v 0.867401 q 0,0.06123 -0.040819,0.102047 -0.040819,0.04082 -0.1020471,0.04082 z m -1.4422657,0 q -0.068031,0 -0.1088502,-0.03742 -0.037417,-0.04082 -0.037417,-0.105448 v -1.571526 q 0,-0.06803 0.037417,-0.105448 0.040819,-0.04082 0.1088502,-0.04082 0.06463,0 0.1020471,0.04082 0.040819,0.03742 0.040819,0.105448 v 1.571526 q 0,0.06463 -0.040819,0.105448 -0.037417,0.03742 -0.1020471,0.03742 z"
         style="font-weight:500;font-size:3.40157px;line-height:1.25;font-family:Comfortaa;-inkscape-font-specification:'Comfortaa Medium';stroke-width:0.0531496"
         id="path18464" />
      <path
         d="m 5.1182984,19.634713 q -0.06463,0 -0.1054487,-0.03742 -0.040819,-0.04082 -0.040819,-0.10885 v -1.568124 q 0,-0.06803 0.040819,-0.105448 0.040819,-0.04082 0.1054487,-0.04082 0.06463,0 0.1020471,0.04082 0.040819,0.03742 0.040819,0.105448 v 1.568124 q 0,0.06803 -0.040819,0.10885 -0.037417,0.03742 -0.1020471,0.03742 z m -0.0034,-2.197415 q -0.081638,0 -0.1394643,-0.05783 -0.057827,-0.06123 -0.057827,-0.142866 0,-0.08504 0.057827,-0.139465 0.061228,-0.05443 0.1394643,-0.05443 0.078236,0 0.1360628,0.05443 0.061228,0.05443 0.061228,0.139465 0,0.08164 -0.057827,0.142866 -0.057827,0.05783 -0.1394638,0.05783 z"
         style="font-weight:500;font-size:3.40157px;line-height:1.25;font-family:Comfortaa;-inkscape-font-specification:'Comfortaa Medium';stroke-width:0.0531496"
         id="path18466" />
      <path
         d="m 6.4679533,19.651721 q -0.2755272,0 -0.4898261,-0.122457 Q 5.7672298,19.406808 5.6447733,19.192509 5.5223168,18.97821 5.5223168,18.706084 q 0,-0.275527 0.1224565,-0.489826 0.1224565,-0.214299 0.3333539,-0.336755 0.2142989,-0.122457 0.4898261,-0.122457 0.2721256,0 0.4830229,0.122457 0.2108974,0.122456 0.3333539,0.336755 0.1224565,0.214299 0.1258581,0.489826 0,0.272126 -0.1224565,0.486425 -0.1224566,0.214299 -0.3367555,0.336755 -0.2108973,0.122457 -0.4830229,0.122457 z m 0,-0.25852 q 0.1904879,0 0.340157,-0.08844 0.1496691,-0.09184 0.2347083,-0.244913 0.085039,-0.156472 0.085039,-0.353763 0,-0.197291 -0.085039,-0.353763 -0.085039,-0.156472 -0.2347083,-0.244913 -0.1496691,-0.09184 -0.340157,-0.09184 -0.1904879,0 -0.3435586,0.09184 -0.1496691,0.08844 -0.2381099,0.244913 -0.085039,0.156472 -0.085039,0.353763 0,0.197291 0.085039,0.353763 0.088441,0.153071 0.2381099,0.244913 0.1530707,0.08844 0.3435586,0.08844 z"
         style="font-weight:500;font-size:3.40157px;line-height:1.25;font-family:Comfortaa;-inkscape-font-specification:'Comfortaa Medium';stroke-width:0.0531496"
         id="path18468" />
      <path
         d="m 13.928949,19.689138 q -0.08504,0 -0.146267,-0.06123 -0.06123,-0.06123 -0.06123,-0.146268 0,-0.09184 0.06123,-0.153071 0.06463,-0.06123 0.146267,-0.06123 0.08844,0 0.14967,0.06463 0.06123,0.06123 0.06123,0.149669 0,0.08164 -0.06123,0.146268 -0.05783,0.06123 -0.14967,0.06123 z"
         style="font-weight:500;font-size:3.40157px;line-height:1.25;font-family:Comfortaa;-inkscape-font-specification:'Comfortaa Medium';stroke-width:0.0531496"
         id="path18476" />
      <path
         d="m 15.261843,19.651721 q -0.268724,0 -0.479622,-0.122457 -0.210897,-0.125858 -0.333354,-0.340157 -0.119055,-0.214299 -0.119055,-0.483023 0,-0.272125 0.115654,-0.486424 0.119055,-0.214299 0.319747,-0.336756 0.204095,-0.125858 0.469417,-0.125858 0.204094,0 0.377574,0.08164 0.17348,0.07824 0.306142,0.23811 0.04082,0.04762 0.02721,0.09865 -0.0102,0.04762 -0.06123,0.08504 -0.04082,0.02721 -0.09184,0.02041 -0.04762,-0.01021 -0.08844,-0.05443 -0.187087,-0.210898 -0.469417,-0.210898 -0.187086,0 -0.329952,0.08844 -0.139465,0.08844 -0.217701,0.244913 -0.07824,0.153071 -0.07824,0.357165 0,0.197291 0.08164,0.353763 0.08504,0.153071 0.231307,0.244913 0.149669,0.08844 0.340157,0.08844 0.129259,0 0.231306,-0.03401 0.105449,-0.03402 0.187087,-0.105449 0.04762,-0.03742 0.09524,-0.04082 0.04762,-0.0034 0.08844,0.02721 0.04422,0.04082 0.05102,0.09184 0.0068,0.05102 -0.03402,0.09184 -0.248314,0.227906 -0.619085,0.227906 z"
         style="font-weight:500;font-size:3.40157px;line-height:1.25;font-family:Comfortaa;-inkscape-font-specification:'Comfortaa Medium';stroke-width:0.0531496"
         id="path18478" />
      <path
         d="m 16.732355,19.634713 q -0.142866,0 -0.251716,-0.07484 -0.10885,-0.07824 -0.170079,-0.214299 -0.06123,-0.136062 -0.06123,-0.312944 v -1.911683 q 0,-0.06463 0.03742,-0.102047 0.04082,-0.04082 0.105449,-0.04082 0.06123,0 0.09865,0.04082 0.04082,0.03742 0.04082,0.102047 v 1.911683 q 0,0.139464 0.05442,0.231307 0.05783,0.08844 0.146268,0.08844 h 0.08504 q 0.05442,0 0.08844,0.04082 0.03402,0.03742 0.03402,0.09865 0,0.06463 -0.05102,0.105448 -0.04762,0.03742 -0.125858,0.03742 z"
         style="font-weight:500;font-size:3.40157px;line-height:1.25;font-family:Comfortaa;-inkscape-font-specification:'Comfortaa Medium';stroke-width:0.0531496"
         id="path18480" />
      <path
         d="m 17.983695,19.651721 q -0.275527,0 -0.489826,-0.122457 -0.210898,-0.122456 -0.333354,-0.336755 -0.122457,-0.214299 -0.122457,-0.486425 0,-0.275527 0.122457,-0.489826 0.122456,-0.214299 0.333354,-0.336755 0.214299,-0.122457 0.489826,-0.122457 0.272125,0 0.483023,0.122457 0.210897,0.122456 0.333354,0.336755 0.122456,0.214299 0.125858,0.489826 0,0.272126 -0.122457,0.486425 -0.122456,0.214299 -0.336755,0.336755 -0.210898,0.122457 -0.483023,0.122457 z m 0,-0.25852 q 0.190488,0 0.340157,-0.08844 0.149669,-0.09184 0.234708,-0.244913 0.08504,-0.156472 0.08504,-0.353763 0,-0.197291 -0.08504,-0.353763 -0.08504,-0.156472 -0.234708,-0.244913 -0.149669,-0.09184 -0.340157,-0.09184 -0.190488,0 -0.343559,0.09184 -0.149669,0.08844 -0.23811,0.244913 -0.08504,0.156472 -0.08504,0.353763 0,0.197291 0.08504,0.353763 0.08844,0.153071 0.23811,0.244913 0.153071,0.08844 0.343559,0.08844 z"
         style="font-weight:500;font-size:3.40157px;line-height:1.25;font-family:Comfortaa;-inkscape-font-specification:'Comfortaa Medium';stroke-width:0.0531496"
         id="path18482" />
      <path
         d="m 20.036501,19.655122 q -0.241512,0 -0.431999,-0.09864 -0.187087,-0.102047 -0.295937,-0.295937 -0.10885,-0.193889 -0.10885,-0.47622 v -0.8674 q 0,-0.06123 0.04082,-0.102047 0.04082,-0.04082 0.102047,-0.04082 0.06123,0 0.102047,0.04082 0.04082,0.04082 0.04082,0.102047 v 0.8674 q 0,0.207496 0.07824,0.340157 0.07824,0.12926 0.210897,0.197291 0.132661,0.06463 0.299338,0.06463 0.159874,0 0.289134,-0.06123 0.129259,-0.06463 0.204094,-0.170079 0.07483,-0.10885 0.07483,-0.248314 h 0.19389 q -0.0068,0.214299 -0.112252,0.384377 -0.105449,0.166677 -0.285732,0.265323 -0.180283,0.09864 -0.401385,0.09864 z m 0.748345,-0.02041 q -0.06463,0 -0.105448,-0.03742 -0.03742,-0.04082 -0.03742,-0.10885 v -1.571525 q 0,-0.06463 0.03742,-0.102047 0.04082,-0.04082 0.105448,-0.04082 0.06463,0 0.105449,0.04082 0.04082,0.03742 0.04082,0.102047 v 1.571525 q 0,0.06803 -0.04082,0.10885 -0.04082,0.03742 -0.105449,0.03742 z"
         style="font-weight:500;font-size:3.40157px;line-height:1.25;font-family:Comfortaa;-inkscape-font-specification:'Comfortaa Medium';stroke-width:0.0531496"
         id="path18484" />
      <path
         d="m 22.133408,19.651721 q -0.268724,0 -0.483023,-0.122457 -0.214298,-0.125858 -0.340157,-0.340157 -0.122456,-0.214299 -0.122456,-0.486424 0,-0.268724 0.119055,-0.483023 0.119055,-0.214299 0.323149,-0.336756 0.204094,-0.125858 0.462614,-0.125858 0.221102,0 0.397983,0.09524 0.180284,0.09184 0.292535,0.244913 V 17.12435 q 0,-0.06803 0.04082,-0.105449 0.04422,-0.04082 0.105449,-0.04082 0.06463,0 0.105449,0.04082 0.04082,0.03742 0.04082,0.105449 v 1.588533 q -0.0068,0.265323 -0.132661,0.479622 -0.122456,0.210897 -0.333354,0.336755 -0.210897,0.122457 -0.47622,0.122457 z m 0,-0.25852 q 0.190488,0 0.336756,-0.09184 0.149669,-0.09184 0.234708,-0.244913 0.08844,-0.156472 0.08844,-0.353763 0,-0.19389 -0.08844,-0.350362 -0.08504,-0.156472 -0.234708,-0.244913 -0.146268,-0.09184 -0.336756,-0.09184 -0.187086,0 -0.340157,0.09184 -0.149669,0.08844 -0.238109,0.244913 -0.08844,0.156472 -0.08844,0.350362 0,0.197291 0.08844,0.353763 0.08844,0.153071 0.238109,0.244913 0.153071,0.09184 0.340157,0.09184 z"
         style="font-weight:500;font-size:3.40157px;line-height:1.25;font-family:Comfortaa;-inkscape-font-specification:'Comfortaa Medium';stroke-width:0.0531496"
         id="path18486" />
      <path
         d="m 8.7272681,18.112587 q 0.286744,0.01662 0.469596,0.199474 0.182852,0.182852 0.182852,0.531933 0,0.374014 -0.249344,0.573489 -0.245187,0.199475 -0.698161,0.199475 H 7.6675589 v -2.834202 h 0.6025792 q 0.465441,0 0.714784,0.178696 0.253499,0.174541 0.253499,0.523621 0,0.274278 -0.137139,0.432195 -0.132983,0.153762 -0.374014,0.195319 z m -0.914259,-1.196848 v 1.142823 h 0.673227 q 0.274277,0 0.43635,-0.153761 0.166229,-0.153762 0.166229,-0.415572 0,-0.57349 -0.802054,-0.57349 z m 0.623358,2.568235 q 0.378171,0 0.585957,-0.157917 0.207786,-0.162073 0.207786,-0.482063 0,-0.328302 -0.199475,-0.494531 -0.195319,-0.166229 -0.523621,-0.166229 h -0.694005 v 1.30074 z"
         style="font-weight:200;font-size:4.15572px;line-height:1.25;font-family:'Fira Sans';-inkscape-font-specification:'Fira Sans, Ultra-Light';stroke-width:0.0649331"
         id="path18406" />
      <path
         d="m 10.484937,16.737043 q 0.249343,0 0.423883,0.0748 0.17454,0.0748 0.344925,0.228565 l -0.09143,0.09974 q -0.157917,-0.141294 -0.311679,-0.20363 -0.153762,-0.06234 -0.361548,-0.06234 -0.295056,0 -0.469596,0.149606 -0.1745399,0.14545 -0.1745399,0.382326 0,0.166229 0.06649,0.274277 0.06649,0.108049 0.2119419,0.191164 0.149606,0.07896 0.411416,0.157917 0.290901,0.08727 0.461285,0.191163 0.174541,0.09974 0.257655,0.249343 0.08727,0.149606 0.08727,0.382327 0,0.236876 -0.112204,0.419727 -0.112205,0.182852 -0.315835,0.286745 -0.20363,0.09974 -0.461285,0.09974 -0.265966,0 -0.4737519,-0.08727 -0.207786,-0.09143 -0.394794,-0.257655 l 0.09558,-0.09974 q 0.166229,0.153762 0.3449249,0.232721 0.182851,0.07896 0.423883,0.07896 0.336614,0 0.540244,-0.178696 0.207786,-0.182852 0.207786,-0.48622 0,-0.195318 -0.07065,-0.31999 -0.06649,-0.128827 -0.220254,-0.216097 -0.149606,-0.08727 -0.423883,-0.170385 -0.295056,-0.09143 -0.465441,-0.191163 -0.1662289,-0.09974 -0.2451869,-0.23272 -0.0748,-0.132984 -0.0748,-0.324147 0,-0.187007 0.09558,-0.340769 0.09974,-0.153761 0.2784339,-0.241031 0.182851,-0.08727 0.415572,-0.08727 z"
         style="font-weight:200;font-size:4.15572px;line-height:1.25;font-family:'Fira Sans';-inkscape-font-specification:'Fira Sans, Ultra-Light';stroke-width:0.0649331"
         id="path18408" />
      <path
         d="m 12.242404,16.782756 q 0.552711,0 0.901791,0.299212 0.349081,0.299212 0.349081,1.088799 0,0.80621 -0.357392,1.1262 -0.357392,0.319991 -0.876857,0.319991 H 11.70216 v -2.834202 z m -0.394793,0.132983 v 2.568235 h 0.415572 q 0.469596,0 0.772964,-0.286744 0.303367,-0.290901 0.303367,-1.026463 0,-0.515309 -0.157917,-0.789587 -0.153762,-0.278433 -0.394794,-0.369859 -0.236876,-0.09558 -0.55271,-0.09558 z"
         style="font-weight:200;font-size:4.15572px;line-height:1.25;font-family:'Fira Sans';-inkscape-font-specification:'Fira Sans, Ultra-Light';stroke-width:0.0649331"
         id="path18410" />
    </g>
    <rect
       style="fill:#504416;fill-opacity:0;stroke:#504416;stroke-width:0.20185"
       id="rect978"
       width="26.483744"
       height="19.882336"
       x="-0.27183306"
       y="-0.20858775"
       ry="0" />
    <path
       style="fill:#d40000;stroke:none;stroke-width:0.05px;stroke-linecap:butt;stroke-linejoin:miter;stroke-opacity:1"
       d="m 0.0071998,-0.0367007 v 0.057288 L 5.1380575,2.5697029 23.900123,4.720507 26.0072,2.9632985 Z"
       id="path1930" />
    <path
       style="fill:#d40000;stroke:none;stroke-width:0.05px;stroke-linecap:butt;stroke-linejoin:miter;stroke-opacity:1"
       d="m -2e-7,15.999999 v -0.05729 L 5.1308575,13.393595 23.892923,11.242791 26,13 Z"
       id="path1930-5" />
    <path
       id="path25"
       style="fill:#0000ff;stroke-width:20"
       d="M 0,0 V 320 L 320,160 Z m 49.673828,38.386719 5.767578,6.638672 8.228516,-3.103516 -4.529297,7.537109 5.492187,6.869141 -8.568359,-1.980469 -4.833984,7.345703 -0.763672,-8.759765 -8.482422,-2.326172 8.095703,-3.435547 z m -23.058594,21.826172 -1.746093,8.61914 7.474609,4.63086 -8.736328,1.003906 -2.095703,8.541015 -3.654297,-8 -8.7695314,0.646485 6.4785154,-5.947266 -3.326172,-8.140625 7.658204,4.324219 z m 68.13086,8.699218 3.25,8.171875 8.791016,-0.207031 -6.76758,5.615235 2.91406,8.296874 -7.431637,-4.701171 -6.990234,5.335937 2.173828,-8.521484 -7.234375,-4.998047 8.77539,-0.566406 z m 44.941406,9.476563 -1.22266,8.708984 7.74024,4.173828 -8.66016,1.527344 -1.57617,8.652342 -4.12891,-7.76367 -8.71679,1.173828 6.10937,-6.328125 -3.81054,-7.925781 7.90429,3.853516 z m -88.75,4.197266 6.833984,5.535156 7.564454,-4.484375 -3.152344,8.210937 6.601562,5.808594 -8.78125,-0.460938 -3.484375,8.074218 -2.27539,-8.496092 -8.75586,-0.81836 7.375,-4.789062 z M 98.884766,100 a 60,60 0 0 1 60.000004,60 60,60 0 0 1 -60.000004,60 60,60 0 0 1 -60,-60 60,60 0 0 1 60,-60 z m -66.47461,9.125 1.185547,8.71484 8.582031,1.91797 -7.921875,3.81836 0.828125,8.75586 -6.080078,-6.35351 -8.072265,3.49218 4.166015,-7.74609 -5.816406,-6.5957 8.652344,1.5664 z m 185.550784,18.71289 1.53711,8.6582 8.65234,1.56836 -7.75781,4.13672 1.18359,8.71485 -6.33398,-6.10157 -7.92188,3.81836 3.84571,-7.9082 -6.08008,-6.35352 8.70898,1.21289 z m -201.693362,20.22656 5.320313,7.00196 8.416015,-2.55664 -5.015625,7.22461 5.03125,7.21289 -8.419922,-2.53711 -5.304687,7.01367 -0.189453,-8.79297 -8.3105471,-2.87695 8.3027341,-2.89649 z m 245.447262,0.22266 0.20508,8.79101 8.31641,2.86133 -8.29688,2.91407 -0.15234,8.79296 -5.33399,-6.99023 -8.41015,2.57227 5,-7.23438 -5.04492,-7.20312 8.42578,2.52148 z m -80.18945,0.29492 0.19531,8.79102 8.31055,2.875 -8.30273,2.90039 -0.16407,8.79297 -5.32422,-7 -8.41406,2.56054 5.01172,-7.22656 -5.03516,-7.21094 8.42188,2.53321 z m 40.22266,20.53125 -1.22266,8.70899 7.74023,4.17382 -8.66015,1.52735 -1.57617,8.65234 -4.12891,-7.76562 -8.7168,1.17578 6.10938,-6.32813 -3.81055,-7.92578 7.9043,3.85352 z m -186.917972,17.77344 -0.914062,8.74609 7.882812,3.89844 -8.601562,1.83203 -1.271485,8.70117 -4.40039,-7.61328 -8.667969,1.48047 5.880859,-6.53906 -4.085937,-7.78711 8.035156,3.57422 z m 21.8125,27.98047 3.558594,8.04101 8.777344,-0.54297 -6.546875,5.86915 3.228515,8.17968 -7.605468,-4.41211 -6.78125,5.59766 1.845703,-8.59766 -7.419922,-4.71875 8.748047,-0.90039 z m 79.681642,3.61133 1.54492,8.6582 8.65625,1.55859 -7.75586,4.14453 1.19141,8.71485 -6.33985,-6.09571 -7.91797,3.82422 3.8379,-7.91211 -6.08594,-6.34765 8.71094,1.20508 z m -47.681642,10.27539 6.966797,5.36523 7.453125,-4.66602 -2.95117,8.28321 6.74414,5.64648 -8.791017,-0.24609 -3.287109,8.15625 -2.482422,-8.4375 -8.773438,-0.60352 7.257813,-4.96679 z m -67.160156,8.37109 2.042969,8.55469 8.730468,1.05469 -7.501953,4.58789 1.69336,8.6289 -6.679688,-5.71679 -7.683594,4.27734 3.373047,-8.1211 -6.4433591,-5.98632 8.7656251,0.69922 z m 29.763672,21.02344 4.841797,7.33984 8.566406,-1.98828 -5.484375,6.87305 4.539062,7.53125 -8.232422,-3.0918 -5.759765,6.64453 0.396484,-8.78515 -8.099609,-3.42383 8.478516,-2.33789 z"
       transform="scale(0.05)" />
    <path
       style="fill:none;stroke:#000008;stroke-width:0.10px;stroke-linecap:butt;stroke-linejoin:miter;stroke-opacity:1"
       d="m 0.0071998,-0.0367007 c -0.0024,5.3455667 -0.0048,10.6911327 -0.0072,16.0366997 8.6666672,-1 17.3333342,-2 26.0000012,-3 -1.998487,-1.679601 -3.996975,-3.359202 -5.995462,-5.038802 2.000897,-1.665966 4.001793,-3.331932 6.00269,-4.997898 -8.666667,-1 -17.333334,-1.9999997 -26.0000012,-2.9999997 z"
       id="path949-8" />
  </g>
</svg>
