<?xml version="1.0" encoding="UTF-8" standalone="no"?>
<!-- Created with Inkscape (http://www.inkscape.org/) -->

<svg
   width="200mm"
   height="40mm"
   viewBox="0 0 200 40"
   version="1.1"
   id="svg2746"
   inkscape:version="1.1.1 (c3084ef, 2021-09-22)"
   sodipodi:docname="OhioBSDcloud.svg"
   xmlns:inkscape="http://www.inkscape.org/namespaces/inkscape"
   xmlns:sodipodi="http://sodipodi.sourceforge.net/DTD/sodipodi-0.dtd"
   xmlns="http://www.w3.org/2000/svg"
   xmlns:svg="http://www.w3.org/2000/svg">
  <sodipodi:namedview
     id="namedview2748"
     pagecolor="#ffffff"
     bordercolor="#666666"
     borderopacity="1.0"
     inkscape:pageshadow="2"
     inkscape:pageopacity="0"
     inkscape:pagecheckerboard="false"
     inkscape:document-units="mm"
     showgrid="false"
     height="210mm"
     inkscape:zoom="0.55678311"
     inkscape:cx="193.07339"
     inkscape:cy="561.25984"
     inkscape:window-width="1312"
     inkscape:window-height="969"
     inkscape:window-x="0"
     inkscape:window-y="25"
     inkscape:window-maximized="0"
     inkscape:current-layer="layer1"
     width="200mm" />
  <defs
     id="defs2743" />
  <g
     inkscape:label="Layer 1"
     inkscape:groupmode="layer"
     id="layer1">
    <path
       class="st0"
       d="M 18.829744,37.524449 C 11.3718,37.123486 5.036568,31.690432 3.573043,24.453018 2.7911985,20.543601 3.452751,16.433729 5.437533,13.165862 5.59796,12.905255 5.738196,12.644637 5.738196,12.584507 c 0,-0.05992 -0.120289,-0.260617 -0.260617,-0.48117 C 4.655583,10.880391 3.613105,8.2741232 3.3324324,6.7705091 3.0917892,5.4874227 3.3723244,4.4649613 4.054129,4.1040976 c 0.481179,-0.24064 1.423433,-0.24064 2.265452,0.01998 1.343236,0.4210457 3.227762,1.3632781 4.711326,2.3857405 l 0.781842,0.5413067 0.721714,-0.3207517 C 16.082989,5.086423 20.172827,4.765643 24.002039,5.8281584 c 1.243001,0.340827 2.846852,1.0024024 3.769071,1.5637581 l 0.421032,0.260617 0.781845,-0.5212247 c 1.52367,-1.0024024 3.368107,-1.8043351 5.032103,-2.1852588 1.86449,-0.4210367 2.967142,-0.160428 3.448308,0.8019257 0.180387,0.3609077 0.200472,0.5212227 0.200472,1.4033731 0,0.5813607 -0.05992,1.2429904 -0.160427,1.6239041 -0.380878,1.6840551 -1.242981,3.6487861 -2.285491,5.2125301 l -0.581367,0.862058 0.160425,0.300682 c 0.300666,0.581352 0.781845,2.105054 0.982335,3.147576 1.102635,5.413014 -0.581368,10.80598 -4.530906,14.595102 -2.886947,2.766651 -6.415433,4.310347 -10.485232,4.591037 -0.68165,0.03959 -1.263035,0.08009 -1.32318,0.05992 -0.03989,0.02018 -0.320748,0 -0.601437,-0.02018 z m 2.967142,-0.701736 c 0.962354,-0.120294 2.666417,-0.541294 3.608687,-0.902207 3.829201,-1.463513 6.89658,-4.250219 8.600685,-7.818802 0.842081,-1.764251 1.263037,-3.267866 1.463512,-5.292737 C 35.67026,20.8242 35.30934,18.13773 34.607712,16.23315 l -0.200473,-0.501262 -0.220572,0.26062 c -0.340819,0.400961 -0.741784,0.561389 -1.523657,0.601451 -0.521238,0.02003 -0.88214,0 -1.423418,-0.140312 -2.365708,-0.601436 -4.310378,-2.305546 -5.032108,-4.43065 -0.300679,-0.882133 -0.340834,-2.0850177 -0.09981,-2.7265554 0.180408,-0.4411187 0.621537,-0.9022154 0.982335,-0.9823244 0.400961,-0.07991 0.641499,-0.20048 0.581351,-0.300668 C 27.59142,7.8731055 26.107598,7.1513928 25.145288,6.7905071 19.231072,4.5851993 12.394624,6.0887704 8.124336,10.559574 c -1.964709,2.064965 -3.28789,4.530889 -3.889344,7.257451 -0.621523,2.826801 -0.501264,5.372924 0.38088,8.17967 1.623892,5.092253 5.813979,9.061808 11.046559,10.425098 0.481177,0.120294 1.222943,0.280662 1.62391,0.340835 0.922186,0.140313 3.508447,0.180361 4.510851,0.05992 z M 18.569124,35.098584 C 12.955618,34.637487 8.605148,31.329513 6.459988,25.896431 6.038954,24.813844 5.617907,23.250065 5.457585,22.127374 5.156919,20.002264 5.938764,16.774488 7.38222,14.268452 8.284337,12.684651 9.828108,10.94046 11.231489,9.8779003 c 1.5838,-1.1828454 3.608671,-2.1251128 5.793927,-2.6864605 1.423416,-0.360908 1.764236,-0.3808777 0.922186,-0.03995 -2.546126,1.0424554 -4.450709,2.3055448 -6.094669,3.9895942 -2.225347,2.325599 -3.307946,5.092253 -3.087418,7.898998 0.07994,0.942272 0.09981,0.962356 0.581369,0.761882 0.862041,-0.360919 2.265453,-0.501262 3.187671,-0.280703 1.944672,0.461107 3.909397,2.085015 5.673636,4.731377 1.222944,1.804345 2.506035,2.606269 4.230178,2.606269 3.728978,0 7.939102,-4.230178 8.981611,-9.041753 0.0399,-0.220558 0.09981,-0.441011 0.140315,-0.661569 0.03989,-0.180406 0.07994,-0.180406 0.581351,-0.140314 0.300682,0.02003 0.601455,0.07994 0.681656,0.120291 0.140311,0.07994 0.400961,0.862058 0.641602,1.964726 0.09981,0.48118 0.140315,1.082601 0.140315,2.445889 0,1.563761 -0.02003,1.924635 -0.180389,2.666415 -0.280688,1.283074 -0.561392,2.105055 -1.182851,3.348051 -1.323185,2.706512 -3.548528,4.871726 -6.355288,6.194908 -1.623895,0.761864 -3.107476,1.162784 -4.951908,1.323181 -1.082615,0.120288 -1.222944,0.120288 -2.365691,0.02 z M 33.364715,15.451308 c 0.521237,-0.26062 0.862056,-0.621522 1.603853,-1.704094 C 36.99344,10.719928 37.83546,6.5899991 36.612532,5.5274427 35.710307,4.745601 33.605296,5.026187 31.039117,6.2893134 c -1.664001,0.8220014 -3.287909,2.0048258 -3.809161,2.7867002 -1.182853,1.7842984 0.260616,4.8516674 2.906997,6.1548114 1.122692,0.581352 2.365689,0.661581 3.227762,0.220558 z M 31.39999,15.110474 c -1.062564,-0.260605 -2.305559,-1.042449 -2.68647,-1.724144 -0.621522,-1.082602 0,-1.804343 2.886942,-3.3881507 3.869308,-2.1251048 4.33043,-2.4458848 4.570999,-3.1475665 0.07994,-0.2405327 0.20049,-0.4210447 0.260616,-0.4210447 0.160431,0 0.340835,0.7818417 0.280689,1.2429914 -0.140311,1.1227004 -0.902103,3.4482975 -1.563747,4.7714805 -0.461106,0.922186 -1.002416,1.704093 -1.523668,2.185256 -0.681654,0.621535 -1.202893,0.721714 -2.225361,0.481178 z M 6.319657,11.822573 c 0.09981,-0.140344 0.18039,-0.280688 0.18039,-0.300774 0,-0.03995 -0.120289,-0.240532 -0.26062,-0.441014 C 5.838465,10.499426 5.176883,9.0559096 4.836063,8.0334602 4.314825,6.4696891 4.234612,5.4472387 4.615491,5.3269507 4.93624,5.2270807 6.740599,6.3092731 8.745433,7.7728235 L 9.667619,8.4544769 10.329201,8.0134622 C 10.690103,7.7729295 10.99077,7.5523645 10.970683,7.5122075 10.950653,7.4123375 10.02843,6.6902061 9.046066,6.0286414 7.281829,4.845796 6.259361,4.4448343 5.196814,4.5250263 3.753342,4.6248963 3.512761,6.0286414 4.455015,8.8353899 4.695659,9.5570963 5.55767,11.381515 5.878448,11.882728 c 0.16043,0.240534 0.220575,0.240534 0.441028,-0.05993 z"
       id="path1768"
       sodipodi:nodetypes="cccsccccccccccccsscccccccccccccccccccccccccccccccccccccccccscccccsccccccccccccccccscscccscscccscccccc"
       style="display:inline;fill:#d40000;stroke-width:0.200483" />
    <path
       d="m 42.233884,27.451583 q -0.307633,0 -0.520593,-0.189312 -0.189312,-0.212994 -0.189312,-0.520559 V 15.359655 q 0,-0.331246 0.189312,-0.520559 0.21296,-0.189312 0.520593,-0.189312 0.33128,0 0.520592,0.189312 0.189313,0.189313 0.189313,0.520559 v 11.382057 q 0,0.30765 -0.189313,0.520559 -0.189312,0.189312 -0.520592,0.189312 z m 10.482857,5.679188 q -0.307633,0 -0.520593,-0.189312 -0.189312,-0.212993 -0.189312,-0.520542 v -6.365446 q 0,-1.561777 -0.615249,-2.579298 -0.591584,-1.01752 -1.632769,-1.514449 -1.017521,-0.520558 -2.31901,-0.520558 -1.277826,0 -2.295346,0.496962 -1.017521,0.473264 -1.609106,1.325136 -0.591584,0.85189 -0.591584,1.916739 h -1.183169 q 0.09459,-1.467121 0.875553,-2.626627 0.780897,-1.183169 2.035041,-1.845745 1.254162,-0.686275 2.768611,-0.686275 1.703761,0 3.052579,0.709871 1.372465,0.686258 2.153362,2.035042 0.780897,1.325153 0.780897,3.289202 v 6.365446 q 0,0.30765 -0.212977,0.520542 -0.189312,0.189312 -0.496928,0.189312 z m -10.482857,0 q -0.307633,0 -0.520593,-0.189312 -0.189312,-0.212993 -0.189312,-0.520542 V 20.896859 q 0,-0.331247 0.189312,-0.520542 0.21296,-0.189313 0.520593,-0.189313 0.33128,0 0.520592,0.189313 0.189313,0.189295 0.189313,0.520542 v 11.524058 q 0,0.30765 -0.189313,0.520542 -0.189312,0.189312 -0.520592,0.189312 z"
       style="font-weight:bold;font-size:2px;line-height:1.25;font-family:Spleen;-inkscape-font-specification:'Comfortaa Bold';display:inline;fill:#d40000;stroke-width:0.0314425"
       id="path57665"
       inkscape:export-filename="/Users/tenzin/Downloads/OhioBSDlogoText.png"
       inkscape:export-xdpi="205.97238"
       inkscape:export-ydpi="205.97238" />
    <path
       d="m 58.652163,33.130771 q -0.307616,0 -0.520592,-0.189312 -0.189313,-0.212993 -0.189313,-0.520542 V 20.896859 q 0,-0.331247 0.189313,-0.520542 0.212959,-0.189313 0.520592,-0.189313 0.33128,0 0.520592,0.189313 0.189313,0.189295 0.189313,0.520542 v 11.524058 q 0,0.30765 -0.189313,0.520542 -0.189312,0.189312 -0.520592,0.189312 z m -0.02365,-15.665116 q -0.449617,0 -0.780897,-0.30765 Q 57.54,16.826759 57.54,16.353478 q 0,-0.54424 0.33128,-0.804511 0.354944,-0.283968 0.780897,-0.283968 0.402272,0 0.733569,0.283968 0.354944,0.260271 0.354944,0.804511 0,0.473281 -0.331297,0.804527 -0.307616,0.30765 -0.78088,0.30765 z"
       style="font-weight:bold;font-size:2px;line-height:1.25;font-family:Spleen;-inkscape-font-specification:'Comfortaa Bold';display:inline;fill:#d40000;stroke-width:0.0314425"
       id="path57667"
       inkscape:export-filename="/Users/tenzin/Downloads/OhioBSDlogoText.png"
       inkscape:export-xdpi="205.97238"
       inkscape:export-ydpi="205.97238" />
    <path
       d="m 69.993919,33.272756 q -1.893057,0 -3.407506,-0.851889 -1.490802,-0.875571 -2.366339,-2.366339 -0.851872,-1.514449 -0.851872,-3.383859 0,-1.893057 0.851872,-3.383842 0.875537,-1.514466 2.366339,-2.366338 1.514449,-0.87557 3.407506,-0.87557 1.893074,0 3.383859,0.87557 1.490802,0.851889 2.342674,2.366338 0.87557,1.490785 0.87557,3.383842 0,1.86941 -0.87557,3.383859 -0.851889,1.490785 -2.342674,2.366339 -1.490785,0.851889 -3.383859,0.851889 z m 0,-1.325137 q 1.490802,0 2.650307,-0.686274 1.183169,-0.709855 1.845746,-1.893074 0.686257,-1.206817 0.686257,-2.721283 0,-1.490785 -0.686257,-2.673954 -0.662577,-1.206833 -1.845746,-1.893057 -1.159505,-0.709871 -2.650307,-0.709871 -1.467121,0 -2.65029,0.709871 -1.183169,0.686258 -1.869393,1.893057 -0.686241,1.183169 -0.686241,2.697618 0,1.490802 0.686241,2.697619 0.686224,1.183169 1.869393,1.893074 1.183169,0.686274 2.65029,0.686274 z"
       style="font-weight:bold;font-size:2px;line-height:1.25;font-family:Spleen;-inkscape-font-specification:'Comfortaa Bold';display:inline;fill:#d40000;stroke-width:0.0314425"
       id="path57669"
       inkscape:export-filename="/Users/tenzin/Downloads/OhioBSDlogoText.png"
       inkscape:export-xdpi="205.97238"
       inkscape:export-ydpi="205.97238" />
    <path
       d="m 81.321267,33.130771 q -0.402306,0 -0.662577,-0.165699 -0.260271,-0.189312 -0.260271,-0.544239 v -17.06128 q 0,-0.331246 0.189296,-0.520541 0.212993,-0.189313 0.520558,-0.189313 h 5.797526 q 1.325136,0 2.413649,0.591602 1.088513,0.567937 1.75109,1.585458 0.662577,0.993856 0.662577,2.295329 0,1.372482 -0.733552,2.413666 -0.709855,1.017521 -1.869393,1.538114 1.609105,0.449583 2.579298,1.656433 0.993856,1.206833 0.993856,3.028915 0,1.561777 -0.709854,2.792274 -0.686275,1.206834 -1.916738,1.893074 -1.230497,0.686258 -2.815939,0.686258 z m 0.496962,-1.419792 h 5.442564 q 1.18317,0 2.08237,-0.496963 0.899217,-0.520643 1.41981,-1.396145 0.520643,-0.899201 0.520643,-2.058706 0,-1.135841 -0.520643,-2.011377 -0.520559,-0.87557 -1.41981,-1.372465 -0.8992,-0.496962 -2.08237,-0.496962 h -5.442564 z m 0,-9.25236 h 5.08762 q 1.490785,0 2.437314,-0.899217 0.97021,-0.922865 0.97021,-2.437331 0,-1.467121 -0.97021,-2.248001 -0.946529,-0.804527 -2.437314,-0.804527 h -5.087654 z"
       style="font-weight:bold;font-size:2px;line-height:1.25;font-family:Spleen;-inkscape-font-specification:'Comfortaa Bold';display:inline;fill:#d40000;stroke-width:0.0314425"
       id="path57671"
       inkscape:export-filename="/Users/tenzin/Downloads/OhioBSDlogoText.png"
       inkscape:export-xdpi="205.97238"
       inkscape:export-ydpi="205.97238" />
    <path
       d="m 101.92686,33.367412 q -1.49079,0 -2.744955,-0.402306 -1.23048,-0.425902 -2.129698,-1.183169 -0.899217,-0.780914 -1.419793,-1.822082 -0.141883,-0.283952 -0.02331,-0.544239 0.141883,-0.260271 0.449583,-0.354928 0.260271,-0.09459 0.520559,0.02331 0.260271,0.118405 0.402289,0.378608 0.425987,0.757233 1.112194,1.325153 0.709854,0.567921 1.656416,0.875571 0.970215,0.283968 2.177035,0.283968 1.34883,0 2.31902,-0.449583 0.99388,-0.449583 1.51445,-1.325137 0.54424,-0.875587 0.54424,-2.129714 0,-1.561777 -1.13584,-2.626626 -1.11216,-1.088513 -3.40752,-1.396146 -2.650314,-0.378608 -4.141099,-1.703745 -1.490785,-1.348817 -1.490785,-3.265538 0,-1.396146 0.686257,-2.437331 0.709872,-1.041185 1.964067,-1.609105 1.27781,-0.591618 2.93427,-0.591618 1.23048,0 2.27169,0.402305 1.04119,0.402306 1.82207,1.064849 0.78091,0.638896 1.20683,1.348818 0.1657,0.260271 0.0706,0.56792 -0.0706,0.283969 -0.3786,0.402306 -0.26027,0.09459 -0.52056,0.02331 -0.26027,-0.09459 -0.4259,-0.331247 -0.33125,-0.496962 -0.85188,-0.970209 -0.52056,-0.473264 -1.30149,-0.780914 -0.78092,-0.30765 -1.89307,-0.30765 -1.940408,0 -3.052585,0.875571 -1.112177,0.87557 -1.112177,2.484658 0,0.851889 0.449584,1.561777 0.473281,0.686258 1.467121,1.183153 0.993857,0.496962 2.531997,0.757233 3.05257,0.520558 4.37773,1.893074 1.3488,1.3488 1.3488,3.454851 0,1.23048 -0.42599,2.224354 -0.40229,0.993856 -1.18315,1.680097 -0.75723,0.686258 -1.82208,1.064849 -1.06486,0.354927 -2.36636,0.354927 z"
       style="font-weight:bold;font-size:2px;line-height:1.25;font-family:Spleen;-inkscape-font-specification:'Comfortaa Bold';display:inline;fill:#d40000;stroke-width:0.0314425"
       id="path57673"
       inkscape:export-filename="/Users/tenzin/Downloads/OhioBSDlogoText.png"
       inkscape:export-xdpi="205.97238"
       inkscape:export-ydpi="205.97238" />
    <path
       d="m 112.35132,33.130771 q -0.30765,0 -0.52064,-0.189312 -0.18931,-0.212993 -0.18931,-0.520542 V 15.359638 q 0,-0.331246 0.18931,-0.520542 0.21299,-0.189312 0.52064,-0.189312 h 4.2594 q 2.03504,0 3.71513,0.686257 1.70377,0.662577 2.93426,1.916738 1.25417,1.230498 1.91672,2.910578 0.68628,1.680098 0.68628,3.715156 0,2.035042 -0.68628,3.738803 -0.66257,1.680098 -1.91672,2.934259 -1.23049,1.23048 -2.93426,1.916721 -1.68009,0.662577 -3.71513,0.662577 z m 0.70985,-1.277808 h 3.54955 q 2.29534,0 4.04643,-1.041185 1.77476,-1.041185 2.76861,-2.839619 1.01752,-1.798401 1.01752,-4.093747 0,-2.295346 -1.01752,-4.0701 -0.99385,-1.798401 -2.76861,-2.839586 -1.75109,-1.041201 -4.04643,-1.041201 h -3.54951 z"
       style="font-weight:bold;font-size:2px;line-height:1.25;font-family:Spleen;-inkscape-font-specification:'Comfortaa Bold';display:inline;fill:#d40000;stroke-width:0.0314425"
       id="path57675"
       inkscape:export-filename="/Users/tenzin/Downloads/OhioBSDlogoText.png"
       inkscape:export-xdpi="205.97238"
       inkscape:export-ydpi="205.97238" />
    <path
       d="m 131.54833,33.130771 h -0.29576 -0.29576 -0.29577 v -0.295758 -0.295759 -0.295758 -0.295759 -0.295775 -0.295758 h 0.29577 0.29576 0.29576 0.29576 v 0.295758 0.295775 0.295759 0.295758 0.295759 0.295758 z"
       style="font-size:1.6px;line-height:1.25;font-family:'Spleen 32x64';-inkscape-font-specification:'Spleen 32x64, Normal';display:inline;fill:#ffffff;stroke-width:0.0314425"
       id="path57677"
       inkscape:export-filename="/Users/tenzin/Downloads/OhioBSDlogoText.png"
       inkscape:export-xdpi="205.97238"
       inkscape:export-ydpi="205.97238" />
    <path
       d="m 141.58525,33.130771 h -0.29576 -0.29576 -0.29576 -0.29575 -0.29576 -0.29576 -0.29578 -0.29576 -0.29575 -0.29576 -0.29576 -0.29576 -0.29576 -0.29576 -0.29577 -0.29576 -0.29576 -0.29576 v -0.295758 h -0.29576 -0.29575 v -0.295759 h -0.29576 v -0.295758 h -0.29576 v -0.295759 -0.295775 h -0.29578 V 31.356204 31.060445 30.764687 30.468928 30.173169 29.877411 29.581652 29.285877 28.990119 28.69436 28.398602 28.102843 27.807085 27.511326 27.215568 26.919792 26.624034 26.328275 h 0.29578 v -0.295758 -0.295759 h 0.29576 V 25.441 h 0.29576 v -0.295759 h 0.29575 0.29576 v -0.295758 h 0.29576 0.29576 0.29576 0.29577 0.29576 0.29576 0.29576 0.29576 0.29576 0.29575 0.29576 0.29578 0.29576 0.29576 0.29575 0.29576 0.29576 0.29576 0.29576 v 0.295758 0.295759 0.295758 0.295759 h -0.29576 -0.29576 -0.29576 -0.29576 -0.29575 -0.29576 -0.29576 -0.29578 -0.29576 -0.29575 -0.29576 -0.29576 -0.29576 -0.29576 -0.29576 -0.29577 -0.29576 -0.29576 v 0.295758 h -0.29576 v 0.295759 h -0.29576 v 0.295758 0.295776 0.295758 0.295759 0.295758 0.295759 0.295758 0.295759 0.295758 0.295775 0.295759 0.295758 0.295759 0.295759 0.295758 0.295759 h 0.29576 v 0.295758 h 0.29576 v 0.295775 h 0.29576 0.29576 0.29577 0.29576 0.29576 0.29576 0.29576 0.29576 0.29575 0.29576 0.29578 0.29576 0.29576 0.29575 0.29576 0.29576 0.29576 0.29576 v 0.295759 0.295758 0.295759 0.295758 z"
       style="font-size:1.6px;line-height:1.25;font-family:'Spleen 32x64';-inkscape-font-specification:'Spleen 32x64, Normal';display:inline;fill:#ffffff;stroke-width:0.0314425"
       id="path57679"
       inkscape:export-filename="/Users/tenzin/Downloads/OhioBSDlogoText.png"
       inkscape:export-xdpi="205.97238"
       inkscape:export-ydpi="205.97238" />
    <path
       d="m 149.0954,33.130771 h -0.29575 -0.29576 -0.29576 -0.29578 -0.29576 -0.29575 -0.29576 -0.29576 -0.29576 -0.29576 v -0.295758 h -0.29576 -0.29577 v -0.295759 h -0.29576 v -0.295758 h -0.29576 v -0.295759 -0.295775 h -0.29576 V 31.356204 31.060445 30.764687 30.468928 30.173169 29.877411 29.581652 29.285877 28.990119 28.69436 28.398602 28.102843 27.807085 27.511326 27.215568 26.919792 26.624034 26.328275 26.032517 25.736758 25.441 25.145241 24.849483 24.553707 24.257949 23.96219 23.666432 23.370673 23.074915 22.779156 22.483398 22.187622 21.891864 21.596105 21.300347 h 0.29576 0.29576 0.29576 0.29577 v 0.295758 0.295759 0.295758 0.295776 0.295758 0.295759 0.295758 0.295759 0.295758 0.295759 0.295758 0.295776 0.295758 0.295759 0.295758 0.295759 0.295758 0.295759 0.295758 0.295776 0.295758 0.295759 0.295758 0.295759 0.295758 0.295759 0.295758 0.295775 0.295759 0.295758 0.295759 0.295759 0.295758 0.295759 h 0.29576 v 0.295758 h 0.29576 v 0.295775 h 0.29576 0.29576 0.29576 0.29575 0.29576 0.29578 0.29576 0.29576 0.29575 0.29576 v 0.295759 0.295758 0.295759 0.295758 z"
       style="font-size:1.6px;line-height:1.25;font-family:'Spleen 32x64';-inkscape-font-specification:'Spleen 32x64, Normal';display:inline;fill:#ffffff;stroke-width:0.0314425"
       id="path57681"
       inkscape:export-filename="/Users/tenzin/Downloads/OhioBSDlogoText.png"
       inkscape:export-xdpi="205.97238"
       inkscape:export-ydpi="205.97238" />
    <path
       d="m 156.13557,33.130771 h -0.29576 -0.29576 -0.29575 -0.29576 -0.29576 -0.29576 -0.29576 -0.29577 -0.29576 -0.29576 -0.29576 -0.29576 -0.29576 v -0.295758 h -0.29575 -0.29576 v -0.295759 h -0.29578 v -0.295758 h -0.29576 v -0.295759 -0.295775 h -0.29576 V 31.356204 31.060445 30.764687 30.468928 30.173169 29.877411 29.581652 29.285877 28.990119 28.69436 28.398602 28.102843 27.807085 27.511326 27.215568 26.919792 26.624034 26.328275 h 0.29576 v -0.295758 -0.295759 h 0.29576 V 25.441 h 0.29578 v -0.295759 h 0.29576 0.29575 v -0.295758 h 0.29576 0.29576 0.29576 0.29576 0.29576 0.29577 0.29576 0.29576 0.29576 0.29576 0.29575 0.29576 0.29576 0.29578 v 0.295758 h 0.29576 0.29575 V 25.441 h 0.29576 v 0.295758 h 0.29576 v 0.295759 0.295758 h 0.29576 v 0.295759 0.295758 0.295776 0.295758 0.295759 0.295758 0.295759 0.295758 0.295759 0.295758 0.295775 0.295759 0.295758 0.295759 0.295759 0.295758 0.295759 0.295758 h -0.29576 v 0.295775 0.295759 h -0.29576 v 0.295758 h -0.29576 v 0.295759 h -0.29575 -0.29576 v 0.295758 z m -0.29576,-1.183152 h 0.29576 v -0.295758 h 0.29578 v -0.295776 h 0.29576 V 31.060327 30.764568 30.46881 30.173051 29.877293 29.581534 29.285759 28.99 28.694242 28.398483 28.102725 27.806966 27.511208 27.215449 26.919674 26.623915 h -0.29576 v -0.295758 h -0.29578 v -0.295759 h -0.29576 -0.29576 -0.29575 -0.29576 -0.29576 -0.29576 -0.29576 -0.29577 -0.29576 -0.29576 -0.29576 -0.29576 v 0.295759 h -0.29576 v 0.295758 h -0.29575 v 0.295759 0.295775 0.295759 0.295758 0.295759 0.295758 0.295759 0.295758 0.295759 0.295775 0.295759 0.295758 0.295759 0.295758 0.295759 0.295758 h 0.29575 v 0.295776 h 0.29576 v 0.295758 h 0.29576 0.29576 0.29576 0.29576 0.29577 0.29576 0.29576 0.29576 0.29576 0.29575 z"
       style="font-size:1.6px;line-height:1.25;font-family:'Spleen 32x64';-inkscape-font-specification:'Spleen 32x64, Normal';display:inline;fill:#ffffff;stroke-width:0.0314425"
       id="path57683"
       inkscape:export-filename="/Users/tenzin/Downloads/OhioBSDlogoText.png"
       inkscape:export-xdpi="205.97238"
       inkscape:export-ydpi="205.97238" />
    <path
       d="m 166.39805,33.130771 h -0.29575 -0.29576 -0.29576 -0.29576 -0.29576 -0.29576 -0.29576 -0.29577 -0.29576 -0.29576 -0.29576 -0.29576 -0.29575 -0.29576 -0.29576 -0.29578 -0.29575 -0.29576 -0.29576 v -0.295758 h -0.29576 v -0.295759 h -0.29576 v -0.295758 h -0.29576 v -0.295759 h -0.29576 V 31.651962 31.356204 31.060445 30.764687 30.468928 30.173169 29.877411 29.581652 29.285877 28.990119 28.69436 28.398602 28.102843 27.807085 27.511326 27.215568 26.919792 26.624034 26.328275 26.032517 25.736758 25.441 25.145241 24.849483 h 0.29576 0.29576 0.29576 0.29576 v 0.295758 0.295759 0.295758 0.295759 0.295758 0.295759 0.295758 0.295776 0.295758 0.295759 0.295758 0.295759 0.295758 0.295759 0.295758 0.295775 0.295759 0.295758 0.295759 0.295759 0.295758 0.295759 h 0.29576 v 0.295758 h 0.29576 v 0.295775 h 0.29575 0.29578 0.29576 0.29576 0.29575 0.29576 0.29576 0.29576 0.29576 0.29577 0.29576 0.29576 0.29576 0.29576 V 31.651962 31.356204 31.060445 30.764687 30.468928 30.173169 29.877411 29.581652 29.285877 28.990119 28.69436 28.398602 28.102843 27.807085 27.511326 27.215568 26.919792 26.624034 26.328275 26.032517 25.736758 25.441 25.145241 24.849483 h 0.29576 0.29576 0.29575 0.29578 v 0.295758 0.295759 0.295758 0.295759 0.295758 0.295759 0.295758 0.295776 0.295758 0.295759 0.295758 0.295759 0.295758 0.295759 0.295758 0.295775 0.295759 0.295758 0.295759 0.295759 0.295758 0.295759 0.295758 0.295775 0.295759 0.295758 0.295759 0.295758 z"
       style="font-size:1.6px;line-height:1.25;font-family:'Spleen 32x64';-inkscape-font-specification:'Spleen 32x64, Normal';display:inline;fill:#ffffff;stroke-width:0.0314425"
       id="path57685"
       inkscape:export-filename="/Users/tenzin/Downloads/OhioBSDlogoText.png"
       inkscape:export-xdpi="205.97238"
       inkscape:export-ydpi="205.97238" />
    <path
       d="m 175.18159,33.130771 h -0.29576 -0.29576 -0.29577 -0.29576 -0.29576 -0.29576 -0.29575 -0.29576 -0.29576 -0.29576 -0.29578 -0.29575 -0.29576 -0.29576 -0.29576 -0.29576 -0.29576 -0.29576 v -0.295758 h -0.29577 -0.29576 v -0.295759 h -0.29576 v -0.295758 h -0.29576 V 31.947737 31.651962 H 168.3791 V 31.356204 31.060445 30.764687 30.468928 30.173169 29.877411 29.581652 29.285877 28.990119 28.69436 28.398602 28.102843 27.807085 27.511326 27.215568 26.919792 26.624034 26.328275 h 0.29575 v -0.295758 -0.295759 h 0.29576 V 25.441 h 0.29576 v -0.295759 h 0.29576 0.29577 v -0.295758 h 0.29576 0.29576 0.29576 0.29576 0.29576 0.29576 0.29575 0.29578 0.29576 0.29576 0.29576 0.29575 0.29576 0.29576 0.29576 V 24.553707 24.257949 23.96219 23.666432 23.370673 23.074915 22.779156 22.483398 22.187622 21.891864 21.596105 21.300347 h 0.29577 0.29576 0.29576 0.29576 v 0.295758 0.295759 0.295758 0.295776 0.295758 0.295759 0.295758 0.295759 0.295758 0.295759 0.295758 0.295776 0.295758 0.295759 0.295758 0.295759 0.295758 0.295759 0.295758 0.295776 0.295758 0.295759 0.295758 0.295759 0.295758 0.295759 0.295758 0.295775 0.295759 0.295758 0.295759 0.295759 0.295758 0.295759 0.295758 0.295775 0.295759 0.295758 0.295759 0.295758 z m -1.18317,-1.183152 h 0.29576 V 31.651861 31.356085 31.060327 30.764568 30.46881 30.173051 29.877293 29.581534 29.285759 28.99 28.694242 28.398483 28.102725 27.806966 27.511208 27.215449 26.919674 26.623915 26.328157 26.032398 h -0.29576 -0.29576 -0.29575 -0.29578 -0.29576 -0.29576 -0.29576 -0.29575 -0.29576 -0.29576 -0.29576 -0.29577 -0.29576 -0.29576 v 0.295759 h -0.29576 v 0.295758 h -0.29576 v 0.295759 0.295775 0.295759 0.295758 0.295759 0.295758 0.295759 0.295758 0.295759 0.295775 0.295759 0.295758 0.295759 0.295758 0.295759 0.295758 h 0.29576 v 0.295776 h 0.29576 v 0.295758 h 0.29576 0.29576 0.29577 0.29576 0.29576 0.29576 0.29575 0.29576 0.29576 0.29576 0.29578 0.29575 z"
       style="font-size:1.6px;line-height:1.25;font-family:'Spleen 32x64';-inkscape-font-specification:'Spleen 32x64, Normal';display:inline;fill:#ffffff;stroke-width:0.0314425"
       id="path57687"
       inkscape:export-filename="/Users/tenzin/Downloads/OhioBSDlogoText.png"
       inkscape:export-xdpi="205.97238"
       inkscape:export-ydpi="205.97238" />
  </g>
</svg>
